<?xml version="1.0" standalone="no"?>
<!DOCTYPE svg PUBLIC "-//W3C//DTD SVG 1.1//EN" "http://www.w3.org/Graphics/SVG/1.1/DTD/svg11.dtd" >
<svg>
<metadata>
Created by FontForge 20120731 at Fri Aug 28 15:52:38 2015
 By www-data
Copyright (c) Dimitri Bruni, Manuel Krebs, Norm. www.lineto.com, 2001. All rights reserved.
</metadata>
<defs>
<font id="SimpleRegular" horiz-adv-x="528" >
  <font-face 
    font-family="SimpleRegular"
    font-weight="400"
    font-stretch="normal"
    units-per-em="1000"
    panose-1="2 0 5 9 3 0 0 2 0 3"
    ascent="800"
    descent="-200"
    x-height="496"
    cap-height="712"
    bbox="14.383 -227 550 951"
    underline-thickness="0"
    underline-position="0"
    stemh="65"
    stemv="65"
    unicode-range="U+0020-FB02"
  />
<missing-glyph horiz-adv-x="600" 
d="M90 0v712h420v-712h-420zM166 76h268v560h-268v-560z" />
    <glyph glyph-name="fi" unicode="fi" 
d="M513 11c0 -6 -6 -11 -12 -11h-194c-6 0 -10 5 -10 11v43c0 6 4 10 10 10h65v346h-194v-346h65c5 0 10 -4 10 -10v-43c0 -6 -5 -11 -10 -11h-195c-6 0 -11 5 -11 11v43c0 6 5 10 11 10h65v346h-65c-6 0 -11 6 -11 11v44c0 5 5 10 11 10h65v87c0 85 58 162 151 162h21
c94 0 152 -77 152 -162v-11c0 -6 -5 -11 -11 -11h-43c-6 0 -11 5 -11 11v11c0 57 -36 97 -87 97h-21c-50 0 -86 -40 -86 -97v-87h248c6 0 11 -5 11 -10v-401h64c6 0 12 -4 12 -10v-43z" />
    <glyph glyph-name="fl" unicode="fl" 
d="M513 11c0 -6 -6 -11 -12 -11h-474c-6 0 -12 5 -12 11v43c0 6 6 10 12 10h86v346h-65c-6 0 -11 6 -11 11v44c0 5 5 10 11 10h65v87c0 85 58 162 151 162h21c94 0 152 -77 152 -162v-498h64c6 0 12 -4 12 -10v-43zM372 64v498c0 57 -36 97 -87 97h-21
c-50 0 -86 -40 -86 -97v-87h119c5 0 10 -5 10 -10v-44c0 -5 -5 -11 -10 -11h-119v-346h194z" />
    <glyph glyph-name=".notdef" unicode="&#xe000;" horiz-adv-x="600" 
d="M90 0v712h420v-712h-420zM166 76h268v560h-268v-560z" />
    <glyph glyph-name="space" unicode=" " 
 />
    <glyph glyph-name="A" unicode="A" 
d="M437 11c0 -6 -5 -11 -11 -11h-43c-6 0 -11 5 -11 11v226h-216v-226c0 -6 -5 -11 -11 -11h-43c-6 0 -11 5 -11 11v265l113 429c1 3 7 7 11 7h98c4 0 10 -4 11 -7l113 -429v-265zM362 302l-90 346h-16l-90 -346h196z" />
    <glyph glyph-name="B" unicode="B" 
d="M456 162c0 -89 -72 -162 -162 -162h-184c-5 0 -10 5 -10 11v691c0 6 5 10 10 10h173c89 0 162 -72 162 -161v-65c0 -51 -23 -96 -59 -126c42 -29 70 -78 70 -133v-65zM380 486v65c0 54 -43 97 -97 97h-118v-259h118c54 0 97 43 97 97zM392 162v65c0 53 -44 97 -98 97
h-129v-260h129c54 0 98 44 98 98z" />
    <glyph glyph-name="C" unicode="C" 
d="M447 151c0 -90 -72 -162 -162 -162h-32c-89 0 -162 72 -162 162v411c0 89 73 162 162 162h32c90 0 162 -73 162 -162v-22c0 -5 -4 -11 -10 -11h-43c-6 0 -11 6 -11 11v22c0 53 -44 97 -98 97h-32c-53 0 -97 -44 -97 -97v-411c0 -53 44 -97 97 -97h32c54 0 98 44 98 97v32
c0 6 5 11 11 11h43c6 0 10 -5 10 -11v-32z" />
    <glyph glyph-name="D" unicode="D" 
d="M445 162c0 -89 -73 -162 -162 -162h-173c-5 0 -10 5 -10 11v691c0 6 5 10 10 10h173c89 0 162 -72 162 -161v-389zM380 162v389c0 54 -43 97 -97 97h-118v-584h118c54 0 97 44 97 98z" />
    <glyph glyph-name="E" unicode="E" 
d="M447 11c0 -6 -4 -11 -10 -11h-324c-5 0 -11 5 -11 11v691c0 6 6 10 11 10h324c6 0 10 -4 10 -10v-43c0 -6 -4 -11 -10 -11h-270v-259h248c5 0 11 -5 11 -11v-43c0 -6 -6 -11 -11 -11h-248v-260h270c6 0 10 -4 10 -10v-43z" />
    <glyph glyph-name="F" unicode="F" 
d="M458 659c0 -6 -5 -11 -11 -11h-269v-259h248c6 0 11 -5 11 -11v-43c0 -6 -5 -11 -11 -11h-248v-313c0 -6 -5 -11 -11 -11h-43c-6 0 -11 5 -11 11v691c0 6 5 10 11 10h323c6 0 11 -4 11 -10v-43z" />
    <glyph glyph-name="G" unicode="G" 
d="M443 151c0 -90 -73 -162 -163 -162h-32c-90 0 -163 72 -163 162v411c0 89 73 161 163 161h32c90 0 163 -72 163 -161v-22c0 -6 -6 -11 -12 -11h-43c-6 0 -11 5 -11 11v22c0 52 -43 97 -97 97h-32c-54 0 -97 -45 -97 -97v-411c0 -53 43 -97 97 -97h32c54 0 97 44 97 97
v173h-107c-6 0 -12 5 -12 11v43c0 6 6 11 12 11h161c6 0 12 -5 12 -11v-227z" />
    <glyph glyph-name="H" unicode="H" 
d="M437 11c0 -6 -5 -11 -11 -11h-43c-6 0 -11 5 -11 11v313h-216v-313c0 -6 -5 -11 -11 -11h-43c-6 0 -11 5 -11 11v691c0 6 5 10 11 10h43c6 0 11 -4 11 -10v-313h216v313c0 6 5 10 11 10h43c6 0 11 -4 11 -10v-691z" />
    <glyph glyph-name="I" unicode="I" 
d="M447 11c0 -6 -4 -11 -10 -11h-346c-6 0 -10 5 -10 11v43c0 6 4 10 10 10h140v584h-129c-6 0 -11 5 -11 11v43c0 6 5 10 11 10h324c6 0 11 -4 11 -10v-43c0 -6 -5 -11 -11 -11h-129v-584h140c6 0 10 -4 10 -10v-43z" />
    <glyph glyph-name="J" unicode="J" 
d="M426 151c0 -90 -73 -162 -162 -162h-21c-90 0 -162 72 -162 162v65c0 6 4 11 10 11h43c6 0 11 -5 11 -11v-65c0 -53 44 -97 98 -97h21c54 0 97 44 97 97v497h-227c-5 0 -10 5 -10 11v43c0 6 5 10 10 10h281c5 0 11 -4 11 -10v-551z" />
    <glyph glyph-name="K" unicode="K" 
d="M490 17c5 -9 2 -17 -9 -17h-53c-2 0 -8 3 -9 5l-219 316l-44 -62v-248c0 -6 -5 -11 -11 -11h-43c-6 0 -11 5 -11 11v691c0 6 5 10 11 10h43c6 0 11 -4 11 -10v-330l240 336c1 1 8 4 10 4h53c10 0 15 -7 9 -16l-228 -320z" />
    <glyph glyph-name="L" unicode="L" 
d="M458 11c0 -6 -5 -11 -11 -11h-302c-6 0 -11 5 -11 11v691c0 6 5 10 11 10h43c6 0 12 -4 12 -10v-638h247c6 0 11 -4 11 -10v-43z" />
    <glyph glyph-name="M" unicode="M" 
d="M480 11c0 -6 -5 -11 -11 -11h-43c-6 0 -10 5 -10 11v540c0 25 5 79 5 79h-19s-7 -54 -16 -79l-86 -242c-1 -3 -7 -7 -10 -7h-52c-3 0 -9 4 -10 7l-86 242c-9 25 -16 79 -16 79h-19s5 -54 5 -79v-540c0 -6 -4 -11 -10 -11h-43c-6 0 -11 5 -11 11v691c0 6 5 10 11 10h89
c4 0 9 -4 10 -6l97 -285c6 -18 9 -52 9 -52s3 34 9 52l97 285c1 2 6 6 10 6h89c6 0 11 -4 11 -10v-691z" />
    <glyph glyph-name="N" unicode="N" 
d="M452 11c0 -6 -6 -11 -11 -11h-93c-2 0 -9 4 -10 7l-170 544c-7 21 -14 79 -14 79h-20s7 -58 7 -79v-540c0 -6 -6 -11 -10 -11h-44c-5 0 -11 5 -11 11v691c0 6 6 10 11 10h93c2 0 9 -4 10 -6l170 -544c7 -22 14 -79 14 -79h20s-7 57 -7 79v540c0 6 6 10 10 10h44
c5 0 11 -4 11 -10v-691z" />
    <glyph glyph-name="O" unicode="O" 
d="M443 151c0 -90 -73 -162 -163 -162h-32c-90 0 -163 72 -163 162v411c0 89 73 162 163 162h32c90 0 163 -73 163 -162v-411zM377 151v411c0 53 -43 97 -97 97h-32c-54 0 -97 -44 -97 -97v-411c0 -53 43 -97 97 -97h32c54 0 97 44 97 97z" />
    <glyph glyph-name="P" unicode="P" 
d="M445 399c0 -89 -73 -162 -162 -162h-118v-226c0 -6 -6 -11 -11 -11h-44c-5 0 -10 5 -10 11v691c0 6 5 10 10 10h173c89 0 162 -72 162 -161v-152zM380 399v152c0 54 -43 97 -97 97h-118v-346h118c54 0 97 44 97 97z" />
    <glyph glyph-name="Q" unicode="Q" 
d="M461 1l-30 -31c-5 -4 -11 -4 -15 0l-46 46c-26 -17 -57 -27 -90 -27h-32c-90 0 -163 72 -163 162v411c0 89 73 162 163 162h32c90 0 163 -73 163 -162v-411c0 -33 -11 -64 -27 -90l45 -45c5 -4 5 -11 0 -15zM377 151v411c0 53 -43 97 -97 97h-32c-54 0 -97 -44 -97 -97
v-411c0 -53 43 -97 97 -97h32c16 0 29 4 43 9l-71 70c-4 4 -4 12 0 16l30 31c4 3 12 3 16 0l70 -71c6 13 9 27 9 42z" />
    <glyph glyph-name="R" unicode="R" 
d="M448 15c3 -8 -1 -15 -10 -15h-46c-4 0 -10 4 -11 7l-98 230h-118v-226c0 -6 -6 -11 -11 -11h-44c-5 0 -10 5 -10 11v691c0 6 5 10 10 10h173c89 0 162 -72 162 -161v-152c0 -66 -40 -123 -97 -147zM380 399v152c0 54 -43 97 -97 97h-118v-346h118c54 0 97 44 97 97z" />
    <glyph glyph-name="S" unicode="S" 
d="M447 151c0 -90 -72 -162 -162 -162h-42c-90 0 -162 72 -162 162v22c0 6 4 10 10 10h43c6 0 11 -4 11 -10v-22c0 -53 44 -97 98 -97h42c54 0 98 44 98 97v32c0 168 -292 138 -292 346v33c0 89 73 162 162 162h22c89 0 162 -73 162 -162v-22c0 -5 -5 -11 -11 -11h-43
c-6 0 -11 6 -11 11v22c0 53 -44 97 -97 97h-22c-53 0 -97 -44 -97 -97v-33c0 -157 291 -129 291 -346v-32z" />
    <glyph glyph-name="T" unicode="T" 
d="M458 659c0 -6 -5 -11 -11 -11h-150v-637c0 -6 -6 -11 -12 -11h-42c-6 0 -12 5 -12 11v637h-150c-6 0 -11 5 -11 11v43c0 6 5 10 11 10h366c6 0 11 -4 11 -10v-43z" />
    <glyph glyph-name="U" unicode="U" 
d="M437 151c0 -90 -73 -162 -162 -162h-22c-89 0 -162 72 -162 162v551c0 6 5 10 11 10h43c6 0 11 -4 11 -10v-551c0 -53 44 -97 97 -97h22c53 0 97 44 97 97v551c0 6 5 10 11 10h43c6 0 11 -4 11 -10v-551z" />
    <glyph glyph-name="V" unicode="V" 
d="M453 700l-151 -691c-1 -4 -6 -9 -10 -9h-57c-4 0 -9 5 -10 9l-150 691c-2 7 3 12 10 12h45c3 0 9 -4 10 -7l124 -594l124 594c1 3 7 7 10 7h45c7 0 12 -5 10 -12z" />
    <glyph glyph-name="W" unicode="W" 
d="M497 702l-10 -327l-41 -365c-1 -5 -5 -10 -10 -10h-88c-3 0 -9 5 -10 9l-56 261c-5 22 -8 75 -8 75h-19s-4 -53 -9 -75l-57 -261c-1 -4 -7 -9 -10 -9h-87c-5 0 -10 5 -11 10l-41 365l-9 327c0 6 5 10 10 10h43c6 0 11 -4 12 -9l9 -323l21 -207c4 -33 4 -107 4 -107h20
s6 74 13 107l48 229c1 4 7 8 11 8h84c4 0 10 -4 10 -8l48 -229c7 -33 14 -107 14 -107h20s0 74 3 107l21 207l10 323c1 5 6 9 12 9h43c5 0 10 -4 10 -10z" />
    <glyph glyph-name="X" unicode="X" 
d="M460 15c4 -8 0 -15 -10 -15h-47c-3 0 -8 4 -10 7l-129 283l-129 -283c-2 -3 -7 -7 -10 -7h-47c-10 0 -14 7 -10 15l160 354l-149 329c-4 8 1 14 9 14h48c3 0 9 -3 10 -5l118 -261l118 261c1 2 7 5 10 5h48c8 0 13 -6 9 -14l-149 -329z" />
    <glyph glyph-name="Y" unicode="Y" 
d="M447 698l-150 -386v-301c0 -6 -6 -11 -12 -11h-42c-6 0 -12 5 -12 11v301l-150 386c-4 9 1 14 9 14h46c4 0 10 -4 11 -6l117 -308l117 308c1 2 7 6 10 6h47c8 0 13 -5 9 -14z" />
    <glyph glyph-name="Z" unicode="Z" 
d="M447 11c0 -6 -4 -11 -10 -11h-335c-6 0 -11 5 -11 11v38c0 13 1 15 7 27l266 572h-251c-5 0 -11 5 -11 11v43c0 6 6 10 11 10h313c6 0 11 -4 11 -10v-43s0 -10 -6 -22l-267 -573h273c6 0 10 -4 10 -10v-43z" />
    <glyph glyph-name="Agrave" unicode="&#xc0;" 
d="M437 11c0 -6 -5 -11 -11 -11h-43c-6 0 -11 5 -11 11v226h-216v-226c0 -6 -5 -11 -11 -11h-43c-6 0 -11 5 -11 11v265l113 429c1 3 7 7 11 7h98c4 0 10 -4 11 -7l113 -429v-265zM362 302l-90 346h-16l-90 -346h196zM305 795c7 -9 2 -17 -8 -17h-44c-1 0 -6 2 -7 2
l-109 109c-8 9 -4 18 8 18h65c1 0 8 -3 9 -4z" />
    <glyph glyph-name="Aacute" unicode="&#xc1;" 
d="M437 11c0 -6 -5 -11 -11 -11h-43c-6 0 -11 5 -11 11v226h-216v-226c0 -6 -5 -11 -11 -11h-43c-6 0 -11 5 -11 11v265l113 429c1 3 7 7 11 7h98c4 0 10 -4 11 -7l113 -429v-265zM362 302l-90 346h-16l-90 -346h196zM391 889l-109 -109c-1 0 -6 -2 -7 -2h-44
c-10 0 -15 8 -8 17l86 108c1 1 8 4 9 4h65c12 0 16 -9 8 -18z" />
    <glyph glyph-name="Acircumflex" unicode="&#xc2;" 
d="M437 11c0 -6 -5 -11 -11 -11h-43c-6 0 -11 5 -11 11v226h-216v-226c0 -6 -5 -11 -11 -11h-43c-6 0 -11 5 -11 11v265l113 429c1 3 7 7 11 7h98c4 0 10 -4 11 -7l113 -429v-265zM362 302l-90 346h-16l-90 -346h196zM396 795c7 -9 3 -17 -8 -17h-43c-1 0 -7 2 -8 2l-73 74
l-73 -74c-1 0 -7 -2 -8 -2h-43c-11 0 -15 8 -8 17l86 108c1 1 7 4 9 4h74c2 0 8 -3 9 -4z" />
    <glyph glyph-name="Atilde" unicode="&#xc3;" 
d="M437 11c0 -6 -5 -11 -11 -11h-43c-6 0 -11 5 -11 11v226h-216v-226c0 -6 -5 -11 -11 -11h-43c-6 0 -11 5 -11 11v265l113 429c1 3 7 7 11 7h98c4 0 10 -4 11 -7l113 -429v-265zM362 302l-90 346h-16l-90 -346h196zM399 853c0 -72 -74 -106 -150 -54c-52 34 -66 5 -66 -11
c0 -6 -5 -10 -11 -10h-32c-6 0 -11 4 -11 10c0 72 74 107 150 55c52 -35 66 -6 66 10c0 6 5 11 11 11h32c6 0 11 -5 11 -11z" />
    <glyph glyph-name="Adieresis" unicode="&#xc4;" 
d="M437 11c0 -6 -5 -11 -11 -11h-43c-6 0 -11 5 -11 11v226h-216v-226c0 -6 -5 -11 -11 -11h-43c-6 0 -11 5 -11 11v265l113 429c1 3 7 7 11 7h98c4 0 10 -4 11 -7l113 -429v-265zM362 302l-90 346h-16l-90 -346h196zM221 810c0 -6 -5 -11 -11 -11h-76c-5 0 -10 5 -10 11v87
c0 5 5 10 10 10h76c6 0 11 -5 11 -10v-87zM404 810c0 -6 -5 -11 -10 -11h-76c-6 0 -11 5 -11 11v87c0 5 5 10 11 10h76c5 0 10 -5 10 -10v-87z" />
    <glyph glyph-name="Aring" unicode="&#xc5;" 
d="M437 11c0 -6 -5 -11 -11 -11h-43c-6 0 -11 5 -11 11v226h-216v-226c0 -6 -5 -11 -11 -11h-43c-6 0 -11 5 -11 11v265l113 429c1 3 7 7 11 7h98c4 0 10 -4 11 -7l113 -429v-265zM362 302l-90 346h-16l-90 -346h196zM350 831c0 -47 -38 -86 -86 -86s-86 39 -86 86
c0 48 38 87 86 87s86 -39 86 -87zM297 831c0 19 -15 33 -33 33s-33 -14 -33 -33c0 -17 15 -32 33 -32s33 15 33 32z" />
    <glyph glyph-name="AE" unicode="&#xc6;" 
d="M469 11c0 -6 -5 -11 -11 -11h-194c-6 0 -11 5 -11 11v226h-129v-226c0 -6 -6 -11 -11 -11h-43c-6 0 -11 5 -11 11v262l1 3l112 429c1 3 7 7 10 7h276c6 0 11 -4 11 -10v-43c0 -6 -5 -11 -11 -11h-140v-259h119c6 0 10 -5 10 -11v-43c0 -6 -4 -11 -10 -11h-119v-260h140
c6 0 11 -4 11 -10v-43zM253 302v346h-28l-92 -346h120z" />
    <glyph glyph-name="Ccedilla" unicode="&#xc7;" 
d="M447 151c0 -85 -64 -154 -147 -162l-30 -90c-1 -3 -7 -7 -10 -7h-46c-14 0 -10 13 -8 21l26 77c-79 11 -141 79 -141 161v411c0 89 73 162 162 162h32c90 0 162 -73 162 -162v-22c0 -5 -4 -11 -10 -11h-43c-6 0 -11 6 -11 11v22c0 53 -44 97 -98 97h-32
c-53 0 -97 -44 -97 -97v-411c0 -53 44 -97 97 -97h32c54 0 98 44 98 97v32c0 6 5 11 11 11h43c6 0 10 -5 10 -11v-32z" />
    <glyph glyph-name="Egrave" unicode="&#xc8;" 
d="M447 11c0 -6 -4 -11 -10 -11h-325c-4 0 -10 5 -10 11v691c0 6 6 10 10 10h325c6 0 10 -4 10 -10v-43c0 -6 -4 -11 -10 -11h-270v-259h248c5 0 11 -5 11 -11v-43c0 -6 -6 -11 -11 -11h-248v-260h270c6 0 10 -4 10 -10v-43zM305 795c7 -9 2 -17 -8 -17h-44c-1 0 -6 2 -7 2
l-109 109c-8 9 -4 18 8 18h65c1 0 8 -3 9 -4z" />
    <glyph glyph-name="Eacute" unicode="&#xc9;" 
d="M447 11c0 -6 -4 -11 -10 -11h-325c-4 0 -10 5 -10 11v691c0 6 6 10 10 10h325c6 0 10 -4 10 -10v-43c0 -6 -4 -11 -10 -11h-270v-259h248c5 0 11 -5 11 -11v-43c0 -6 -6 -11 -11 -11h-248v-260h270c6 0 10 -4 10 -10v-43zM391 889l-109 -109c-1 0 -6 -2 -7 -2h-44
c-10 0 -15 8 -8 17l86 108c1 1 8 4 9 4h65c12 0 16 -9 8 -18z" />
    <glyph glyph-name="Ecircumflex" unicode="&#xca;" 
d="M447 11c0 -6 -4 -11 -10 -11h-325c-4 0 -10 5 -10 11v691c0 6 6 10 10 10h325c6 0 10 -4 10 -10v-43c0 -6 -4 -11 -10 -11h-270v-259h248c5 0 11 -5 11 -11v-43c0 -6 -6 -11 -11 -11h-248v-260h270c6 0 10 -4 10 -10v-43zM407 795c8 -9 3 -17 -8 -17h-43c-2 0 -8 2 -8 2
l-73 74l-73 -74c-1 0 -7 -2 -8 -2h-43c-12 0 -16 8 -9 17l86 108c1 1 7 4 9 4h76c1 0 7 -3 8 -4z" />
    <glyph glyph-name="Edieresis" unicode="&#xcb;" 
d="M447 11c0 -6 -4 -11 -10 -11h-325c-4 0 -10 5 -10 11v691c0 6 6 10 10 10h325c6 0 10 -4 10 -10v-43c0 -6 -4 -11 -10 -11h-270v-259h248c5 0 11 -5 11 -11v-43c0 -6 -6 -11 -11 -11h-248v-260h270c6 0 10 -4 10 -10v-43zM404 810c0 -6 -5 -11 -10 -11h-76
c-6 0 -11 5 -11 11v87c0 5 5 10 11 10h76c5 0 10 -5 10 -10v-87zM221 810c0 -6 -5 -11 -11 -11h-76c-5 0 -10 5 -10 11v87c0 5 5 10 10 10h76c6 0 11 -5 11 -10v-87z" />
    <glyph glyph-name="Igrave" unicode="&#xcc;" 
d="M447 11c0 -6 -4 -11 -10 -11h-346c-6 0 -10 5 -10 11v43c0 6 4 10 10 10h140v584h-129c-6 0 -11 5 -11 11v43c0 6 5 10 11 10h324c6 0 11 -4 11 -10v-43c0 -6 -5 -11 -11 -11h-129v-584h140c6 0 10 -4 10 -10v-43zM305 795c7 -9 2 -17 -8 -17h-44c-1 0 -6 2 -7 2
l-109 109c-8 9 -4 18 8 18h65c1 0 8 -3 9 -4z" />
    <glyph glyph-name="Iacute" unicode="&#xcd;" 
d="M447 11c0 -6 -4 -11 -10 -11h-346c-6 0 -10 5 -10 11v43c0 6 4 10 10 10h140v584h-129c-6 0 -11 5 -11 11v43c0 6 5 10 11 10h324c6 0 11 -4 11 -10v-43c0 -6 -5 -11 -11 -11h-129v-584h140c6 0 10 -4 10 -10v-43zM391 889l-109 -109c-1 0 -6 -2 -7 -2h-44
c-10 0 -15 8 -8 17l86 108c1 1 8 4 9 4h65c12 0 16 -9 8 -18z" />
    <glyph glyph-name="Icircumflex" unicode="&#xce;" 
d="M447 11c0 -6 -4 -11 -10 -11h-346c-6 0 -10 5 -10 11v43c0 6 4 10 10 10h140v584h-129c-6 0 -11 5 -11 11v43c0 6 5 10 11 10h324c6 0 11 -4 11 -10v-43c0 -6 -5 -11 -11 -11h-129v-584h140c6 0 10 -4 10 -10v-43zM396 795c7 -9 3 -17 -8 -17h-43c-1 0 -7 2 -8 2l-73 74
l-73 -74c-1 0 -7 -2 -8 -2h-43c-11 0 -15 8 -8 17l86 108c1 1 7 4 9 4h74c2 0 8 -3 9 -4z" />
    <glyph glyph-name="Idieresis" unicode="&#xcf;" 
d="M447 11c0 -6 -4 -11 -10 -11h-346c-6 0 -10 5 -10 11v43c0 6 4 10 10 10h140v584h-129c-6 0 -11 5 -11 11v43c0 6 5 10 11 10h324c6 0 11 -4 11 -10v-43c0 -6 -5 -11 -11 -11h-129v-584h140c6 0 10 -4 10 -10v-43zM404 810c0 -6 -5 -11 -10 -11h-76c-6 0 -11 5 -11 11v87
c0 5 5 10 11 10h76c5 0 10 -5 10 -10v-87zM221 810c0 -6 -5 -11 -11 -11h-76c-5 0 -10 5 -10 11v87c0 5 5 10 10 10h76c6 0 11 -5 11 -10v-87z" />
    <glyph glyph-name="Lslash" unicode="&#x141;" 
d="M458 11c0 -6 -5 -11 -11 -11h-302c-6 0 -11 5 -11 11v272l-43 -25c-5 -3 -11 -1 -14 4l-22 38c-3 4 -1 11 4 14l75 44v344c0 6 5 10 11 10h43c6 0 12 -4 12 -10v-306l102 59c5 3 12 1 15 -5l21 -36c3 -6 1 -13 -4 -16l-134 -77v-257h247c6 0 11 -4 11 -10v-43z" />
    <glyph glyph-name="Ntilde" unicode="&#xd1;" 
d="M452 11c0 -6 -6 -11 -11 -11h-93c-2 0 -9 4 -10 7l-170 544c-7 21 -14 79 -14 79h-20s7 -58 7 -79v-540c0 -6 -6 -11 -11 -11h-44c-4 0 -10 5 -10 11v691c0 6 6 10 10 10h94c2 0 9 -4 10 -6l170 -544c7 -22 14 -79 14 -79h20s-7 57 -7 79v540c0 6 6 10 10 10h44
c5 0 11 -4 11 -10v-691zM399 853c0 -72 -74 -106 -150 -54c-52 34 -66 5 -66 -11c0 -6 -5 -10 -11 -10h-32c-6 0 -11 4 -11 10c0 72 74 107 150 55c52 -35 66 -6 66 10c0 6 5 11 11 11h32c6 0 11 -5 11 -11z" />
    <glyph glyph-name="Ograve" unicode="&#xd2;" 
d="M443 151c0 -90 -73 -162 -163 -162h-32c-90 0 -163 72 -163 162v411c0 89 73 162 163 162h32c90 0 163 -73 163 -162v-411zM377 151v411c0 53 -43 97 -97 97h-32c-54 0 -97 -44 -97 -97v-411c0 -53 43 -97 97 -97h32c54 0 97 44 97 97zM305 795c7 -9 2 -17 -8 -17h-44
c-1 0 -6 2 -7 2l-109 109c-8 9 -4 18 8 18h65c1 0 8 -3 9 -4z" />
    <glyph glyph-name="Oacute" unicode="&#xd3;" 
d="M443 151c0 -90 -73 -162 -163 -162h-32c-90 0 -163 72 -163 162v411c0 89 73 162 163 162h32c90 0 163 -73 163 -162v-411zM377 151v411c0 53 -43 97 -97 97h-32c-54 0 -97 -44 -97 -97v-411c0 -53 43 -97 97 -97h32c54 0 97 44 97 97zM391 889l-109 -109
c-1 0 -6 -2 -7 -2h-44c-10 0 -15 8 -8 17l86 108c1 1 8 4 9 4h65c12 0 16 -9 8 -18z" />
    <glyph glyph-name="Ocircumflex" unicode="&#xd4;" 
d="M443 151c0 -90 -73 -162 -163 -162h-32c-90 0 -163 72 -163 162v411c0 89 73 162 163 162h32c90 0 163 -73 163 -162v-411zM377 151v411c0 53 -43 97 -97 97h-32c-54 0 -97 -44 -97 -97v-411c0 -53 43 -97 97 -97h32c54 0 97 44 97 97zM396 795c7 -9 3 -17 -8 -17h-43
c-1 0 -7 2 -8 2l-73 74l-73 -74c-1 0 -7 -2 -8 -2h-43c-11 0 -15 8 -8 17l86 108c1 1 7 4 9 4h74c2 0 8 -3 9 -4z" />
    <glyph glyph-name="Otilde" unicode="&#xd5;" 
d="M443 151c0 -90 -73 -162 -163 -162h-32c-90 0 -163 72 -163 162v411c0 89 73 162 163 162h32c90 0 163 -73 163 -162v-411zM377 151v411c0 53 -43 97 -97 97h-32c-54 0 -97 -44 -97 -97v-411c0 -53 43 -97 97 -97h32c54 0 97 44 97 97zM399 853c0 -72 -74 -106 -150 -54
c-52 34 -66 5 -66 -11c0 -6 -5 -10 -11 -10h-32c-6 0 -11 4 -11 10c0 72 74 107 150 55c52 -35 66 -6 66 10c0 6 5 11 11 11h32c6 0 11 -5 11 -11z" />
    <glyph glyph-name="Odieresis" unicode="&#xd6;" 
d="M443 151c0 -90 -73 -162 -163 -162h-32c-90 0 -163 72 -163 162v411c0 89 73 162 163 162h32c90 0 163 -73 163 -162v-411zM377 151v411c0 53 -43 97 -97 97h-32c-54 0 -97 -44 -97 -97v-411c0 -53 43 -97 97 -97h32c54 0 97 44 97 97zM404 810c0 -6 -5 -11 -10 -11h-76
c-6 0 -11 5 -11 11v87c0 5 5 10 11 10h76c5 0 10 -5 10 -10v-87zM221 810c0 -6 -5 -11 -11 -11h-76c-5 0 -10 5 -10 11v87c0 5 5 10 10 10h76c6 0 11 -5 11 -10v-87z" />
    <glyph glyph-name="Oslash" unicode="&#xd8;" 
d="M443 151c0 -90 -73 -162 -163 -162h-32c-28 0 -53 7 -76 19l-18 -48c-2 -6 -8 -9 -14 -7l-40 15c-6 2 -9 8 -7 14l26 71c-21 27 -34 61 -34 98v411c0 89 73 162 163 162h32c28 0 53 -7 76 -19l18 49c2 4 8 7 14 5l40 -14c6 -2 9 -9 7 -14l-26 -71c21 -27 34 -61 34 -98
v-411zM377 151v421l-183 -502c15 -10 34 -16 54 -16h32c54 0 97 44 97 97zM334 643c-15 10 -34 16 -54 16h-32c-54 0 -97 -44 -97 -97v-421z" />
    <glyph glyph-name="OE" unicode="&#x152;" 
d="M469 11c0 -6 -5 -11 -11 -11h-194c-5 0 -9 3 -10 7c-19 -11 -42 -18 -66 -18c-71 0 -129 58 -129 130v475c0 71 58 130 129 130c24 0 47 -7 66 -18c1 3 5 6 10 6h194c6 0 11 -4 11 -10v-43c0 -6 -5 -11 -11 -11h-140v-259h119c6 0 10 -5 10 -11v-43c0 -6 -4 -11 -10 -11
h-119v-260h140c6 0 11 -4 11 -10v-43zM253 119v475c0 36 -28 65 -65 65c-35 0 -64 -29 -64 -65v-475c0 -36 29 -65 64 -65c37 0 65 29 65 65z" />
    <glyph glyph-name="Scaron" unicode="&#x160;" 
d="M447 151c0 -90 -72 -162 -162 -162h-43c-89 0 -161 72 -161 162v22c0 6 4 10 10 10h43c6 0 11 -4 11 -10v-22c0 -53 44 -97 97 -97h43c54 0 98 44 98 97v32c0 168 -292 138 -292 346v33c0 89 73 162 162 162h22c89 0 162 -73 162 -162v-22c0 -5 -5 -11 -11 -11h-43
c-6 0 -11 6 -11 11v22c0 53 -44 97 -97 97h-22c-53 0 -97 -44 -97 -97v-33c0 -157 291 -129 291 -346v-32zM396 887l-86 -107c-1 -2 -7 -4 -9 -4h-74c-2 0 -8 2 -9 4l-86 107c-7 9 -3 18 8 18h43c1 0 7 -3 8 -4l73 -73l73 73c1 1 7 4 8 4h43c11 0 15 -9 8 -18z" />
    <glyph glyph-name="Ugrave" unicode="&#xd9;" 
d="M437 151c0 -90 -73 -162 -162 -162h-22c-89 0 -162 72 -162 162v551c0 6 5 10 11 10h43c6 0 11 -4 11 -10v-551c0 -53 44 -97 97 -97h22c53 0 97 44 97 97v551c0 6 5 10 11 10h43c6 0 11 -4 11 -10v-551zM305 795c7 -9 2 -17 -8 -17h-44c-1 0 -6 2 -7 2l-109 109
c-8 9 -4 18 8 18h65c1 0 8 -3 9 -4z" />
    <glyph glyph-name="Uacute" unicode="&#xda;" 
d="M437 151c0 -90 -73 -162 -162 -162h-22c-89 0 -162 72 -162 162v551c0 6 5 10 11 10h43c6 0 11 -4 11 -10v-551c0 -53 44 -97 97 -97h22c53 0 97 44 97 97v551c0 6 5 10 11 10h43c6 0 11 -4 11 -10v-551zM391 889l-109 -109c-1 0 -6 -2 -7 -2h-44c-10 0 -15 8 -8 17
l86 108c1 1 8 4 9 4h65c12 0 16 -9 8 -18z" />
    <glyph glyph-name="Ucircumflex" unicode="&#xdb;" 
d="M437 151c0 -90 -73 -162 -162 -162h-22c-89 0 -162 72 -162 162v551c0 6 5 10 11 10h43c6 0 11 -4 11 -10v-551c0 -53 44 -97 97 -97h22c53 0 97 44 97 97v551c0 6 5 10 11 10h43c6 0 11 -4 11 -10v-551zM396 795c7 -9 3 -17 -8 -17h-43c-1 0 -7 2 -8 2l-73 74l-73 -74
c-1 0 -7 -2 -8 -2h-43c-11 0 -15 8 -8 17l86 108c1 1 7 4 9 4h74c2 0 8 -3 9 -4z" />
    <glyph glyph-name="Udieresis" unicode="&#xdc;" 
d="M437 151c0 -90 -73 -162 -162 -162h-22c-89 0 -162 72 -162 162v551c0 6 5 10 11 10h43c6 0 11 -4 11 -10v-551c0 -53 44 -97 97 -97h22c53 0 97 44 97 97v551c0 6 5 10 11 10h43c6 0 11 -4 11 -10v-551zM404 810c0 -6 -5 -11 -10 -11h-76c-6 0 -11 5 -11 11v87
c0 5 5 10 11 10h76c5 0 10 -5 10 -10v-87zM221 810c0 -6 -5 -11 -11 -11h-76c-5 0 -10 5 -10 11v87c0 5 5 10 10 10h76c6 0 11 -5 11 -10v-87z" />
    <glyph glyph-name="Yacute" unicode="&#xdd;" 
d="M447 698l-150 -386v-301c0 -6 -6 -11 -12 -11h-43c-5 0 -11 5 -11 11v301l-150 386c-4 9 1 14 9 14h46c4 0 10 -4 11 -6l117 -308l117 308c1 2 7 6 10 6h47c8 0 13 -5 9 -14zM391 889l-109 -109c-1 0 -6 -2 -7 -2h-44c-10 0 -15 8 -8 17l86 108c1 1 8 4 9 4h65
c12 0 16 -10 8 -18z" />
    <glyph glyph-name="Ydieresis" unicode="&#x178;" 
d="M447 698l-150 -386v-301c0 -6 -6 -11 -12 -11h-43c-6 0 -11 5 -11 11v301l-150 386c-4 9 1 14 9 14h46c4 0 10 -4 11 -6l117 -308l117 308c1 2 7 6 10 6h47c8 0 13 -5 9 -14zM404 808c0 -5 -5 -10 -10 -10h-76c-6 0 -11 5 -11 10v87c0 5 5 10 11 10h76c5 0 10 -5 10 -10
v-87zM221 808c0 -5 -5 -10 -11 -10h-76c-5 0 -10 5 -10 10v87c0 5 5 10 10 10h76c6 0 11 -5 11 -10v-87z" />
    <glyph glyph-name="Zcaron" unicode="&#x17d;" 
d="M447 11c0 -6 -4 -11 -10 -11h-335c-6 0 -11 5 -11 11v38c0 13 1 15 7 27l266 572h-252c-4 0 -10 5 -10 11v43c0 6 6 10 10 10h314c6 0 11 -4 11 -10v-43s0 -10 -6 -22l-267 -573h273c6 0 10 -4 10 -10v-43zM396 887l-86 -107c-1 -2 -7 -4 -9 -4h-74c-2 0 -8 2 -9 4
l-86 107c-7 9 -3 18 8 18h43c1 0 7 -3 8 -4l73 -73l73 73c1 1 7 4 8 4h43c11 0 15 -9 8 -18z" />
    <glyph glyph-name="Eth" unicode="&#xd0;" 
d="M445 162c0 -89 -73 -162 -162 -162h-173c-5 0 -10 5 -10 11v313h-64c-6 0 -12 5 -12 11v43c0 6 6 11 12 11h64v313c0 6 5 10 10 10h173c89 0 162 -72 162 -161v-389zM380 162v389c0 54 -43 97 -97 97h-118v-259h108c5 0 10 -5 10 -11v-43c0 -6 -5 -11 -10 -11h-108v-260
h118c54 0 97 44 97 98z" />
    <glyph glyph-name="Thorn" unicode="&#xde;" 
d="M445 302c0 -89 -73 -162 -162 -162h-21c-36 0 -70 13 -97 33v-162c0 -6 -6 -11 -11 -11h-44c-5 0 -10 5 -10 11v691c0 6 5 10 10 10h44c5 0 11 -4 11 -10v-162c27 21 61 32 97 32h21c89 0 162 -72 162 -162v-108zM380 302v108c0 54 -43 98 -97 98h-21
c-54 0 -97 -44 -97 -98v-108c0 -53 43 -97 97 -97h21c54 0 97 44 97 97z" />
    <glyph glyph-name="a" unicode="a" 
d="M480 11c0 -6 -5 -11 -11 -11h-22c-27 0 -52 15 -66 39c-35 -31 -83 -50 -128 -50h-22c-79 0 -140 56 -140 130v21c0 182 281 131 281 216c0 50 -40 87 -97 87h-11c-54 0 -97 -44 -97 -97v-22c0 -5 -6 -11 -11 -11h-43c-5 0 -11 6 -11 11v22c0 89 73 162 162 162h11
c85 0 162 -59 162 -152v-280c0 -6 5 -12 10 -12h22c6 0 11 -4 11 -10v-43zM372 151v112c-18 -9 -37 -14 -56 -20c-53 -15 -160 -31 -160 -103v-21c0 -35 26 -65 75 -65h22c60 0 119 50 119 97z" />
    <glyph glyph-name="b" unicode="b" 
d="M445 151c0 -90 -73 -162 -162 -162h-21c-36 0 -70 12 -97 32v-10c0 -6 -6 -11 -11 -11h-44c-5 0 -10 5 -10 11v691c0 6 5 10 10 10h44c5 0 11 -4 11 -10v-227c27 20 61 33 97 33h21c89 0 162 -73 162 -162v-195zM380 151v195c0 53 -43 97 -97 97h-21
c-54 0 -97 -44 -97 -97v-195c0 -53 43 -97 97 -97h21c54 0 97 44 97 97z" />
    <glyph glyph-name="c" unicode="c" 
d="M437 151c0 -90 -73 -162 -162 -162h-22c-89 0 -162 72 -162 162v195c0 89 73 162 162 162h22c89 0 162 -73 162 -162c0 -6 -5 -11 -11 -11h-43c-6 0 -11 5 -11 11c0 53 -44 97 -97 97h-22c-53 0 -97 -44 -97 -97v-195c0 -53 44 -97 97 -97h22c53 0 97 44 97 97
c0 5 5 11 11 11h43c6 0 11 -6 11 -11z" />
    <glyph glyph-name="d" unicode="d" 
d="M428 11c0 -6 -5 -11 -10 -11h-44c-5 0 -11 5 -11 11v10c-27 -20 -61 -32 -97 -32h-21c-89 0 -162 72 -162 162v195c0 89 73 162 162 162h21c36 0 70 -13 97 -33v227c0 6 6 10 11 10h44c5 0 10 -4 10 -10v-691zM363 151v195c0 53 -43 97 -97 97h-21c-54 0 -97 -44 -97 -97
v-195c0 -53 43 -97 97 -97h21c54 0 97 44 97 97z" />
    <glyph glyph-name="e" unicode="e" 
d="M437 227c0 -6 -5 -11 -11 -11h-270v-65c0 -53 44 -97 97 -97h22c45 0 82 30 94 72c2 6 7 8 13 7l41 -11c6 -1 10 -8 8 -14c-18 -68 -82 -119 -156 -119h-22c-89 0 -162 72 -162 162v195c0 89 73 162 162 162h22c89 0 162 -73 162 -162v-119zM372 280v66
c0 53 -44 97 -97 97h-22c-53 0 -97 -44 -97 -97v-66h216z" />
    <glyph glyph-name="f" unicode="f" 
d="M502 518c0 -5 -6 -10 -11 -10h-44c-5 0 -10 5 -10 10v44c0 57 -37 97 -87 97h-32c-50 0 -87 -40 -87 -97v-87h119c6 0 11 -5 11 -10v-44c0 -5 -5 -11 -11 -11h-119v-346h184c5 0 11 -4 11 -10v-43c0 -6 -6 -11 -11 -11h-334c-6 0 -11 5 -11 11v43c0 6 5 10 11 10h86v346
h-76c-6 0 -10 6 -10 11v44c0 5 4 10 10 10h76v87c0 85 58 162 151 162h32c94 0 152 -77 152 -162v-44z" />
    <glyph glyph-name="g" unicode="g" 
d="M428 -64c0 -90 -73 -163 -162 -163h-21c-45 0 -86 19 -114 47c-5 5 -5 12 0 16l29 31c5 3 12 3 16 0c18 -18 42 -28 69 -28h21c54 0 97 43 97 97v86c-27 -20 -61 -33 -97 -33h-21c-89 0 -162 73 -162 163v194c0 90 73 162 162 162h21c36 0 70 -12 97 -33v11
c0 6 6 10 11 10h44c5 0 10 -4 10 -10v-550zM363 152v194c0 53 -43 98 -97 98h-21c-54 0 -97 -45 -97 -98v-194c0 -54 43 -97 97 -97h21c54 0 97 43 97 97z" />
    <glyph glyph-name="h" unicode="h" 
d="M445 11c0 -6 -4 -11 -10 -11h-43c-6 0 -12 5 -12 11v335c0 53 -43 97 -97 97h-21c-54 0 -97 -44 -97 -97v-335c0 -6 -6 -11 -11 -11h-44c-5 0 -10 5 -10 11v691c0 6 5 10 10 10h44c5 0 11 -4 11 -10v-227c27 20 61 33 97 33h21c89 0 162 -73 162 -162v-335z" />
    <glyph glyph-name="i" unicode="i" 
d="M340 605c0 -6 -6 -11 -12 -11h-85c-6 0 -12 5 -12 11v86c0 6 6 11 12 11h85c6 0 12 -5 12 -11v-86zM480 11c0 -6 -5 -11 -11 -11h-388c-6 0 -11 5 -11 11v43c0 6 5 10 11 10h183v368h-140c-6 0 -11 5 -11 11v43c0 6 5 10 11 10h194c6 0 10 -4 10 -10v-422h141
c6 0 11 -4 11 -10v-43z" />
    <glyph glyph-name="j" unicode="j" 
d="M394 605c0 -6 -5 -11 -11 -11h-86c-6 0 -12 5 -12 11v86c0 6 6 11 12 11h86c6 0 11 -5 11 -11v-86zM383 -64c0 -91 -73 -163 -162 -163s-162 72 -162 163v53c0 6 5 11 11 11h43c5 0 11 -5 11 -11v-53c0 -54 43 -98 97 -98s97 44 97 98v496h-184c-5 0 -10 5 -10 11v43
c0 6 5 10 10 10h238c5 0 11 -4 11 -10v-550z" />
    <glyph glyph-name="k" unicode="k" 
d="M470 17c8 -8 3 -17 -7 -17h-56c-2 0 -8 3 -9 4l-191 239l-51 -51v-181c0 -6 -5 -11 -11 -11h-43c-6 0 -11 5 -11 11v691c0 6 5 10 11 10h43c6 0 11 -4 11 -10v-419l210 210c1 1 6 3 7 3h62c12 0 16 -9 8 -18l-190 -189z" />
    <glyph glyph-name="l" unicode="l" 
d="M480 11c0 -6 -5 -11 -11 -11h-399c-6 0 -11 5 -11 11v43c0 6 5 10 11 10h183v584h-140c-5 0 -11 5 -11 11v43c0 6 6 10 11 10h194c6 0 11 -4 11 -10v-638h151c6 0 11 -4 11 -10v-43z" />
    <glyph glyph-name="m" unicode="m" 
d="M469 11c0 -6 -5 -11 -11 -11h-43c-5 0 -11 5 -11 11v378c0 30 -24 54 -54 54c-29 0 -53 -24 -53 -54v-378c0 -6 -6 -11 -12 -11h-42c-6 0 -12 5 -12 11v378c0 30 -24 54 -53 54c-30 0 -54 -24 -54 -54v-378c0 -6 -6 -11 -11 -11h-43c-6 0 -11 5 -11 11v475
c0 6 5 10 11 10h43c3 0 6 -1 8 -3c16 9 36 15 57 15c33 0 64 -15 86 -38c22 23 53 38 86 38c66 0 119 -53 119 -119v-378z" />
    <glyph glyph-name="n" unicode="n" 
d="M441 11c0 -6 -5 -11 -11 -11h-43c-6 0 -11 5 -11 11v335c0 53 -43 97 -97 97h-22c-53 0 -97 -44 -97 -97v-335c0 -6 -4 -11 -10 -11h-43c-6 0 -11 5 -11 11v475c0 6 5 10 11 10h43c6 0 10 -4 10 -10v-11c27 20 61 33 97 33h22c90 0 162 -73 162 -162v-335z" />
    <glyph glyph-name="o" unicode="o" 
d="M437 151c0 -90 -73 -162 -162 -162h-22c-89 0 -162 72 -162 162v195c0 89 73 162 162 162h22c89 0 162 -73 162 -162v-195zM372 151v195c0 53 -44 97 -97 97h-22c-53 0 -97 -44 -97 -97v-195c0 -53 44 -97 97 -97h22c53 0 97 44 97 97z" />
    <glyph glyph-name="p" unicode="p" 
d="M445 151c0 -90 -73 -162 -162 -162h-21c-36 0 -70 12 -97 32v-226c0 -6 -6 -11 -11 -11h-44c-5 0 -10 5 -10 11v691c0 6 5 10 10 10h44c5 0 11 -4 11 -10v-11c27 20 61 33 97 33h21c89 0 162 -73 162 -162v-195zM380 151v195c0 53 -43 97 -97 97h-21
c-54 0 -97 -44 -97 -97v-195c0 -53 43 -97 97 -97h21c54 0 97 44 97 97z" />
    <glyph glyph-name="q" unicode="q" 
d="M428 -205c0 -6 -5 -11 -10 -11h-44c-5 0 -11 5 -11 11v226c-27 -20 -61 -32 -97 -32h-21c-89 0 -162 72 -162 162v195c0 89 73 162 162 162h21c36 0 70 -13 97 -33v11c0 6 6 10 11 10h44c5 0 10 -4 10 -10v-691zM363 151v195c0 53 -43 97 -97 97h-21
c-54 0 -97 -44 -97 -97v-195c0 -53 43 -97 97 -97h21c54 0 97 44 97 97z" />
    <glyph glyph-name="r" unicode="r" 
d="M458 259c0 -6 -5 -10 -11 -10h-43c-6 0 -10 4 -10 10v87c0 57 -47 97 -97 97h-22c-50 0 -97 -40 -97 -97v-282h183c6 0 11 -4 11 -10v-43c0 -6 -5 -11 -11 -11h-324c-5 0 -10 5 -10 11v43c0 6 5 10 10 10h76v282c0 85 68 162 162 162h22c93 0 161 -77 161 -162v-87z" />
    <glyph glyph-name="s" unicode="s" 
d="M447 140c0 -93 -75 -151 -162 -151h-32c-85 0 -162 58 -162 151v22c0 6 5 11 11 11h43c6 0 11 -5 11 -11v-22c0 -50 40 -86 97 -86h32c58 0 98 36 98 86c0 107 -281 49 -281 221c0 93 77 147 162 147h11c85 0 162 -59 162 -152v-10c0 -6 -5 -11 -11 -11h-43
c-6 0 -11 5 -11 11v10c0 50 -40 87 -97 87h-11c-59 0 -97 -33 -97 -82c0 -107 280 -49 280 -221z" />
    <glyph glyph-name="t" unicode="t" 
d="M458 151c0 -90 -72 -162 -161 -162c-90 0 -163 72 -163 162v259h-75c-6 0 -11 6 -11 11v44c0 5 5 10 11 10h75v227c0 6 5 10 11 10h43c6 0 12 -4 12 -10v-227h204c6 0 11 -5 11 -10v-44c0 -5 -5 -11 -11 -11h-204v-259c0 -53 43 -97 97 -97c53 0 97 44 97 97v22
c0 6 4 10 10 10h43c6 0 11 -4 11 -10v-22z" />
    <glyph glyph-name="u" unicode="u" 
d="M432 11c0 -6 -5 -11 -11 -11h-43c-6 0 -10 5 -10 11v10c-27 -20 -61 -32 -97 -32h-22c-90 0 -162 72 -162 162v335c0 6 5 10 11 10h43c6 0 11 -4 11 -10v-335c0 -53 43 -97 97 -97h22c53 0 97 44 97 97v335c0 6 4 10 10 10h43c6 0 11 -4 11 -10v-475z" />
    <glyph glyph-name="v" unicode="v" 
d="M467 483l-167 -475c0 -4 -6 -8 -10 -8h-52c-4 0 -10 4 -10 8l-167 475c-2 8 1 13 10 13h46c3 0 10 -4 11 -6l136 -400l136 400c1 2 8 6 11 6h46c9 0 12 -5 10 -13z" />
    <glyph glyph-name="w" unicode="w" 
d="M487 486l-12 -219v-1l-41 -257c-1 -4 -7 -9 -11 -9h-86c-4 0 -10 5 -10 9l-45 218c-5 22 -8 74 -8 74h-19s-4 -52 -9 -74l-45 -218c0 -4 -6 -9 -10 -9h-86c-4 0 -10 5 -11 9l-41 257v1l-12 219c0 6 5 10 11 10h44c5 0 10 -4 11 -9l10 -213l15 -112c6 -44 7 -96 7 -96h20
s5 52 14 96l39 197c1 4 7 8 11 8h82c4 0 10 -4 11 -8l39 -197c9 -43 14 -96 14 -96h20s1 52 7 96l15 112l10 213c1 5 6 9 11 9h44c6 0 11 -4 11 -10z" />
    <glyph glyph-name="x" unicode="x" 
d="M460 16c6 -8 2 -16 -9 -16h-52c-2 0 -7 3 -8 5l-127 193l-127 -193c-1 -2 -6 -5 -8 -5h-52c-11 0 -15 8 -9 16l158 240l-148 224c-6 9 -1 16 9 16h51c2 0 9 -3 10 -4l116 -177l116 177c1 1 8 4 10 4h51c10 0 15 -7 9 -16l-148 -224z" />
    <glyph glyph-name="y" unicode="y" 
d="M437 483c0 0 -123 -445 -153 -546c-30 -102 -101 -110 -182 -110h-21c-6 0 -11 5 -11 11v43c0 6 5 11 11 11h21c107 0 105 13 138 122l-142 469c-2 8 2 13 10 13h46c3 0 9 -4 10 -7l107 -370l102 370c1 3 7 7 11 7h43c8 0 13 -5 10 -13z" />
    <glyph glyph-name="z" unicode="z" 
d="M447 11c0 -6 -4 -11 -10 -11h-335c-6 0 -11 5 -11 11v50l2 6l268 365h-248c-5 0 -11 5 -11 11v43c0 6 6 10 11 10h313c6 0 11 -4 11 -10v-50c0 -1 -2 -6 -2 -7l-263 -365h265c6 0 10 -4 10 -10v-43z" />
    <glyph glyph-name="agrave" unicode="&#xe0;" 
d="M480 11c0 -6 -5 -11 -11 -11h-22c-27 0 -52 15 -66 39c-35 -31 -83 -50 -128 -50h-22c-79 0 -140 56 -140 130v21c0 182 281 131 281 216c0 50 -40 87 -97 87h-11c-54 0 -97 -44 -97 -97v-22c0 -5 -6 -11 -11 -11h-44c-4 0 -10 6 -10 11v22c0 89 73 162 162 162h11
c85 0 162 -59 162 -152v-280c0 -6 5 -12 10 -12h22c6 0 11 -4 11 -10v-43zM372 151v112c-18 -9 -37 -14 -56 -20c-53 -15 -160 -31 -160 -103v-21c0 -35 26 -65 75 -65h22c60 0 119 50 119 97zM316 579c7 -9 3 -17 -9 -17h-43c-1 0 -7 2 -8 2l-107 109c-9 9 -5 18 7 18h65
c2 0 7 -3 8 -4z" />
    <glyph glyph-name="aacute" unicode="&#xe1;" 
d="M480 11c0 -6 -5 -11 -11 -11h-22c-27 0 -52 15 -66 39c-35 -31 -83 -50 -128 -50h-22c-79 0 -140 56 -140 130v21c0 182 281 131 281 216c0 50 -40 87 -97 87h-11c-54 0 -97 -44 -97 -97v-22c0 -5 -6 -11 -11 -11h-44c-4 0 -10 6 -10 11v22c0 89 73 162 162 162h11
c85 0 162 -59 162 -152v-280c0 -6 5 -12 10 -12h22c6 0 11 -4 11 -10v-43zM372 151v112c-18 -9 -37 -14 -56 -20c-53 -15 -160 -31 -160 -103v-21c0 -35 26 -65 75 -65h22c60 0 119 50 119 97zM379 673l-107 -109c-1 0 -7 -2 -8 -2h-43c-12 0 -16 8 -9 17l87 108
c1 1 6 4 8 4h65c12 0 16 -9 7 -18z" />
    <glyph glyph-name="acircumflex" unicode="&#xe2;" 
d="M480 11c0 -6 -5 -11 -11 -11h-22c-27 0 -52 15 -66 39c-35 -31 -83 -50 -128 -50h-22c-79 0 -140 56 -140 130v21c0 182 281 131 281 216c0 50 -40 87 -97 87h-11c-54 0 -97 -44 -97 -97v-22c0 -5 -6 -11 -11 -11h-44c-4 0 -10 6 -10 11v22c0 89 73 162 162 162h11
c85 0 162 -59 162 -152v-280c0 -6 5 -12 10 -12h22c6 0 11 -4 11 -10v-43zM372 151v112c-18 -9 -37 -14 -56 -20c-53 -15 -160 -31 -160 -103v-21c0 -35 26 -65 75 -65h22c60 0 119 50 119 97zM407 579c8 -9 3 -17 -8 -17h-43c-2 0 -8 2 -8 2l-73 74l-73 -74
c-1 0 -7 -2 -8 -2h-43c-12 0 -16 8 -9 17l86 108c1 1 7 4 9 4h76c1 0 7 -3 8 -4z" />
    <glyph glyph-name="atilde" unicode="&#xe3;" 
d="M480 11c0 -6 -5 -11 -11 -11h-22c-27 0 -52 15 -66 39c-35 -31 -83 -50 -128 -50h-22c-79 0 -140 56 -140 130v21c0 182 281 131 281 216c0 50 -40 87 -97 87h-11c-54 0 -97 -44 -97 -97v-22c0 -5 -6 -11 -11 -11h-44c-4 0 -10 6 -10 11v22c0 89 73 162 162 162h11
c85 0 162 -59 162 -152v-280c0 -6 5 -12 10 -12h22c6 0 11 -4 11 -10v-43zM372 151v112c-18 -9 -37 -14 -56 -20c-53 -15 -160 -31 -160 -103v-21c0 -35 26 -65 75 -65h22c60 0 119 50 119 97zM410 637c0 -72 -73 -106 -150 -54c-52 34 -66 5 -66 -11c0 -6 -5 -10 -11 -10
h-32c-6 0 -11 4 -11 10c0 72 73 107 150 55c52 -35 66 -6 66 10c0 6 5 11 11 11h32c6 0 11 -5 11 -11z" />
    <glyph glyph-name="adieresis" unicode="&#xe4;" 
d="M480 11c0 -6 -5 -11 -11 -11h-22c-27 0 -52 15 -66 39c-35 -31 -83 -50 -128 -50h-22c-79 0 -140 56 -140 130v21c0 182 281 131 281 216c0 50 -40 87 -97 87h-11c-54 0 -97 -44 -97 -97v-22c0 -5 -6 -11 -11 -11h-44c-4 0 -10 6 -10 11v22c0 89 73 162 162 162h11
c85 0 162 -59 162 -152v-280c0 -6 5 -12 10 -12h22c6 0 11 -4 11 -10v-43zM372 151v112c-18 -9 -37 -14 -56 -20c-53 -15 -160 -31 -160 -103v-21c0 -35 26 -65 75 -65h22c60 0 119 50 119 97zM404 594c0 -6 -5 -11 -10 -11h-76c-6 0 -11 5 -11 11v87c0 5 5 10 11 10h76
c5 0 10 -5 10 -10v-87zM221 594c0 -6 -5 -11 -11 -11h-76c-5 0 -10 5 -10 11v87c0 5 5 10 10 10h76c6 0 11 -5 11 -10v-87z" />
    <glyph glyph-name="aring" unicode="&#xe5;" 
d="M480 11c0 -6 -5 -11 -11 -11h-22c-27 0 -52 15 -66 39c-35 -31 -83 -50 -128 -50h-22c-79 0 -140 56 -140 130v21c0 182 281 131 281 216c0 50 -40 87 -97 87h-11c-54 0 -97 -44 -97 -97v-22c0 -5 -6 -11 -11 -11h-44c-4 0 -10 6 -10 11v22c0 89 73 162 162 162h11
c85 0 162 -59 162 -152v-280c0 -6 5 -12 10 -12h22c6 0 11 -4 11 -10v-43zM372 151v112c-18 -9 -37 -14 -56 -20c-53 -15 -160 -31 -160 -103v-21c0 -35 26 -65 75 -65h22c60 0 119 50 119 97zM361 637c0 -48 -38 -86 -86 -86c-47 0 -87 38 -87 86c0 47 40 87 87 87
c48 0 86 -40 86 -87zM307 637c0 18 -14 32 -32 32s-33 -14 -33 -32s15 -32 33 -32s32 14 32 32z" />
    <glyph glyph-name="ae" unicode="&#xe6;" 
d="M491 119c0 -72 -58 -130 -130 -130c-38 0 -73 17 -97 44c-24 -27 -59 -44 -97 -44c-81 0 -130 34 -130 130v21c0 105 67 115 140 146c33 14 54 30 54 70v22c0 36 -28 65 -64 65s-65 -29 -65 -65v-39c0 -6 -5 -11 -11 -11h-43c-6 0 -11 5 -11 11v39c0 71 58 130 130 130
c38 0 73 -17 97 -44c24 27 59 44 97 44c72 0 130 -59 130 -130v-151c0 -6 -5 -11 -11 -11h-183v-97c0 -36 28 -65 64 -65s65 29 65 65v21c0 6 5 11 11 11h43c6 0 11 -5 11 -11v-21zM426 280v98c0 36 -29 65 -65 65s-64 -29 -64 -65v-98h129zM231 242
c-22 -12 -48 -20 -75 -31c-32 -13 -54 -31 -54 -71v-21c0 -56 15 -65 65 -65c36 0 64 29 64 65v123z" />
    <glyph glyph-name="ccedilla" unicode="&#xe7;" 
d="M437 151c0 -81 -59 -147 -137 -160l-30 -92c-1 -3 -7 -7 -10 -7h-46c-14 0 -10 13 -8 21l26 77c-79 11 -141 79 -141 161v195c0 89 73 162 162 162h22c89 0 162 -73 162 -162c0 -6 -5 -11 -11 -11h-43c-6 0 -11 5 -11 11c0 53 -44 97 -97 97h-22c-53 0 -97 -44 -97 -97
v-195c0 -53 44 -97 97 -97h22c53 0 97 44 97 97c0 5 5 11 11 11h43c6 0 11 -6 11 -11z" />
    <glyph glyph-name="egrave" unicode="&#xe8;" 
d="M437 227c0 -6 -5 -11 -11 -11h-270v-65c0 -53 44 -97 97 -97h22c45 0 82 30 94 72c1 6 7 8 13 7l41 -11c6 -1 10 -8 8 -14c-18 -68 -82 -119 -156 -119h-22c-89 0 -162 72 -162 162v195c0 89 73 162 162 162h22c89 0 162 -73 162 -162v-119zM372 280v66
c0 53 -44 97 -97 97h-22c-53 0 -97 -44 -97 -97v-66h216zM305 579c7 -9 2 -17 -8 -17h-44c-1 0 -6 2 -7 2l-109 109c-8 9 -4 18 8 18h65c1 0 8 -3 9 -4z" />
    <glyph glyph-name="eacute" unicode="&#xe9;" 
d="M437 227c0 -6 -5 -11 -11 -11h-270v-65c0 -53 44 -97 97 -97h22c45 0 82 30 94 72c1 6 7 8 13 7l41 -11c6 -1 10 -8 8 -14c-18 -68 -82 -119 -156 -119h-22c-89 0 -162 72 -162 162v195c0 89 73 162 162 162h22c89 0 162 -73 162 -162v-119zM372 280v66
c0 53 -44 97 -97 97h-22c-53 0 -97 -44 -97 -97v-66h216zM391 673l-109 -109c-1 0 -6 -2 -7 -2h-44c-10 0 -15 8 -8 17l86 108c1 1 8 4 9 4h65c12 0 16 -9 8 -18z" />
    <glyph glyph-name="ecircumflex" unicode="&#xea;" 
d="M437 227c0 -6 -5 -11 -11 -11h-270v-65c0 -53 44 -97 97 -97h22c45 0 82 30 94 72c1 6 7 8 13 7l41 -11c6 -1 10 -8 8 -14c-18 -68 -82 -119 -156 -119h-22c-89 0 -162 72 -162 162v195c0 89 73 162 162 162h22c89 0 162 -73 162 -162v-119zM372 280v66
c0 53 -44 97 -97 97h-22c-53 0 -97 -44 -97 -97v-66h216zM396 579c7 -9 3 -17 -8 -17h-43c-1 0 -7 2 -8 2l-73 74l-73 -74c-1 0 -7 -2 -8 -2h-43c-11 0 -15 8 -8 17l86 108c1 1 7 4 9 4h74c2 0 8 -3 9 -4z" />
    <glyph glyph-name="edieresis" unicode="&#xeb;" 
d="M437 227c0 -6 -5 -11 -11 -11h-270v-65c0 -53 44 -97 97 -97h22c45 0 82 30 94 72c1 6 7 8 13 7l41 -11c6 -1 10 -8 8 -14c-18 -68 -82 -119 -156 -119h-22c-89 0 -162 72 -162 162v195c0 89 73 162 162 162h22c89 0 162 -73 162 -162v-119zM372 280v66
c0 53 -44 97 -97 97h-22c-53 0 -97 -44 -97 -97v-66h216zM404 594c0 -6 -5 -11 -10 -11h-76c-6 0 -11 5 -11 11v87c0 5 5 10 11 10h76c5 0 10 -5 10 -10v-87zM221 594c0 -6 -5 -11 -11 -11h-76c-5 0 -10 5 -10 11v87c0 5 5 10 10 10h76c6 0 11 -5 11 -10v-87z" />
    <glyph glyph-name="igrave" unicode="&#xec;" 
d="M480 11c0 -6 -5 -11 -11 -11h-388c-6 0 -11 5 -11 11v43c0 6 5 10 11 10h183v368h-140c-6 0 -11 5 -11 11v43c0 6 5 10 11 10h194c6 0 10 -4 10 -10v-422h141c6 0 11 -4 11 -10v-43zM326 579c7 -9 3 -17 -8 -17h-43c-1 0 -7 2 -8 2l-108 109c-8 9 -4 18 8 18h64
c2 0 8 -3 9 -4z" />
    <glyph glyph-name="iacute" unicode="&#xed;" 
d="M480 11c0 -6 -5 -11 -11 -11h-388c-6 0 -11 5 -11 11v43c0 6 5 10 11 10h183v368h-140c-6 0 -11 5 -11 11v43c0 6 5 10 11 10h194c6 0 10 -4 10 -10v-422h141c6 0 11 -4 11 -10v-43zM391 673l-109 -109c-1 0 -6 -2 -7 -2h-44c-10 0 -15 8 -8 17l86 108c1 1 8 4 9 4h65
c12 0 16 -9 8 -18z" />
    <glyph glyph-name="icircumflex" unicode="&#xee;" 
d="M480 11c0 -6 -5 -11 -11 -11h-388c-6 0 -11 5 -11 11v43c0 6 5 10 11 10h183v368h-140c-6 0 -11 5 -11 11v43c0 6 5 10 11 10h194c6 0 10 -4 10 -10v-422h141c6 0 11 -4 11 -10v-43zM429 579c7 -9 3 -17 -9 -17h-43c-1 0 -6 2 -7 2l-73 74l-74 -74s-6 -2 -8 -2h-43
c-11 0 -16 8 -8 17l87 108c1 1 6 4 7 4h76c2 0 8 -3 9 -4z" />
    <glyph glyph-name="idieresis" unicode="&#xef;" 
d="M480 11c0 -6 -5 -11 -11 -11h-388c-6 0 -11 5 -11 11v43c0 6 5 10 11 10h183v368h-140c-6 0 -11 5 -11 11v43c0 6 5 10 11 10h194c6 0 10 -4 10 -10v-422h141c6 0 11 -4 11 -10v-43zM437 594c0 -6 -5 -11 -11 -11h-76c-5 0 -10 5 -10 11v87c0 5 5 10 10 10h76
c6 0 11 -5 11 -10v-87zM253 594c0 -6 -5 -11 -11 -11h-75c-6 0 -11 5 -11 11v87c0 5 5 10 11 10h75c6 0 11 -5 11 -10v-87z" />
    <glyph glyph-name="dotlessi" unicode="&#x131;" 
d="M297 11c0 -6 -6 -11 -12 -11h-42c-6 0 -12 5 -12 11v410c0 6 6 11 12 11h42c6 0 12 -5 12 -11v-410z" />
    <glyph glyph-name="lslash" unicode="&#x142;" 
d="M447 11c0 -6 -4 -11 -10 -11h-356c-6 0 -11 5 -11 11v43c0 6 5 10 11 10h162v232l-65 -38c-5 -3 -12 -1 -15 4l-22 38c-3 4 -1 11 4 14l98 57v277h-119c-6 0 -11 5 -11 11v43c0 6 5 10 11 10h173c5 0 10 -4 10 -10v-294l82 47c5 3 11 1 14 -5l21 -36c3 -6 1 -13 -4 -16
l-113 -65v-269h130c6 0 10 -4 10 -10v-43z" />
    <glyph glyph-name="ntilde" unicode="&#xf1;" 
d="M441 11c0 -6 -5 -11 -11 -11h-43c-6 0 -11 5 -11 11v335c0 53 -43 97 -97 97h-22c-53 0 -97 -44 -97 -97v-335c0 -6 -4 -11 -10 -11h-43c-6 0 -12 5 -12 11v475c0 6 6 10 12 10h43c6 0 10 -4 10 -10v-11c27 20 61 33 97 33h22c90 0 162 -73 162 -162v-335zM403 637
c0 -72 -73 -106 -150 -54c-51 34 -66 5 -66 -11c0 -6 -5 -10 -10 -10h-33c-6 0 -11 4 -11 10c0 72 73 107 150 55c52 -35 66 -6 66 10c0 6 5 11 11 11h33c5 0 10 -5 10 -11z" />
    <glyph glyph-name="ograve" unicode="&#xf2;" 
d="M437 151c0 -90 -73 -162 -162 -162h-22c-89 0 -162 72 -162 162v195c0 89 73 162 162 162h22c89 0 162 -73 162 -162v-195zM372 151v195c0 53 -44 97 -97 97h-22c-53 0 -97 -44 -97 -97v-195c0 -53 44 -97 97 -97h22c53 0 97 44 97 97zM305 579c7 -9 2 -17 -8 -17h-44
c-1 0 -6 2 -7 2l-109 109c-8 9 -4 18 8 18h65c1 0 8 -3 9 -4z" />
    <glyph glyph-name="oacute" unicode="&#xf3;" 
d="M437 151c0 -90 -73 -162 -162 -162h-22c-89 0 -162 72 -162 162v195c0 89 73 162 162 162h22c89 0 162 -73 162 -162v-195zM372 151v195c0 53 -44 97 -97 97h-22c-53 0 -97 -44 -97 -97v-195c0 -53 44 -97 97 -97h22c53 0 97 44 97 97zM391 673l-109 -109
c-1 0 -6 -2 -7 -2h-44c-10 0 -15 8 -8 17l86 108c1 1 8 4 9 4h65c12 0 16 -9 8 -18z" />
    <glyph glyph-name="ocircumflex" unicode="&#xf4;" 
d="M437 151c0 -90 -73 -162 -162 -162h-22c-89 0 -162 72 -162 162v195c0 89 73 162 162 162h22c89 0 162 -73 162 -162v-195zM372 151v195c0 53 -44 97 -97 97h-22c-53 0 -97 -44 -97 -97v-195c0 -53 44 -97 97 -97h22c53 0 97 44 97 97zM396 579c7 -9 3 -17 -8 -17h-43
c-1 0 -7 2 -8 2l-73 74l-73 -74c-1 0 -7 -2 -8 -2h-43c-11 0 -15 8 -8 17l86 108c1 1 7 4 9 4h74c2 0 8 -3 9 -4z" />
    <glyph glyph-name="otilde" unicode="&#xf5;" 
d="M437 151c0 -90 -73 -162 -162 -162h-22c-89 0 -162 72 -162 162v195c0 89 73 162 162 162h22c89 0 162 -73 162 -162v-195zM372 151v195c0 53 -44 97 -97 97h-22c-53 0 -97 -44 -97 -97v-195c0 -53 44 -97 97 -97h22c53 0 97 44 97 97zM399 637c0 -72 -74 -106 -150 -54
c-52 34 -66 5 -66 -11c0 -6 -5 -10 -11 -10h-32c-6 0 -11 4 -11 10c0 72 74 107 150 55c52 -35 66 -6 66 10c0 6 5 11 11 11h32c6 0 11 -5 11 -11z" />
    <glyph glyph-name="odieresis" unicode="&#xf6;" 
d="M437 151c0 -90 -73 -162 -162 -162h-22c-89 0 -162 72 -162 162v195c0 89 73 162 162 162h22c89 0 162 -73 162 -162v-195zM372 151v195c0 53 -44 97 -97 97h-22c-53 0 -97 -44 -97 -97v-195c0 -53 44 -97 97 -97h22c53 0 97 44 97 97zM404 594c0 -6 -5 -11 -10 -11h-76
c-6 0 -11 5 -11 11v87c0 5 5 10 11 10h76c5 0 10 -5 10 -10v-87zM221 594c0 -6 -5 -11 -11 -11h-76c-5 0 -10 5 -10 11v87c0 5 5 10 10 10h76c6 0 11 -5 11 -10v-87z" />
    <glyph glyph-name="oslash" unicode="&#xf8;" 
d="M437 151c0 -90 -73 -162 -162 -162h-22c-16 0 -31 2 -47 7l-15 -43c-2 -5 -9 -9 -13 -7l-42 16c-4 2 -7 8 -5 13l18 52c-36 30 -58 75 -58 124v195c0 89 73 162 162 162h22c16 0 31 -3 47 -7l15 42c2 6 9 9 13 7l42 -14c4 -2 7 -9 5 -15l-18 -52c36 -29 58 -73 58 -123
v-195zM372 151v195c0 21 -6 40 -18 55l-126 -344c8 -2 17 -3 25 -3h22c53 0 97 44 97 97zM300 440c-8 2 -17 3 -25 3h-22c-53 0 -97 -44 -97 -97v-195c0 -20 6 -40 18 -56z" />
    <glyph glyph-name="oe" unicode="&#x153;" 
d="M491 119c0 -72 -58 -130 -130 -130c-38 0 -73 17 -97 44c-24 -27 -59 -44 -97 -44c-72 0 -130 58 -130 130v259c0 71 58 130 130 130c38 0 73 -17 97 -44c24 27 59 44 97 44c72 0 130 -59 130 -130v-151c0 -6 -5 -11 -11 -11h-183v-97c0 -36 28 -65 64 -65s65 29 65 65
v21c0 6 5 11 11 11h43c6 0 11 -5 11 -11v-21zM426 280v98c0 36 -29 65 -65 65s-64 -29 -64 -65v-98h129zM231 119v259c0 36 -28 65 -64 65s-65 -29 -65 -65v-259c0 -36 29 -65 65 -65s64 29 64 65z" />
    <glyph glyph-name="scaron" unicode="&#x161;" 
d="M447 140c0 -93 -75 -151 -162 -151h-32c-85 0 -162 58 -162 151v22c0 6 5 11 11 11h43c6 0 11 -5 11 -11v-22c0 -50 40 -86 97 -86h32c58 0 98 36 98 86c0 107 -281 49 -281 221c0 93 77 147 162 147h11c85 0 162 -59 162 -152v-10c0 -6 -5 -11 -11 -11h-43
c-6 0 -11 5 -11 11v10c0 50 -40 87 -97 87h-11c-59 0 -97 -33 -97 -82c0 -107 280 -49 280 -221zM396 674l-86 -109c-1 -1 -7 -3 -9 -3h-74c-2 0 -8 2 -9 3l-86 109c-7 9 -3 17 8 17h43c1 0 7 -2 8 -3l73 -74l73 74c1 1 7 3 8 3h43c11 0 15 -8 8 -17z" />
    <glyph glyph-name="germandbls" unicode="&#xdf;" 
d="M456 162c0 -89 -72 -162 -162 -162h-75c-6 0 -11 5 -11 11v43c0 6 5 10 11 10h75c54 0 98 44 98 98v65c0 53 -44 97 -98 97h-54c-6 0 -11 5 -11 11v43c0 6 5 11 11 11h43c54 0 97 43 97 97v76c0 53 -43 97 -97 97h-21c-54 0 -97 -44 -97 -97v-551c0 -6 -6 -11 -11 -11
h-44c-5 0 -10 5 -10 11v551c0 89 73 162 162 162h21c89 0 162 -73 162 -162v-76c0 -51 -23 -96 -59 -126c42 -29 70 -78 70 -133v-65z" />
    <glyph glyph-name="ugrave" unicode="&#xf9;" 
d="M432 11c0 -6 -5 -11 -11 -11h-43c-6 0 -10 5 -10 11v10c-27 -20 -61 -32 -97 -32h-22c-90 0 -163 72 -163 162v335c0 6 6 10 12 10h43c6 0 11 -4 11 -10v-335c0 -53 43 -97 97 -97h22c53 0 97 44 97 97v335c0 6 4 10 10 10h43c6 0 11 -4 11 -10v-475zM311 579
c8 -9 3 -17 -9 -17h-43c-1 0 -7 2 -7 2l-108 109c-9 9 -5 18 8 18h64c2 0 8 -3 9 -4z" />
    <glyph glyph-name="uacute" unicode="&#xfa;" 
d="M432 11c0 -6 -5 -11 -11 -11h-43c-6 0 -10 5 -10 11v10c-27 -20 -61 -32 -97 -32h-22c-90 0 -163 72 -163 162v335c0 6 6 10 12 10h43c6 0 11 -4 11 -10v-335c0 -53 43 -97 97 -97h22c53 0 97 44 97 97v335c0 6 4 10 10 10h43c6 0 11 -4 11 -10v-475zM375 673l-108 -109
s-6 -2 -8 -2h-43c-11 0 -15 8 -8 17l87 108c1 1 6 4 7 4h66c12 0 16 -9 7 -18z" />
    <glyph glyph-name="ucircumflex" unicode="&#xfb;" 
d="M432 11c0 -6 -5 -11 -11 -11h-43c-6 0 -10 5 -10 11v10c-27 -20 -61 -32 -97 -32h-22c-90 0 -163 72 -163 162v335c0 6 6 10 12 10h43c6 0 11 -4 11 -10v-335c0 -53 43 -97 97 -97h22c53 0 97 44 97 97v335c0 6 4 10 10 10h43c6 0 11 -4 11 -10v-475zM393 579
c6 -9 3 -17 -9 -17h-43c-1 0 -7 2 -8 2l-74 74l-73 -74c-1 0 -6 -2 -7 -2h-44c-11 0 -15 8 -8 17l86 108c1 1 8 4 9 4h76c1 0 7 -3 8 -4z" />
    <glyph glyph-name="udieresis" unicode="&#xfc;" 
d="M432 11c0 -6 -5 -11 -11 -11h-43c-6 0 -10 5 -10 11v10c-27 -20 -61 -32 -97 -32h-22c-90 0 -163 72 -163 162v335c0 6 6 10 12 10h43c6 0 11 -4 11 -10v-335c0 -53 43 -97 97 -97h22c53 0 97 44 97 97v335c0 6 4 10 10 10h43c6 0 11 -4 11 -10v-475zM400 594
c0 -6 -5 -11 -11 -11h-75c-6 0 -12 5 -12 11v87c0 5 6 10 12 10h75c6 0 11 -5 11 -10v-87zM216 594c0 -6 -5 -11 -11 -11h-75c-5 0 -11 5 -11 11v87c0 5 6 10 11 10h75c6 0 11 -5 11 -10v-87z" />
    <glyph glyph-name="yacute" unicode="&#xfd;" 
d="M437 483c0 0 -123 -445 -153 -546c-30 -102 -101 -110 -182 -110h-21c-6 0 -11 5 -11 11v43c0 6 5 11 11 11h21c107 0 105 13 138 122l-142 469c-2 8 2 13 10 13h46c3 0 9 -4 10 -7l107 -370l102 370c1 3 7 7 11 7h43c8 0 13 -5 10 -13zM391 673l-109 -109
c-1 0 -6 -2 -7 -2h-44c-10 0 -15 8 -8 17l86 108c1 1 8 4 9 4h65c12 0 16 -9 8 -18z" />
    <glyph glyph-name="ydieresis" unicode="&#xff;" 
d="M437 483c0 0 -123 -445 -153 -546c-30 -102 -101 -110 -182 -110h-21c-6 0 -11 5 -11 11v43c0 6 5 11 11 11h21c107 0 105 13 138 122l-142 469c-2 8 2 13 10 13h46c3 0 9 -4 10 -7l107 -370l102 370c1 3 7 7 11 7h43c8 0 13 -5 10 -13zM415 572c0 -6 -5 -10 -11 -10h-76
c-4 0 -10 4 -10 10v87c0 5 6 10 10 10h76c6 0 11 -5 11 -10v-87zM231 572c0 -6 -4 -10 -10 -10h-76c-6 0 -11 4 -11 10v87c0 5 5 10 11 10h76c6 0 10 -5 10 -10v-87z" />
    <glyph glyph-name="zcaron" unicode="&#x17e;" 
d="M447 11c0 -6 -4 -11 -10 -11h-335c-6 0 -11 5 -11 11v50l2 6l268 365h-249c-4 0 -10 5 -10 11v43c0 6 6 10 10 10h314c6 0 11 -4 11 -10v-50c0 -1 -2 -6 -2 -7l-263 -365h265c6 0 10 -4 10 -10v-43zM396 674l-86 -109c-1 -1 -7 -3 -9 -3h-74c-2 0 -8 2 -9 3l-86 109
c-7 9 -3 17 8 17h43c1 0 7 -2 8 -3l73 -74l73 74c1 1 7 3 8 3h43c11 0 15 -8 8 -17z" />
    <glyph glyph-name="eth" unicode="&#xf0;" 
d="M504 594c0 -6 -6 -11 -12 -11h-64v-572c0 -6 -5 -11 -10 -11h-44c-5 0 -11 5 -11 11v10c-27 -20 -61 -32 -97 -32h-21c-89 0 -162 72 -162 162v195c0 89 73 162 162 162h21c36 0 70 -13 97 -33v108h-86c-5 0 -11 5 -11 11v43c0 6 6 11 10 11h87v54c0 6 6 10 11 10h44
c5 0 10 -4 10 -10v-54h64c6 0 12 -5 12 -11v-43zM363 151v195c0 53 -43 97 -97 97h-21c-54 0 -97 -44 -97 -97v-195c0 -53 43 -97 97 -97h21c54 0 97 44 97 97z" />
    <glyph glyph-name="thorn" unicode="&#xfe;" 
d="M445 151c0 -90 -73 -162 -162 -162h-21c-36 0 -70 12 -97 32v-226c0 -6 -6 -11 -11 -11h-44c-5 0 -10 5 -10 11v907c0 6 5 10 10 10h44c5 0 11 -4 11 -10v-227c27 20 61 33 97 33h21c89 0 162 -73 162 -162v-195zM380 151v195c0 53 -43 97 -97 97h-21
c-54 0 -97 -44 -97 -97v-195c0 -53 43 -97 97 -97h21c54 0 97 44 97 97z" />
    <glyph glyph-name="ampersand" unicode="&#x26;" 
d="M468 27c3 -5 1 -12 -3 -15l-37 -23c-5 -2 -12 -1 -15 3l-22 36c-29 -24 -66 -39 -106 -39h-42c-90 0 -162 72 -162 162v119c0 67 25 109 72 135c-29 46 -62 88 -62 146v11c0 89 73 162 162 162h22c89 0 162 -73 162 -162v-97c0 -6 -5 -12 -11 -12h-43c-6 0 -11 6 -11 12
v97c0 53 -44 97 -97 97h-22c-53 0 -97 -44 -97 -97v-11c0 -18 4 -35 13 -49l214 -341v152c0 6 5 11 11 11h43c6 0 10 -5 10 -11v-162c0 -24 -4 -47 -14 -68zM355 84l-169 268c-25 -13 -41 -40 -41 -82v-119c0 -53 44 -97 98 -97h42c28 0 53 11 70 30z" />
    <glyph glyph-name="grave" unicode="`" 
d="M305 579c7 -9 2 -17 -8 -17h-44c-1 0 -6 2 -7 2l-109 109c-8 9 -4 18 8 18h65c1 0 8 -3 9 -4z" />
    <glyph glyph-name="grave.cap" 
d="M305 795c7 -9 2 -17 -8 -17h-44c-1 0 -6 2 -7 2l-109 109c-8 9 -4 18 8 18h65c1 0 8 -3 9 -4z" />
    <glyph glyph-name="acute" unicode="&#xb4;" 
d="M391 673l-109 -109c-1 0 -6 -2 -7 -2h-44c-10 0 -15 8 -8 17l86 108c1 1 8 4 9 4h65c12 0 16 -9 8 -18z" />
    <glyph glyph-name="acute.cap" 
d="M348 889l-109 -109c-1 0 -6 -2 -7 -2h-44c-10 0 -15 8 -8 17l86 108c1 1 8 4 9 4h65c12 0 16 -9 8 -18z" />
    <glyph glyph-name="circumflex" unicode="&#x2c6;" 
d="M396 579c7 -9 3 -17 -8 -17h-43c-1 0 -7 2 -8 2l-73 74l-73 -74c-1 0 -7 -2 -8 -2h-43c-11 0 -15 8 -8 17l86 108c1 1 7 4 9 4h74c2 0 8 -3 9 -4z" />
    <glyph glyph-name="circumflex.cap" 
d="M396 795c7 -9 3 -17 -8 -17h-43c-1 0 -7 2 -8 2l-73 74l-73 -74c-1 0 -7 -2 -8 -2h-43c-11 0 -15 8 -8 17l86 108c1 1 7 4 9 4h74c2 0 8 -3 9 -4z" />
    <glyph glyph-name="caron" unicode="&#x2c7;" 
d="M396 674l-86 -109c-1 -1 -7 -3 -9 -3h-74c-2 0 -8 2 -9 3l-86 109c-7 9 -3 17 8 17h43c1 0 7 -2 8 -3l73 -74l73 74c1 1 7 3 8 3h43c11 0 15 -8 8 -17z" />
    <glyph glyph-name="caron.cap" 
d="M396 890l-86 -109c-1 -1 -7 -3 -9 -3h-74c-2 0 -8 2 -9 3l-86 109c-7 9 -3 17 8 17h43c1 0 7 -2 8 -3l73 -74l73 74c1 1 7 3 8 3h43c11 0 15 -8 8 -17z" />
    <glyph glyph-name="tilde" unicode="&#x2dc;" 
d="M399 637c0 -72 -74 -106 -150 -54c-52 34 -66 5 -66 -11c0 -6 -5 -10 -11 -10h-32c-6 0 -11 4 -11 10c0 72 74 107 150 55c52 -35 66 -6 66 10c0 6 5 11 11 11h32c6 0 11 -5 11 -11z" />
    <glyph glyph-name="tilde.cap" 
d="M399 853c0 -72 -74 -106 -150 -54c-52 34 -66 5 -66 -11c0 -6 -5 -10 -11 -10h-32c-6 0 -11 4 -11 10c0 72 74 107 150 55c52 -35 66 -6 66 10c0 6 5 11 11 11h32c6 0 11 -5 11 -11z" />
    <glyph glyph-name="dieresis" unicode="&#xa8;" 
d="M404 572c0 -6 -5 -10 -10 -10h-76c-6 0 -11 4 -11 10v87c0 5 5 10 11 10h76c5 0 10 -5 10 -10v-87zM221 572c0 -6 -5 -10 -11 -10h-76c-5 0 -10 4 -10 10v87c0 5 5 10 10 10h76c6 0 11 -5 11 -10v-87z" />
    <glyph glyph-name="dieresis.cap" 
d="M404 788c0 -6 -5 -10 -10 -10h-76c-6 0 -11 4 -11 10v87c0 5 5 10 11 10h76c5 0 10 -5 10 -10v-87zM221 788c0 -6 -5 -10 -11 -10h-76c-5 0 -10 4 -10 10v87c0 5 5 10 10 10h76c6 0 11 -5 11 -10v-87z" />
    <glyph glyph-name="macron" unicode="&#xaf;" 
d="M400 605c0 -6 -5 -11 -11 -11h-250c-6 0 -11 5 -11 11v43c0 6 5 11 11 11h250c6 0 11 -5 11 -11v-43z" />
    <glyph glyph-name="macron.cap" 
d="M400 810c0 -6 -5 -11 -11 -11h-250c-6 0 -11 5 -11 11v43c0 6 5 11 11 11h250c6 0 11 -5 11 -11v-43z" />
    <glyph glyph-name="breve" unicode="&#x2d8;" 
d="M383 681c0 -67 -54 -119 -119 -119s-119 52 -119 119c0 5 6 10 11 10h44c4 0 10 -5 10 -10c0 -30 24 -55 54 -55s54 25 54 55c0 5 6 10 10 10h44c5 0 11 -5 11 -10z" />
    <glyph glyph-name="breve.cap" 
d="M383 897c0 -67 -54 -119 -119 -119s-119 52 -119 119c0 5 6 10 11 10h44c4 0 10 -5 10 -10c0 -30 24 -55 54 -55s54 25 54 55c0 5 6 10 10 10h44c5 0 11 -5 11 -10z" />
    <glyph glyph-name="ring" unicode="&#x2da;" 
d="M361 637c0 -48 -38 -86 -86 -86c-47 0 -87 38 -87 86c0 47 40 87 87 87c48 0 86 -40 86 -87zM307 637c0 18 -14 32 -32 32s-32 -14 -32 -32s14 -32 32 -32s32 14 32 32z" />
    <glyph glyph-name="ring.cap" 
d="M351 864c0 -48 -38 -86 -86 -86c-47 0 -87 38 -87 86c0 47 40 87 87 87c48 0 86 -40 86 -87zM297 864c0 18 -14 32 -32 32s-32 -14 -32 -32s14 -32 32 -32s32 14 32 32z" />
    <glyph glyph-name="hungarumlaut" unicode="&#x2dd;" 
d="M418 673l-108 -109c-1 0 -7 -2 -8 -2h-43c-11 0 -15 8 -8 17l86 108c1 1 7 4 9 4h64c12 0 16 -9 8 -18zM276 673l-109 -109s-6 -2 -8 -2h-43c-10 0 -15 8 -8 17l87 108c1 1 7 4 8 4h65c11 0 16 -9 8 -18z" />
    <glyph glyph-name="hungarumlaut.cap" 
d="M405 889l-108 -109c-1 0 -7 -2 -8 -2h-43c-11 0 -15 8 -8 17l86 108c1 1 7 4 9 4h64c12 0 16 -9 8 -18zM263 889l-109 -109s-6 -2 -8 -2h-43c-10 0 -15 8 -8 17l87 108c1 1 7 4 8 4h65c11 0 16 -9 8 -18z" />
    <glyph glyph-name="dotaccent" unicode="&#x2d9;" 
d="M318 594c0 -6 -5 -11 -11 -11h-86c-6 0 -11 5 -11 11v87c0 5 5 10 11 10h86c6 0 11 -5 11 -10v-87z" />
    <glyph glyph-name="dotaccent.cap" 
d="M318 810c0 -6 -5 -11 -11 -11h-86c-6 0 -11 5 -11 11v87c0 5 5 10 11 10h86c6 0 11 -5 11 -10v-87z" />
    <glyph glyph-name="cedilla" unicode="&#xb8;" 
d="M318 11l-37 -112c-2 -3 -7 -7 -10 -7h-46c-15 0 -11 13 -8 21l33 98h68z" />
    <glyph glyph-name="ogonek" unicode="&#x2db;" 
d="M377 -171h-22c-68 0 -96 36 -96 85c0 45 35 85 64 111l24 23c9 6 15 -1 21 0c0 0 0 1 2 2h17l-2 -42c-2 -2 2 -4 0 -6c-15 -13 -62 -53 -62 -88c0 -17 10 -26 36 -26h18c10 0 18 -7 18 -18v-22c0 -10 -8 -19 -18 -19z" />
    <glyph glyph-name="comma" unicode="," 
d="M328 -11c0 -66 -52 -119 -118 -119c-6 0 -10 5 -10 11v43c0 6 4 12 10 12c30 0 54 24 54 53v11h-54c-6 0 -10 5 -10 11v108c0 6 4 11 10 11h108c6 0 10 -5 10 -11v-130z" />
    <glyph glyph-name="semicolon" unicode=";" 
d="M328 356c0 -6 -4 -10 -10 -10h-108c-6 0 -10 4 -10 10v109c0 5 4 10 10 10h108c6 0 10 -5 10 -10v-109zM328 -11c0 -66 -52 -119 -118 -119c-6 0 -10 5 -10 11v43c0 6 4 12 10 12c30 0 54 24 54 53v11h-54c-6 0 -10 5 -10 11v108c0 6 4 11 10 11h108c6 0 10 -5 10 -11
v-130z" />
    <glyph glyph-name="colon" unicode=":" 
d="M328 356c0 -6 -4 -10 -10 -10h-108c-6 0 -10 4 -10 10v109c0 5 4 10 10 10h108c6 0 10 -5 10 -10v-109zM328 11c0 -6 -4 -11 -10 -11h-108c-6 0 -10 5 -10 11v108c0 6 4 11 10 11h108c6 0 10 -5 10 -11v-108z" />
    <glyph glyph-name="period" unicode="." 
d="M328 11c0 -6 -4 -11 -10 -11h-108c-6 0 -10 5 -10 11v108c0 6 4 11 10 11h108c6 0 10 -5 10 -11v-108z" />
    <glyph glyph-name="ellipsis" unicode="&#x2026;" 
d="M513 11c0 -6 -6 -11 -12 -11h-107c-6 0 -11 5 -11 11v108c0 6 5 11 11 11h107c6 0 12 -5 12 -11v-108zM328 11c0 -6 -4 -11 -10 -11h-108c-6 0 -10 5 -10 11v108c0 6 4 11 10 11h108c6 0 10 -5 10 -11v-108zM145 11c0 -6 -5 -11 -11 -11h-107c-6 0 -12 5 -12 11v108
c0 6 6 11 12 11h107c6 0 11 -5 11 -11v-108z" />
    <glyph glyph-name="hyphen" unicode="-" 
d="M415 237c0 -5 -5 -10 -11 -10h-280c-6 0 -11 5 -11 10v43c0 6 5 12 11 12h280c6 0 11 -6 11 -12v-43z" />
    <glyph glyph-name="exclam" unicode="!" 
d="M297 227c0 -6 -6 -11 -12 -11h-42c-6 0 -12 5 -12 11v475c0 6 6 10 12 10h42c6 0 12 -4 12 -10v-475zM328 11c0 -6 -4 -11 -10 -11h-108c-6 0 -10 5 -10 11v108c0 6 4 11 10 11h108c6 0 10 -5 10 -11v-108z" />
    <glyph glyph-name="exclamdown" unicode="&#xa1;" 
d="M328 378c0 -6 -4 -11 -10 -11h-108c-6 0 -10 5 -10 11v108c0 6 4 10 10 10h108c6 0 10 -4 10 -10v-108zM297 -205c0 -6 -6 -11 -12 -11h-42c-6 0 -12 5 -12 11v475c0 6 6 10 12 10h42c6 0 12 -4 12 -10v-475z" />
    <glyph glyph-name="question" unicode="?" 
d="M437 540c0 -53 -16 -117 -111 -188c-50 -38 -51 -65 -51 -115v-10c0 -6 -5 -11 -11 -11h-43c-6 0 -11 5 -11 11v10c0 59 3 111 78 167c78 59 84 103 84 136v22c0 53 -44 97 -97 97h-22c-53 0 -97 -44 -97 -97v-33c0 -6 -5 -11 -11 -11h-43c-6 0 -11 5 -11 11v33
c0 89 73 162 162 162h22c89 0 162 -73 162 -162v-22zM307 11c0 -6 -5 -11 -10 -11h-109c-6 0 -10 5 -10 11v108c0 6 4 11 10 11h109c5 0 10 -5 10 -11v-108z" />
    <glyph glyph-name="questiondown" unicode="&#xbf;" 
d="M350 378c0 -6 -4 -11 -10 -11h-109c-5 0 -10 5 -10 11v108c0 6 5 10 10 10h109c6 0 10 -4 10 -10v-108zM437 -65c0 -90 -73 -162 -162 -162h-22c-89 0 -162 72 -162 162v22c0 54 16 117 111 188c50 37 51 65 51 114v11c0 6 5 10 11 10h43c6 0 11 -4 11 -10v-11
c0 -58 -3 -110 -78 -166c-78 -58 -84 -104 -84 -136v-22c0 -53 44 -97 97 -97h22c53 0 97 44 97 97v32c0 6 5 11 11 11h43c6 0 11 -5 11 -11v-32z" />
    <glyph glyph-name="quoteleft" unicode="&#x2018;" 
d="M328 465c0 -6 -4 -12 -10 -12h-108c-6 0 -10 6 -10 12v129c0 66 52 118 118 118c6 0 10 -4 10 -10v-43c0 -6 -4 -11 -10 -11c-30 0 -54 -24 -54 -54v-11h54c6 0 10 -5 10 -11v-107z" />
    <glyph glyph-name="quoteright" unicode="&#x2019;" 
d="M328 572c0 -65 -52 -119 -118 -119c-6 0 -10 6 -10 12v43c0 6 4 10 10 10c30 0 54 24 54 54v11h-54c-6 0 -10 5 -10 11v108c0 6 4 10 10 10h108c6 0 10 -4 10 -10v-130z" />
    <glyph glyph-name="quotedblleft" unicode="&#x201c;" 
d="M426 465c0 -6 -6 -12 -11 -12h-108c-6 0 -10 6 -10 12v129c0 66 52 118 118 118c5 0 11 -4 11 -10v-43c0 -6 -6 -11 -11 -11c-30 0 -54 -24 -54 -54v-11h54c5 0 11 -5 11 -11v-107zM231 465c0 -6 -4 -12 -10 -12h-108c-5 0 -11 6 -11 12v129c0 66 54 118 119 118
c6 0 10 -4 10 -10v-43c0 -6 -4 -11 -10 -11c-30 0 -54 -24 -54 -54v-11h54c6 0 10 -5 10 -11v-107z" />
    <glyph glyph-name="quotedblright" unicode="&#x201d;" 
d="M426 572c0 -65 -54 -119 -119 -119c-6 0 -10 6 -10 12v43c0 6 4 10 10 10c30 0 54 24 54 54v11h-54c-6 0 -10 5 -10 11v108c0 6 4 10 10 10h108c5 0 11 -4 11 -10v-130zM231 572c0 -65 -52 -119 -118 -119c-5 0 -11 6 -11 12v43c0 6 6 10 11 10c30 0 54 24 54 54v11h-54
c-5 0 -11 5 -11 11v108c0 6 6 10 11 10h108c6 0 10 -4 10 -10v-130z" />
    <glyph glyph-name="quotesinglbase" unicode="&#x201a;" 
d="M328 -11c0 -66 -52 -119 -118 -119c-6 0 -10 5 -10 11v43c0 6 4 12 10 12c30 0 54 24 54 53v11h-54c-6 0 -10 5 -10 11v108c0 6 4 11 10 11h108c6 0 10 -5 10 -11v-130z" />
    <glyph glyph-name="quotedblbase" unicode="&#x201e;" 
d="M426 -11c0 -66 -54 -119 -119 -119c-6 0 -10 5 -10 11v43c0 6 4 12 10 12c30 0 54 24 54 53v11h-54c-6 0 -10 5 -10 11v108c0 6 4 11 10 11h108c5 0 11 -5 11 -11v-130zM231 -11c0 -66 -52 -119 -118 -119c-5 0 -11 5 -11 11v43c0 6 6 12 11 12c30 0 54 24 54 53v11h-54
c-5 0 -11 5 -11 11v108c0 6 6 11 11 11h108c6 0 10 -5 10 -11v-130z" />
    <glyph glyph-name="guilsinglleft" unicode="&#x2039;" 
d="M392 103c5 -9 1 -17 -10 -17h-49c-2 0 -9 3 -9 5l-91 136c0 1 -2 5 -2 5v32c0 1 2 6 2 6l91 135c0 2 7 5 9 5h49c11 0 15 -8 10 -16l-95 -143v-5z" />
    <glyph glyph-name="guilsinglright" unicode="&#x203a;" 
d="M297 232c0 0 -2 -4 -2 -5l-91 -136c0 -2 -7 -5 -9 -5h-49c-11 0 -15 8 -10 17l95 143v5l-95 143c-5 8 -1 16 10 16h49c2 0 9 -3 9 -5l91 -135s2 -5 2 -6v-32z" />
    <glyph glyph-name="guillemotleft" unicode="&#xab;" 
d="M415 103c6 -9 2 -17 -9 -17h-50c-2 0 -8 3 -8 5l-91 136c0 1 -2 5 -2 5v32c0 1 2 6 2 6l91 135c0 2 6 5 8 5h50c11 0 15 -8 9 -16l-95 -143v-5zM273 103c5 -9 2 -17 -9 -17h-50c-2 0 -8 3 -10 5l-90 136c0 1 -1 5 -1 5v32c0 1 1 6 1 6l90 135c2 2 8 5 10 5h50
c11 0 14 -8 9 -16l-95 -143v-5z" />
    <glyph glyph-name="guillemotright" unicode="&#xbb;" 
d="M415 232c0 0 -1 -4 -1 -5l-90 -136c-2 -2 -8 -5 -10 -5h-50c-11 0 -14 8 -9 17l95 143v5l-95 143c-5 8 -2 16 9 16h50c2 0 8 -3 10 -5l90 -135s1 -5 1 -6v-32zM273 232c0 0 -2 -4 -2 -5l-91 -136c0 -2 -6 -5 -8 -5h-50c-11 0 -15 8 -9 17l95 143v5l-95 143
c-6 8 -2 16 9 16h50c2 0 8 -3 8 -5l91 -135s2 -5 2 -6v-32z" />
    <glyph glyph-name="slash" unicode="/" 
d="M438 698l-282 -691c0 -3 -6 -7 -9 -7h-47c-9 0 -13 7 -10 14l282 692c0 2 6 6 9 6h47c9 0 13 -5 10 -14z" />
    <glyph glyph-name="bar" unicode="|" 
d="M297 -205c0 -6 -6 -11 -12 -11h-42c-6 0 -12 5 -12 11v907c0 6 6 10 12 10h42c6 0 12 -4 12 -10v-907z" />
    <glyph glyph-name="endash" unicode="&#x2013;" 
d="M394 237c0 -5 -5 -10 -11 -10h-238c-6 0 -11 5 -11 10v43c0 6 5 12 11 12h238c6 0 11 -6 11 -12v-43z" />
    <glyph glyph-name="emdash" unicode="&#x2014;" 
d="M482 237c0 -5 -5 -10 -11 -10h-414c-6 0 -11 5 -11 10v43c0 6 5 12 11 12h414c6 0 11 -6 11 -12v-43z" />
    <glyph glyph-name="bullet" unicode="&#x2022;" 
d="M383 356c0 -65 -54 -119 -119 -119s-119 54 -119 119c0 66 54 119 119 119s119 -53 119 -119z" />
    <glyph glyph-name="periodcentered" unicode="&#xb7;" 
d="M328 249c0 -37 -28 -66 -64 -66s-64 29 -64 66c0 35 28 64 64 64s64 -29 64 -64z" />
    <glyph glyph-name="parenleft" unicode="(" 
d="M361 -205c0 -6 -5 -11 -11 -11h-22c-89 0 -161 73 -161 162v605c0 89 72 161 161 161h22c6 0 11 -4 11 -10v-43c0 -6 -5 -11 -11 -11h-22c-52 0 -97 -43 -97 -97v-605c0 -54 45 -98 97 -98h22c6 0 11 -4 11 -10v-43z" />
    <glyph glyph-name="parenright" unicode=")" 
d="M361 -54c0 -89 -72 -162 -161 -162h-22c-6 0 -11 5 -11 11v43c0 6 5 10 11 10h22c52 0 97 44 97 98v605c0 54 -45 97 -97 97h-22c-6 0 -11 5 -11 11v43c0 6 5 10 11 10h22c89 0 161 -72 161 -161v-605z" />
    <glyph glyph-name="bracketleft" unicode="[" 
d="M361 -205c0 -6 -5 -11 -11 -11h-172c-6 0 -11 5 -11 11v907c0 6 5 10 11 10h172c6 0 11 -4 11 -10v-43c0 -6 -5 -11 -11 -11h-119v-799h119c6 0 11 -5 11 -11v-43z" />
    <glyph glyph-name="bracketright" unicode="]" 
d="M361 -205c0 -6 -5 -11 -11 -11h-172c-6 0 -11 5 -11 11v43c0 6 5 10 11 10h119v800h-119c-6 0 -11 5 -11 11v43c0 6 5 10 11 10h172c6 0 11 -4 11 -10v-907z" />
    <glyph glyph-name="braceleft" unicode="{" 
d="M415 -205c0 -6 -5 -11 -11 -11h-21c-89 0 -162 73 -162 162v173c0 54 -43 97 -97 97c-6 0 -11 5 -11 11v43c0 6 5 10 11 10c54 0 97 44 97 98v173c0 89 73 161 162 161h21c6 0 11 -4 11 -10v-43c0 -6 -5 -11 -11 -11h-21c-54 0 -98 -43 -98 -97v-173
c0 -53 -25 -100 -64 -129c39 -30 64 -77 64 -130v-173c0 -54 44 -97 98 -97h21c6 0 11 -5 11 -11v-43z" />
    <glyph glyph-name="braceright" unicode="}" 
d="M415 227c0 -6 -5 -11 -11 -11c-54 0 -97 -43 -97 -97v-173c0 -89 -73 -162 -162 -162h-21c-6 0 -11 5 -11 11v43c0 6 5 11 11 11h21c54 0 98 43 98 97v173c0 53 25 100 64 130c-39 29 -64 76 -64 129v173c0 54 -44 97 -98 97h-21c-6 0 -11 5 -11 11v43s5 10 11 10h21
c89 0 162 -72 162 -161v-173c0 -54 43 -98 97 -98c6 0 11 -4 11 -10v-43z" />
    <glyph glyph-name="asterisk" unicode="*" 
d="M447 508c0 -6 -4 -12 -10 -12l-122 4l63 -104c3 -5 1 -12 -4 -15l-37 -22c-5 -3 -12 -1 -14 4l-59 107l-59 -107c-2 -5 -9 -7 -14 -4l-37 22c-5 3 -7 10 -4 15l63 104l-122 -4c-6 0 -10 6 -10 12v43c0 6 4 11 10 11l122 -3l-63 103c-3 5 -1 13 4 16l37 21c5 3 12 1 14 -4
l59 -107l59 107c2 5 9 7 14 4l37 -21c5 -3 7 -11 4 -16l-63 -103l122 3c6 0 10 -5 10 -11v-43z" />
    <glyph glyph-name="dagger" unicode="&#x2020;" 
d="M469 443c0 -6 -5 -11 -11 -11h-161v-421c0 -6 -6 -11 -12 -11h-42c-6 0 -12 5 -12 11v421h-161c-6 0 -11 5 -11 11v43c0 6 5 10 11 10h161v206c0 6 6 10 12 10h42c6 0 12 -4 12 -10v-206h161c6 0 11 -4 11 -10v-43z" />
    <glyph glyph-name="daggerdbl" unicode="&#x2021;" 
d="M469 11c0 -6 -5 -11 -11 -11h-161v-205c0 -6 -6 -11 -12 -11h-42c-6 0 -12 5 -12 11v205h-161c-6 0 -11 5 -11 11v43c0 6 5 10 11 10h161v368h-161c-6 0 -11 5 -11 11v43c0 6 5 10 11 10h161v206c0 6 6 10 12 10h42c6 0 12 -4 12 -10v-206h161c6 0 11 -4 11 -10v-43
c0 -6 -5 -11 -11 -11h-161v-368h161c6 0 11 -4 11 -10v-43z" />
    <glyph glyph-name="section" unicode="&#xa7;" 
d="M480 194c0 -81 -39 -134 -85 -158c25 -29 42 -65 42 -112c0 -93 -77 -151 -162 -151h-32c-90 0 -162 72 -162 163v21c0 6 4 10 10 10h43c6 0 11 -4 11 -10v-21c0 -54 44 -98 98 -98h32c57 0 97 36 97 86c0 157 -324 142 -324 378c0 81 39 135 85 159
c-25 29 -42 64 -42 111c0 93 77 152 162 152h22c89 0 162 -73 162 -162c0 -6 -5 -11 -11 -11h-43c-6 0 -11 5 -11 11c0 53 -44 97 -97 97h-22c-57 0 -97 -37 -97 -87c0 -155 324 -142 324 -378zM415 194c0 119 -126 154 -221 216h-6c-23 0 -75 -26 -75 -108
c0 -118 126 -154 221 -216h6c23 0 75 27 75 108z" />
    <glyph glyph-name="paragraph" unicode="&#xb6;" 
d="M426 -205c0 -6 -6 -11 -11 -11h-43c-5 0 -11 5 -11 11v853h-64v-853c0 -6 -6 -11 -12 -11h-42c-6 0 -12 5 -12 11v540h-10c-89 0 -162 72 -162 161v55c0 89 73 161 162 161h194c5 0 11 -4 11 -10v-907z" />
    <glyph glyph-name="asciicircum" unicode="^" 
d="M451 339c3 -9 -2 -15 -10 -15h-46c-3 0 -9 4 -10 7l-121 315l-121 -315c-1 -3 -7 -7 -10 -7h-46c-8 0 -13 6 -10 15l141 367c1 2 7 6 10 6h72c3 0 9 -4 10 -6z" />
    <glyph glyph-name="asciitilde" unicode="~" 
d="M447 280c0 -73 -100 -149 -206 -44c-66 67 -96 15 -96 1v-21c0 -6 -5 -11 -11 -11h-43c-6 0 -10 5 -10 11v21c0 74 100 151 206 45c66 -67 96 -14 96 -2v22c0 6 5 11 11 11h43c6 0 10 -5 10 -11v-22z" />
    <glyph glyph-name="brokenbar" unicode="&#xa6;" 
d="M297 443c0 -6 -6 -11 -12 -11h-42c-6 0 -12 5 -12 11v259c0 6 6 10 12 10h42c6 0 12 -4 12 -10v-259zM297 11c0 -6 -6 -11 -12 -11h-42c-6 0 -12 5 -12 11v259c0 6 6 10 12 10h42c6 0 12 -4 12 -10v-259z" />
    <glyph glyph-name="backslash" unicode="\" 
d="M438 14c3 -7 -1 -14 -10 -14h-47c-3 0 -9 4 -9 7l-282 691c-3 9 1 14 10 14h47c3 0 9 -4 9 -6z" />
    <glyph glyph-name="underscore" unicode="_" 
d="M437 11c0 -6 -5 -11 -11 -11h-324c-6 0 -11 5 -11 11v43c0 6 5 10 11 10h324c6 0 11 -4 11 -10v-43z" />
    <glyph glyph-name="quotesingle" unicode="'" 
d="M328 572c0 -65 -52 -119 -118 -119c-6 0 -10 6 -10 12v43c0 6 4 10 10 10c30 0 54 24 54 54v11h-54c-6 0 -10 5 -10 11v108c0 6 4 10 10 10h108c6 0 10 -4 10 -10v-130z" />
    <glyph glyph-name="quotedbl" unicode="&#x22;" 
d="M426 572c0 -65 -54 -119 -119 -119c-6 0 -10 6 -10 12v43c0 6 4 10 10 10c30 0 54 24 54 54v11h-54c-6 0 -10 5 -10 11v108c0 6 4 10 10 10h108c5 0 11 -4 11 -10v-130zM231 572c0 -65 -52 -119 -118 -119c-5 0 -11 6 -11 12v43c0 6 6 10 11 10c30 0 54 24 54 54v11h-54
c-5 0 -11 5 -11 11v108c0 6 6 10 11 10h108c6 0 10 -4 10 -10v-130z" />
    <glyph glyph-name="at" unicode="@" 
d="M459 86c0 -53 -44 -97 -98 -97c-30 0 -56 14 -74 35c-23 -22 -54 -35 -87 -35c-72 0 -130 58 -130 130v259c0 71 58 130 130 130c23 0 46 -7 65 -18c1 3 6 6 10 6h43c6 0 11 -4 11 -10v-400c0 -18 15 -32 32 -32c18 0 33 14 33 32v476c0 53 -44 97 -97 97h-54
c-54 0 -98 -44 -98 -97v-11c0 -6 -5 -11 -11 -11h-43c-6 0 -10 5 -10 11v11c0 89 72 162 162 162h54c89 0 162 -73 162 -162v-476zM264 119v259c0 36 -29 65 -64 65c-37 0 -66 -29 -66 -65v-259c0 -36 29 -65 66 -65c35 0 64 29 64 65z" />
    <glyph glyph-name="copyright" unicode="&#xa9;" 
d="M458 486c0 -108 -86 -194 -194 -194s-194 86 -194 194v43c0 107 86 195 194 195s194 -88 194 -195v-43zM415 486v43c0 83 -67 152 -151 152s-151 -69 -151 -152v-43c0 -84 67 -151 151 -151s151 67 151 151zM361 465c0 -43 -34 -76 -76 -76h-42c-42 0 -76 33 -76 76v86
c0 41 34 75 76 75h42c42 0 76 -34 76 -75c0 -6 -5 -11 -11 -11h-22c-4 0 -10 5 -10 11c0 17 -15 32 -33 32h-42c-18 0 -33 -15 -33 -32v-86c0 -19 15 -33 33 -33h42c18 0 33 14 33 33c0 5 6 10 10 10h22c6 0 11 -5 11 -10z" />
    <glyph glyph-name="registered" unicode="&#xae;" 
d="M458 486c0 -108 -86 -194 -194 -194s-194 86 -194 194v43c0 107 86 195 194 195s194 -88 194 -195v-43zM415 486v43c0 83 -67 152 -151 152s-151 -69 -151 -152v-43c0 -84 67 -151 151 -151s151 67 151 151zM361 405c6 -9 1 -16 -9 -16h-26c-2 0 -7 4 -8 5l-42 71h-55
v-66c0 -5 -5 -10 -11 -10h-22c-6 0 -10 5 -10 10v216c0 6 4 11 10 11h97c42 0 76 -34 76 -75v-11c0 -29 -16 -54 -40 -67zM318 540v11c0 17 -15 32 -33 32h-64v-75h64c18 0 33 14 33 32z" />
    <glyph glyph-name="trademark" unicode="&#x2122;" 
d="M513 443c0 -6 -6 -11 -12 -11h-21c-6 0 -11 5 -11 11v206l-57 -209c-1 -4 -6 -8 -10 -8h-49c-4 0 -9 4 -10 8l-58 209v-206c0 -6 -5 -11 -10 -11h-22c-5 0 -10 5 -10 11v259c0 6 5 10 10 10h51c4 0 10 -4 11 -7l62 -229l63 229c1 3 6 7 10 7h51c6 0 12 -4 12 -10v-259z
M210 681c0 -6 -6 -12 -10 -12h-66v-226c0 -6 -4 -11 -10 -11h-22c-6 0 -11 5 -11 11v226h-64c-6 0 -12 6 -12 12v21c0 6 6 10 12 10h173c4 0 10 -4 10 -10v-21z" />
    <glyph glyph-name="currency" unicode="&#xa4;" horiz-adv-x="600" 
d="M550 371c0 -55 -40 -95 -95 -95h-73c11 -16 17 -36 17 -56c0 -55 -40 -95 -95 -95h-254v254c0 55 40 95 95 95c20 0 40 -6 56 -17v73c0 55 40 95 95 95s95 -40 95 -95v-64h64c55 0 95 -40 95 -95zM533 371c0 46 -32 78 -78 78h-81v81c0 46 -32 78 -78 78s-78 -32 -78 -78
v-237h237c46 0 78 32 78 78z" />
    <glyph glyph-name="Euro" unicode="&#x20ac;" 
d="M447 151c0 -90 -72 -162 -162 -162h-32c-89 0 -162 72 -162 162v67l-36 -13c-5 -1 -12 1 -14 6l-14 41c-3 5 1 12 6 14l58 21v62l-47 -17c-6 -2 -11 1 -13 7l-16 40c-2 6 1 13 7 15l69 25v143c0 89 73 162 162 162h32c90 0 162 -73 162 -162v-22c0 -5 -4 -11 -10 -11h-43
c-6 0 -11 6 -11 11v22c0 53 -44 97 -98 97h-32c-53 0 -97 -44 -97 -97v-119l150 53c6 3 12 -1 14 -5l15 -42c2 -5 -1 -11 -7 -13l-172 -63v-62l161 59c6 2 12 -1 14 -7l15 -40c2 -6 -1 -12 -7 -15l-183 -66v-91c0 -53 44 -97 97 -97h32c54 0 98 44 98 97v32c0 6 5 11 11 11
h43c6 0 10 -5 10 -11v-32z" />
    <glyph glyph-name="dollar" unicode="$" 
d="M447 151c0 -86 -66 -156 -150 -162v-65c0 -6 -6 -10 -12 -10h-42c-6 0 -12 4 -12 10v65c-84 6 -150 76 -150 162v22c0 6 4 10 10 10h43c6 0 11 -4 11 -10v-22c0 -53 44 -97 98 -97h42c54 0 98 44 98 97v32c0 168 -292 138 -292 346v33c0 82 62 149 140 160v66
c0 6 6 11 12 11h42c6 0 12 -5 12 -11v-66c78 -11 140 -78 140 -160v-22c0 -5 -5 -11 -11 -11h-43c-6 0 -11 6 -11 11v22c0 53 -44 97 -97 97h-22c-53 0 -97 -44 -97 -97v-33c0 -157 291 -129 291 -346v-32z" />
    <glyph glyph-name="cent" unicode="&#xa2;" 
d="M437 151c0 -90 -73 -162 -162 -162h-22c-16 0 -31 2 -47 7l-15 -43c-2 -5 -9 -9 -13 -7l-42 16c-4 2 -7 8 -5 13l18 52c-36 30 -58 75 -58 124v195c0 89 73 162 162 162h22c16 0 31 -3 47 -7l15 42c2 6 9 9 13 7l42 -14c4 -2 7 -9 5 -15l-18 -52c36 -29 58 -73 58 -123
c0 -6 -5 -11 -11 -11h-43c-6 0 -11 5 -11 11c0 21 -6 40 -18 55l-126 -344c8 -2 17 -3 25 -3h22c53 0 97 44 97 97c0 5 5 11 11 11h43c6 0 11 -6 11 -11zM300 440c-8 2 -17 3 -25 3h-22c-53 0 -97 -44 -97 -97v-195c0 -20 6 -40 18 -56z" />
    <glyph glyph-name="sterling" unicode="&#xa3;" 
d="M469 11c0 -6 -5 -11 -11 -11h-431c-6 0 -12 5 -12 11v43c0 6 6 10 12 10c53 0 97 44 97 98v162h-54c-6 0 -11 5 -11 11v43c0 6 5 11 11 11h54v173c0 89 72 162 161 162h22c89 0 162 -73 162 -162v-87c0 -6 -5 -10 -11 -10h-43c-5 0 -11 4 -11 10v87c0 53 -43 97 -97 97
h-22c-53 0 -97 -44 -97 -97v-173h184c5 0 11 -5 11 -11v-43c0 -6 -6 -11 -11 -11h-184v-162c0 -36 -11 -70 -32 -98h302c6 0 11 -4 11 -10v-43z" />
    <glyph glyph-name="florin" unicode="&#x192;" 
d="M491 518c0 -5 -5 -10 -11 -10h-43c-6 0 -11 5 -11 10v44c0 57 -36 97 -86 97h-22c-50 0 -87 -40 -87 -97v-87h119c6 0 11 -5 11 -10v-44c0 -5 -5 -11 -11 -11h-119v-518c0 -60 -48 -108 -107 -108c-6 0 -11 5 -11 11v43c0 6 5 10 11 10c24 0 43 20 43 44v518h-76
c-6 0 -10 6 -10 11v44c0 5 4 10 10 10h76v87c0 85 58 162 151 162h22c93 0 151 -77 151 -162v-44z" />
    <glyph glyph-name="yen" unicode="&#xa5;" 
d="M447 698l-134 -342h91c6 0 11 -5 11 -10v-44c0 -5 -5 -10 -11 -10h-107v-43h107c6 0 11 -6 11 -12v-43c0 -5 -5 -11 -11 -11h-107v-172c0 -6 -6 -11 -12 -11h-42c-6 0 -12 5 -12 11v172h-107c-6 0 -11 6 -11 11v43c0 6 5 12 11 12h107v43h-107c-6 0 -11 5 -11 10v44
c0 5 5 10 11 10h90l-133 342c-4 9 1 14 9 14h46c4 0 10 -4 11 -6l117 -308l117 308c1 2 7 6 10 6h47c8 0 13 -5 9 -14z" />
    <glyph glyph-name="ordfeminine" unicode="&#xaa;" 
d="M415 432c0 -6 -5 -11 -11 -11h-21c-24 0 -45 11 -59 29c-23 -18 -50 -29 -81 -29h-12c-71 0 -129 58 -129 130v43c0 71 58 130 129 130h12c23 0 46 -7 65 -18c1 3 6 6 10 6h43c6 0 11 -4 11 -10v-206c0 -5 5 -10 11 -10h21c6 0 11 -5 11 -11v-43zM404 324
c0 -5 -5 -11 -10 -11h-270c-6 0 -11 6 -11 11v43c0 5 5 11 11 11h270c5 0 10 -6 10 -11v-43zM307 551v43c0 36 -29 65 -64 65h-12c-35 0 -64 -29 -64 -65v-43c0 -36 29 -65 64 -65h12c35 0 64 29 64 65z" />
    <glyph glyph-name="ordmasculine" unicode="&#xba;" 
d="M383 551c0 -72 -59 -130 -130 -130h-22c-71 0 -129 58 -129 130v43c0 71 58 130 129 130h22c71 0 130 -59 130 -130v-43zM372 324c0 -5 -5 -11 -11 -11h-237c-6 0 -11 6 -11 11v43c0 5 5 11 11 11h237c6 0 11 -6 11 -11v-43zM318 551v43c0 36 -29 65 -65 65h-22
c-35 0 -64 -29 -64 -65v-43c0 -36 29 -65 64 -65h22c36 0 65 29 65 65z" />
    <glyph glyph-name="numbersign" unicode="#" 
d="M501 443c0 -6 -5 -11 -10 -11h-91l-27 -152h80c6 0 11 -4 11 -10v-43c0 -6 -5 -11 -11 -11h-91l-37 -207c-1 -4 -5 -9 -10 -9h-44c-7 0 -12 6 -11 12l37 204h-117l-36 -207c-1 -4 -7 -9 -12 -9h-43c-7 0 -12 6 -10 12l35 204h-77c-5 0 -10 5 -10 11v43c0 6 5 10 10 10h89
l27 152h-78c-6 0 -11 5 -11 11v43c0 6 5 10 11 10h89l37 208c1 4 5 8 10 8h43c8 0 13 -4 12 -12l-37 -204h117l36 208c1 4 7 8 11 8h44c7 0 12 -4 10 -12l-35 -204h79c5 0 10 -4 10 -10v-43zM334 432h-116l-27 -152h117z" />
    <glyph glyph-name="zero" unicode="0" 
d="M437 151c0 -90 -73 -162 -162 -162h-22c-89 0 -162 72 -162 162v411c0 89 73 162 162 162h22c89 0 162 -73 162 -162v-411zM372 151v411c0 53 -44 97 -97 97h-22c-53 0 -97 -44 -97 -97v-411c0 -53 44 -97 97 -97h22c53 0 97 44 97 97z" />
    <glyph glyph-name="one" unicode="1" 
d="M469 11c0 -6 -5 -11 -11 -11h-367c-6 0 -10 5 -10 11v43c0 6 4 10 10 10h162v554l-94 -110c-3 -4 -10 -4 -15 -1l-33 28c-4 4 -5 11 -2 15l137 159c1 1 6 3 8 3h53c6 0 11 -4 11 -10v-638h140c6 0 11 -4 11 -10v-43z" />
    <glyph glyph-name="two" unicode="2" 
d="M447 11c0 -6 -4 -11 -10 -11h-346c-6 0 -10 5 -10 11v43c0 140 36 225 164 318c116 84 127 130 127 157v33c0 53 -44 97 -97 97h-22c-53 0 -97 -44 -97 -97v-33c0 -6 -5 -11 -11 -11h-43c-6 0 -11 5 -11 11v33c0 89 73 162 162 162h22c89 0 162 -73 162 -162v-33
c0 -59 -33 -121 -154 -209c-106 -78 -136 -142 -138 -256h292c6 0 10 -4 10 -10v-43z" />
    <glyph glyph-name="three" unicode="3" 
d="M447 151c0 -90 -72 -162 -162 -162h-42c-90 0 -162 72 -162 162v32c0 6 4 11 10 11h43c6 0 11 -5 11 -11v-32c0 -53 44 -97 98 -97h42c54 0 98 44 98 97v141c0 54 -44 97 -98 97h-75c-6 0 -10 5 -10 10v51c0 1 1 7 2 7c0 0 137 170 155 191h-233c-6 0 -11 5 -11 11v43
c0 6 5 10 11 10h302c6 0 11 -4 11 -10v-51s-2 -6 -2 -7l-154 -191h4c90 0 162 -72 162 -161v-141z" />
    <glyph glyph-name="four" unicode="4" 
d="M458 140c0 -6 -5 -10 -11 -10h-53v-119c0 -6 -5 -11 -11 -11h-43c-6 0 -12 5 -12 11v119h-247c-6 0 -11 4 -11 10v70l1 5l246 492c1 2 7 5 9 5h48c10 0 15 -6 10 -15l-250 -499v-4h194v162c0 6 6 11 12 11h43c6 0 11 -5 11 -11v-162h53c6 0 11 -5 11 -11v-43z" />
    <glyph glyph-name="five" unicode="5" 
d="M437 151c0 -90 -73 -162 -162 -162h-22c-89 0 -162 72 -162 162v32c0 6 5 11 11 11h43c6 0 11 -5 11 -11v-32c0 -53 44 -97 97 -97h22c53 0 97 44 97 97v162c0 54 -44 97 -97 97h-22c-87 0 -84 -86 -107 -86h-39c-7 0 -12 5 -12 11l19 368c0 5 5 9 11 9h290
c5 0 11 -4 11 -10v-43c0 -6 -6 -11 -11 -11h-239l-10 -199c25 17 55 26 87 26h22c89 0 162 -73 162 -162v-162z" />
    <glyph glyph-name="six" unicode="6" 
d="M437 151c0 -90 -73 -162 -162 -162h-22c-89 0 -162 72 -162 162v411c0 89 73 162 162 162h22c89 0 162 -73 162 -162v-11c0 -6 -5 -11 -11 -11h-43c-6 0 -11 5 -11 11v11c0 53 -44 97 -97 97h-22c-53 0 -97 -44 -97 -97v-119c27 20 61 32 97 32h22c89 0 162 -73 162 -162
v-162zM372 151v162c0 54 -44 97 -97 97h-22c-53 0 -97 -43 -97 -97v-162c0 -53 44 -97 97 -97h22c53 0 97 44 97 97z" />
    <glyph glyph-name="seven" unicode="7" 
d="M447 648c0 -104 -61 -185 -112 -270c-53 -86 -110 -195 -133 -368c0 -5 -6 -10 -11 -10h-43c-7 0 -12 6 -11 12c24 190 87 308 142 401c44 71 104 148 104 235h-292c-6 0 -10 5 -10 11v43c0 6 4 10 10 10h346c6 0 10 -4 10 -10v-54z" />
    <glyph glyph-name="eight" unicode="8" 
d="M447 151c0 -90 -72 -162 -162 -162h-42c-90 0 -162 72 -162 162v76c0 55 27 104 70 133c-37 30 -60 75 -60 126v76c0 89 73 162 162 162h22c89 0 162 -73 162 -162v-76c0 -51 -23 -96 -60 -126c43 -29 70 -78 70 -133v-76zM372 486v76c0 53 -44 97 -97 97h-22
c-53 0 -97 -44 -97 -97v-76c0 -54 44 -97 97 -97h22c53 0 97 43 97 97zM383 151v76c0 53 -44 97 -98 97h-42c-54 0 -98 -44 -98 -97v-76c0 -53 44 -97 98 -97h42c54 0 98 44 98 97z" />
    <glyph glyph-name="nine" unicode="9" 
d="M437 151c0 -90 -73 -162 -162 -162h-11c-89 0 -162 72 -162 162v11c0 6 6 11 11 11h43c5 0 11 -5 11 -11v-11c0 -53 43 -97 97 -97h11c53 0 97 44 97 97v119c-27 -20 -61 -33 -97 -33h-22c-89 0 -162 73 -162 162v163c0 89 73 162 162 162h22c89 0 162 -73 162 -162v-411
zM372 399v163c0 53 -44 97 -97 97h-22c-53 0 -97 -44 -97 -97v-163c0 -53 44 -97 97 -97h22c53 0 97 44 97 97z" />
    <glyph glyph-name="onesuperior" unicode="&#xb9;" 
d="M243 432c0 -6 -6 -11 -12 -11h-161c-6 0 -11 5 -11 11v33c0 5 5 10 11 10h59v171l-30 -30c-4 -4 -11 -4 -15 0l-23 23c-4 4 -4 12 0 16l55 54c3 2 4 3 8 3h48c6 0 11 -4 11 -10v-227h48c6 0 12 -5 12 -10v-33z" />
    <glyph glyph-name="twosuperior" unicode="&#xb2;" 
d="M237 443c0 -6 -5 -11 -10 -11h-157c-6 0 -11 5 -11 11v44c0 73 119 112 119 155c0 16 -13 27 -27 27h-11c-15 0 -28 -11 -28 -27c0 -6 -4 -10 -10 -10h-33c-5 0 -10 4 -10 10c0 45 36 82 81 82h11c44 0 80 -37 80 -82c0 -76 -119 -120 -118 -155v-1h114c5 0 10 -5 10 -11
v-32z" />
    <glyph glyph-name="threesuperior" unicode="&#xb3;" 
d="M243 502c0 -44 -37 -81 -82 -81h-21c-45 0 -81 37 -81 81c0 6 5 11 11 11h32c6 0 11 -5 11 -11c0 -14 12 -27 27 -27h21c16 0 27 13 27 27v22c0 15 -11 27 -27 27h-37c-6 0 -11 5 -11 11v44c0 2 2 6 3 7l45 46h-76c-5 0 -10 5 -10 10v33c0 6 5 10 10 10h136
c6 0 10 -4 10 -10v-44c0 -1 -2 -7 -3 -8l-47 -47c35 -10 62 -41 62 -79v-22z" />
    <glyph glyph-name="fraction" unicode="&#x2044;" 
d="M438 698l-282 -691c0 -3 -6 -7 -9 -7h-47c-9 0 -13 7 -10 14l282 692c0 2 6 6 9 6h47c9 0 13 -5 10 -14z" />
    <glyph glyph-name="onequarter" unicode="&#xbc;" 
d="M243 432c0 -6 -6 -11 -12 -11h-161c-6 0 -11 5 -11 11v33c0 5 5 10 11 10h59v171l-30 -30c-4 -4 -11 -4 -15 0l-23 23c-4 4 -4 12 0 16l55 54c3 2 4 3 8 3h48c6 0 11 -4 11 -10v-227h48c6 0 12 -5 12 -10v-33zM423 470l-274 -273c-4 -4 -11 -4 -15 0l-30 31
c-4 3 -4 10 0 15l273 273c4 4 12 4 16 0l30 -30c4 -4 4 -11 0 -16zM458 60c0 -6 -5 -11 -11 -11h-27v-38c0 -6 -4 -11 -10 -11h-33c-5 0 -10 5 -10 11v38h-97c-6 0 -11 5 -11 11v51c0 2 0 3 1 5l80 169c1 3 7 7 9 7h36c10 0 14 -7 11 -16l-83 -173h54v37c0 6 5 11 10 11h33
c6 0 10 -5 10 -11v-37h27c6 0 11 -5 11 -11v-32z" />
    <glyph glyph-name="onehalf" unicode="&#xbd;" 
d="M243 432c0 -6 -6 -11 -12 -11h-161c-6 0 -11 5 -11 11v33c0 5 5 10 11 10h59v171l-30 -30c-4 -4 -11 -4 -15 0l-23 23c-4 4 -4 12 0 16l55 54c3 2 4 3 8 3h48c6 0 11 -4 11 -10v-227h48c6 0 12 -5 12 -10v-33zM423 470l-274 -273c-4 -4 -11 -4 -15 0l-30 31
c-4 3 -4 10 0 15l273 273c4 4 12 4 16 0l30 -30c4 -4 4 -11 0 -16zM469 11c0 -6 -5 -11 -11 -11h-157c-5 0 -10 5 -10 11v44c0 73 119 112 119 155c0 16 -13 27 -27 27h-11c-15 0 -27 -11 -27 -27c0 -6 -5 -10 -11 -10h-33c-5 0 -10 4 -10 10c0 45 36 82 81 82h11
c44 0 81 -37 81 -82c0 -76 -119 -120 -119 -155v-1h113c6 0 11 -5 11 -11v-32z" />
    <glyph glyph-name="threequarters" unicode="&#xbe;" 
d="M243 502c0 -44 -37 -81 -82 -81h-21c-45 0 -81 37 -81 81c0 6 5 11 11 11h32c6 0 11 -5 11 -11c0 -14 12 -27 27 -27h21c16 0 27 13 27 27v22c0 15 -11 27 -27 27h-37c-6 0 -11 5 -11 11v44c0 2 2 6 3 7l45 46h-76c-5 0 -10 5 -10 10v33c0 6 5 10 10 10h136
c6 0 10 -4 10 -10v-44c0 -1 -2 -7 -3 -8l-47 -47c35 -10 62 -41 62 -79v-22zM423 470l-274 -273c-4 -4 -11 -4 -15 0l-30 31c-4 3 -4 10 0 15l273 273c4 4 12 4 16 0l30 -30c4 -4 4 -11 0 -16zM458 60c0 -6 -5 -11 -11 -11h-27v-38c0 -6 -4 -11 -10 -11h-33
c-5 0 -10 5 -10 11v38h-97c-6 0 -11 5 -11 11v51c0 2 0 3 1 5l80 169c1 3 7 7 9 7h36c10 0 14 -7 11 -16l-83 -173h54v37c0 6 5 11 10 11h33c6 0 10 -5 10 -11v-37h27c6 0 11 -5 11 -11v-32z" />
    <glyph glyph-name="percent" unicode="%" 
d="M248 513c0 -45 -37 -81 -81 -81h-22c-44 0 -81 36 -81 81v129c0 45 37 82 81 82h22c44 0 81 -37 81 -82v-129zM423 470l-274 -273c-4 -4 -11 -4 -15 0l-30 31c-4 3 -4 10 0 15l273 273c4 4 12 4 16 0l30 -30c4 -4 4 -11 0 -16zM464 70c0 -44 -37 -81 -81 -81h-22
c-44 0 -81 37 -81 81v130c0 45 37 80 81 80h22c44 0 81 -35 81 -80v-130zM194 513v129c0 16 -13 27 -27 27h-22c-14 0 -27 -11 -27 -27v-129c0 -15 13 -27 27 -27h22c14 0 27 12 27 27zM410 70v130c0 15 -13 27 -27 27h-22c-14 0 -27 -12 -27 -27v-130c0 -14 13 -27 27 -27
h22c14 0 27 13 27 27z" />
    <glyph glyph-name="perthousand" unicode="&#x2030;" 
d="M221 513c0 -45 -37 -81 -81 -81h-22c-44 0 -81 36 -81 81v129c0 45 37 82 81 82h22c44 0 81 -37 81 -82v-129zM364 470l-274 -273c-5 -4 -11 -4 -15 0l-31 31c-4 3 -4 10 0 15l274 273c5 4 11 4 15 0l31 -30c4 -4 4 -11 0 -16zM501 70c0 -44 -35 -81 -81 -81h-21
c-21 0 -40 8 -54 21c-15 -13 -33 -21 -54 -21h-21c-45 0 -82 37 -82 81v130c0 45 37 80 82 80h21c21 0 39 -7 54 -20c14 13 33 20 54 20h21c46 0 81 -35 81 -80v-130zM167 513v129c0 16 -12 27 -27 27h-22c-14 0 -27 -11 -27 -27v-129c0 -15 13 -27 27 -27h22
c15 0 27 12 27 27zM447 70v130c0 15 -11 27 -27 27h-21c-15 0 -27 -12 -27 -27v-130c0 -14 12 -27 27 -27h21c16 0 27 13 27 27zM318 70v130c0 15 -12 27 -27 27h-21c-16 0 -27 -12 -27 -27v-130c0 -14 11 -27 27 -27h21c15 0 27 13 27 27z" />
    <glyph glyph-name="plus" unicode="+" 
d="M415 237c0 -5 -5 -10 -11 -10h-107v-108c0 -6 -6 -11 -12 -11h-42c-6 0 -12 5 -12 11v108h-107c-6 0 -11 5 -11 10v43c0 6 5 12 11 12h107v107c0 6 6 11 12 11h42c6 0 12 -5 12 -11v-107h107c6 0 11 -6 11 -12v-43z" />
    <glyph glyph-name="minus" unicode="&#x2212;" 
d="M415 237c0 -5 -5 -10 -11 -10h-280c-6 0 -11 5 -11 10v43c0 6 5 12 11 12h280c6 0 11 -6 11 -12v-43z" />
    <glyph glyph-name="plusminus" unicode="&#xb1;" 
d="M415 335c0 -6 -5 -11 -11 -11h-107v-65c0 -6 -6 -10 -12 -10h-42c-6 0 -12 4 -12 10v65h-107c-6 0 -11 5 -11 11v43c0 6 5 11 11 11h107v64c0 6 6 12 12 12h42c6 0 12 -6 12 -12v-64h107c6 0 11 -5 11 -11v-43zM415 140c0 -6 -5 -10 -11 -10h-280c-6 0 -11 4 -11 10v43
c0 6 5 11 11 11h280c6 0 11 -5 11 -11v-43z" />
    <glyph glyph-name="multiply" unicode="&#xd7;" 
d="M401 168c4 -5 4 -12 0 -15l-30 -31c-4 -4 -11 -4 -16 0l-91 91l-91 -91c-5 -4 -12 -4 -16 0l-30 31c-4 3 -4 10 0 15l91 91l-91 91c-4 5 -4 12 0 16l30 30c4 4 11 4 16 0l91 -91l91 91c5 4 12 4 16 0l30 -30c4 -4 4 -11 0 -16l-91 -91z" />
    <glyph glyph-name="divide" unicode="&#xf7;" 
d="M318 367c0 -5 -5 -11 -11 -11h-86c-6 0 -11 6 -11 11v86c0 6 5 12 11 12h86c6 0 11 -6 11 -12v-86zM415 237c0 -5 -5 -10 -11 -10h-280c-6 0 -11 5 -11 10v43c0 6 5 12 11 12h280c6 0 11 -6 11 -12v-43zM318 64c0 -4 -5 -10 -11 -10h-86c-6 0 -11 6 -11 10v87
c0 5 5 11 11 11h86c6 0 11 -6 11 -11v-87z" />
    <glyph glyph-name="equal" unicode="=" 
d="M415 302c0 -5 -5 -10 -11 -10h-280c-6 0 -11 5 -11 10v44c0 5 5 10 11 10h280c6 0 11 -5 11 -10v-44zM415 173c0 -6 -5 -11 -11 -11h-280c-6 0 -11 5 -11 11v43c0 6 5 11 11 11h280c6 0 11 -5 11 -11v-43z" />
    <glyph glyph-name="notequal" unicode="&#x2260;" 
d="M415 173c0 -6 -5 -11 -11 -11h-141l-28 -77c-2 -4 -8 -7 -13 -5l-42 14c-4 2 -7 9 -5 14l19 54h-70c-6 0 -11 5 -11 11v43c0 6 5 11 11 11h94l23 65h-117c-6 0 -11 5 -11 10v44c0 5 5 10 11 10h141l28 77c2 5 8 8 13 6l42 -15c4 -2 7 -8 5 -13l-19 -55h70
c6 0 11 -5 11 -10v-44c0 -5 -5 -10 -11 -10h-94l-23 -65h117c6 0 11 -5 11 -11v-43z" />
    <glyph glyph-name="approxequal" unicode="&#x2248;" 
d="M447 367c0 -73 -100 -150 -206 -44c-66 67 -96 14 -96 1v-22c0 -5 -5 -10 -11 -10h-43c-6 0 -10 5 -10 10v22c0 73 100 150 206 45c66 -68 96 -15 96 -2v22c0 6 5 10 11 10h43c6 0 10 -4 10 -10v-22zM447 194c0 -73 -100 -150 -206 -44c-66 67 -96 14 -96 1v-21
c0 -6 -5 -11 -11 -11h-43c-6 0 -10 5 -10 11v21c0 74 100 150 206 45c66 -67 96 -15 96 -2v22c0 6 5 11 11 11h43c6 0 10 -5 10 -11v-22z" />
    <glyph glyph-name="less" unicode="&#x3c;" 
d="M409 62c10 -8 5 -19 -8 -19h-65c-1 0 -7 2 -8 3l-200 174c-1 1 -4 7 -4 8v41c0 2 3 7 4 8l200 174c1 0 7 2 8 2h65c13 0 18 -10 8 -18l-215 -186z" />
    <glyph glyph-name="greater" unicode="&#x3e;" 
d="M404 228c0 -1 -3 -7 -4 -8l-200 -174c-1 -1 -7 -3 -8 -3h-65c-13 0 -18 11 -8 19l215 187l-215 186c-10 8 -5 18 8 18h65c1 0 7 -2 8 -2l200 -174c1 -1 4 -6 4 -8v-41z" />
    <glyph glyph-name="lessequal" unicode="&#x2264;" 
d="M415 248c0 -8 -6 -13 -13 -11l-281 70c-4 1 -8 7 -8 11v77c0 3 4 9 8 10l281 70c7 2 13 -2 13 -10v-45c0 -3 -4 -9 -8 -10l-226 -54l226 -54c4 -1 8 -5 8 -10v-44zM415 140c0 -6 -5 -10 -11 -10h-280c-6 0 -11 4 -11 10v43c0 6 5 11 11 11h280c6 0 11 -5 11 -11v-43z" />
    <glyph glyph-name="greaterequal" unicode="&#x2265;" 
d="M415 318c0 -4 -4 -10 -8 -11l-281 -70c-7 -2 -13 3 -13 11v44c0 5 4 9 8 10l226 54l-226 54c-4 1 -8 7 -8 10v45c0 8 6 12 13 10l281 -70c4 -1 8 -7 8 -10v-77zM415 140c0 -6 -5 -10 -11 -10h-280c-6 0 -11 4 -11 10v43c0 6 5 11 11 11h280c6 0 11 -5 11 -11v-43z" />
    <glyph glyph-name="logicalnot" unicode="&#xac;" 
d="M415 151c0 -5 -5 -11 -11 -11h-43c-6 0 -11 6 -11 11v76h-226c-6 0 -11 5 -11 10v43c0 6 5 12 11 12h280c6 0 11 -6 11 -12v-129z" />
    <glyph glyph-name="Delta" unicode="&#x2206;" 
d="M456 11c0 -6 -5 -11 -11 -11h-362c-6 0 -11 5 -11 11v69l133 625c1 3 7 7 11 7h96c4 0 10 -4 11 -7l133 -625v-69zM392 64v8l-124 576h-8l-124 -576v-8h256z" />
    <glyph glyph-name="Omega" unicode="&#x3a9;" 
d="M458 11c0 -6 -5 -11 -11 -11h-140c-6 0 -10 5 -10 11v109c0 5 1 11 10 12c21 3 76 32 76 95v335c0 53 -44 97 -98 97h-42c-54 0 -98 -44 -98 -97v-335c0 -63 55 -92 76 -95c9 -1 10 -7 10 -12v-109c0 -6 -4 -11 -10 -11h-140c-6 0 -11 5 -11 11v43c0 6 5 10 11 10h86v20
c-52 26 -86 80 -86 143v335c0 89 72 162 162 162h42c90 0 162 -73 162 -162v-335c0 -63 -34 -117 -86 -143v-20h86c6 0 11 -4 11 -10v-43z" />
    <glyph glyph-name="mu" unicode="&#xb5;" 
d="M437 11c0 -6 -5 -11 -11 -11h-43c-6 0 -11 5 -11 11v10c-27 -20 -61 -32 -97 -32h-22c-36 0 -70 12 -97 32v-226c0 -6 -5 -11 -11 -11h-43c-6 0 -11 5 -11 11v691c0 6 5 10 11 10h43c6 0 11 -4 11 -10v-335c0 -53 44 -97 97 -97h22c53 0 97 44 97 97v335c0 6 5 10 11 10
h43c6 0 11 -4 11 -10v-475z" />
    <glyph glyph-name="pi" unicode="&#x3c0;" 
d="M458 11c0 -6 -5 -11 -11 -11h-107c-6 0 -12 5 -12 11v421h-118v-421c0 -6 -6 -11 -10 -11h-44c-5 0 -11 5 -11 11v421h-64c-6 0 -11 5 -11 11v43c0 6 5 10 11 10h366c6 0 11 -4 11 -10v-43c0 -6 -5 -11 -11 -11h-53v-368h53c6 0 11 -4 11 -10v-43z" />
    <glyph glyph-name="degree" unicode="&#xb0;" 
d="M415 518c0 -89 -72 -162 -162 -162c-89 0 -162 73 -162 162v44c0 89 73 162 162 162c90 0 162 -73 162 -162v-44zM350 518v44c0 53 -43 97 -97 97c-53 0 -97 -44 -97 -97v-44c0 -53 44 -97 97 -97c54 0 97 44 97 97z" />
    <glyph glyph-name="infinity" unicode="&#x221e;" 
d="M480 249c0 -54 -43 -98 -97 -98c-53 0 -88 29 -119 60c-31 -31 -66 -60 -119 -60c-54 0 -97 44 -97 98v21c0 54 43 97 97 97c53 0 88 -28 119 -61c31 34 64 61 119 61c54 0 97 -43 97 -97v-21zM415 249v21c0 18 -15 32 -32 32c-30 0 -53 -19 -76 -43
c23 -24 46 -43 76 -43c17 0 32 14 32 33zM221 259c-23 24 -46 43 -76 43c-17 0 -32 -14 -32 -32v-21c0 -19 15 -33 32 -33c32 0 56 22 76 43z" />
    <glyph glyph-name="partialdiff" unicode="&#x2202;" 
d="M437 151c0 -90 -73 -162 -162 -162h-22c-89 0 -162 72 -162 162v162c0 89 73 162 162 162h22c36 0 70 -12 97 -32v108c0 54 -44 97 -97 97h-65c-6 0 -10 5 -10 11v43c0 6 4 10 10 10h65c89 0 162 -72 162 -161v-400zM372 151v162c0 54 -44 97 -97 97h-22
c-53 0 -97 -43 -97 -97v-162c0 -53 44 -97 97 -97h22c53 0 97 44 97 97z" />
    <glyph glyph-name="integral" unicode="&#x222b;" 
d="M491 518c0 -5 -5 -10 -11 -10h-43c-6 0 -11 5 -11 10v44c0 57 -36 97 -86 97h-22c-50 0 -87 -40 -87 -97v-670c0 -60 -48 -108 -107 -108c-6 0 -11 5 -11 11v43c0 6 5 10 11 10c24 0 43 20 43 44v670c0 85 58 162 151 162h22c93 0 151 -77 151 -162v-44z" />
    <glyph glyph-name="radical" unicode="&#x221a;" 
d="M469 659c0 -6 -5 -11 -11 -11h-133l-119 -639c-1 -4 -6 -9 -10 -9h-81c-5 0 -9 5 -10 10l-44 323c-1 7 4 13 11 13h44c5 0 10 -5 11 -10l30 -233l113 601c1 4 6 8 10 8h178c6 0 11 -4 11 -10v-43z" />
    <glyph glyph-name="summation" unicode="&#x2211;" 
d="M437 11c0 -6 -5 -11 -11 -11h-324c-6 0 -11 5 -11 11v71l1 4l151 268v5l-151 267c0 1 -1 5 -1 6v70c0 6 5 10 11 10h324c6 0 11 -4 11 -10v-130c0 -6 -5 -10 -11 -10h-43c-6 0 -11 4 -11 10v76h-216v-2l150 -268s1 -5 1 -6v-32l-1 -5l-150 -268v-3h216v87c0 5 5 11 11 11
h43c6 0 11 -6 11 -11v-140z" />
    <glyph glyph-name="product" unicode="&#x220f;" 
d="M454 304c0 -1 -2 -5 -3 -6l-274 -294c-1 -1 -7 -4 -8 -4h-85c-5 0 -10 5 -10 11v397c0 1 2 7 3 8l274 293c1 1 7 3 8 3h85c5 0 10 -4 10 -10v-398zM389 325v323h-6l-244 -261v-323h6z" />
    <glyph glyph-name="lozenge" unicode="&#x25ca;" 
d="M471 341c0 -1 -1 -5 -1 -5l-159 -330c-1 -2 -8 -6 -10 -6h-74c-2 0 -9 4 -10 6l-159 330s-1 4 -1 5v31l1 5l159 330c1 2 8 5 10 5h74c2 0 9 -3 10 -5l159 -330l1 -5v-31zM406 353v7l-138 288h-8l-138 -288v-7l138 -289h8z" />
    <glyph glyph-name="apple" unicode="&#xf8ff;" horiz-adv-x="600" 
d="M550 371c0 -55 -40 -95 -95 -95h-73c11 -16 17 -36 17 -56c0 -55 -40 -95 -95 -95h-254v254c0 55 40 95 95 95c20 0 40 -6 56 -17v73c0 55 40 95 95 95s95 -40 95 -95v-64h64c55 0 95 -40 95 -95zM533 371c0 46 -32 78 -78 78h-81v81c0 46 -32 78 -78 78s-78 -32 -78 -78
v-237h237c46 0 78 32 78 78z" />
    <glyph glyph-name="uni00A0" unicode="&#xa0;" 
 />
    <glyph glyph-name="commaaccent" 
d="M260 -136h-26c-3 0 -7 2 -7 6v61c0 4 4 6 7 6h59c3 0 7 -2 7 -6v-68c0 -46 -20 -64 -44 -75c-4 -2 -10 -4 -13 1l-13 20c-1 2 -2 6 3 8c17 9 27 15 27 46v1z" />
    <glyph glyph-name="caron.alt" 
d="M393 585c13 9 23 20 24 45h-19c-6 0 -11 4 -11 10v68c0 4 5 9 11 9h50c5 0 11 -5 11 -9v-74c0 -39 -20 -66 -40 -80c-8 -6 -13 -3 -14 -2l-15 19c-1 2 -5 8 3 14z" />
  </font>
</defs>
</svg>
