<?xml version="1.0" encoding="UTF-8"?>
<svg xmlns="http://www.w3.org/2000/svg" xmlns:xlink="http://www.w3.org/1999/xlink" height="500" width="750">
<defs>
<radialGradient id="radialGradient5949" gradientUnits="userSpaceOnUse" cy="446.19" cx="565.08" gradientTransform="matrix(1.353218,0,0,1.348928,-77.6294,-85.7469)" r="300">
<stop stop-color="#fff" stop-opacity="0.3137255" offset="0"/>
<stop stop-color="#fff" stop-opacity="0.25098041" offset="0.19"/>
<stop stop-color="#6b6b6b" stop-opacity="0.1254902" offset="0.6"/>
<stop stop-color="#000" stop-opacity="0.1254902" offset="1"/>
</radialGradient>
</defs>
<rect height="500" width="750" fill="#fff"/>
<g transform="translate(309.4776,52.46563)">
<g transform="matrix(0.377408,0,0,0.372613,-249.802,-14.09382)">
<g transform="matrix(3.501804,0,0,3.501804,3192.514,872.2206)">
<path d="M-610.77-170.76c0.02,3.79-30.44,6.85-68.04,6.86-37.59,0-68.08-3.07-68.1-6.85v-0.01c-0.02-3.78,30.44-6.85,68.03-6.86,37.6,0,68.09,3.07,68.11,6.85v0.01z" fill="#eabe4e" stroke="#010101" stroke-width="0.291"/>
<path d="M-677.98-182.86c-41.05,0-74.35,5.41-74.35,12.09s33.3,12.12,74.35,12.12c41.04,0,74.34-5.44,74.34-12.12s-33.3-12.09-74.34-12.09zm0,5.25c37.57,0,68.06,3.06,68.06,6.84s-30.49,6.87-68.06,6.87c-37.58,0-68.07-3.09-68.07-6.87s30.49-6.84,68.07-6.84z" fill="#c7af67" stroke="#010101" stroke-width="0.291"/>
<g fill="#faf399">
<path d="M-713.86-177.77c-1.94,0.09-3.44,0.23-5.28,0.34,0.07,3.05,0.13,6.35,0.25,11.63,2.44,0.14,4.37,0.35,7,0.47l-1.97-12.44z"/>
<path d="M-685.14-178.46c-2.87,0-5.31,0.12-8.09,0.16l-8.57,13.22c5.47,0.14,10.75,0.34,16.66,0.34,10.13,0,19.55-0.29,28.19-0.69l0.37-12.34c-8.74-0.41-18.27-0.69-28.56-0.69z"/>
<path d="M-651.08-177.43l1.69,11.5c2.36-0.15,4.76-0.29,6.91-0.47l-4.47-10.75c-1.37-0.09-2.69-0.19-4.13-0.28z"/>
</g>
<path d="M-610.77-170.76c0.02,3.79-30.44,6.85-68.04,6.86-37.59,0-68.08-3.07-68.1-6.85v-0.01c-0.02-3.78,30.44-6.85,68.03-6.86,37.6,0,68.09,3.07,68.11,6.85v0.01z" fill="none" stroke="#010101" stroke-width="0.291"/>
<path stroke-linejoin="bevel" d="M-679.01-204.08c-30.33,0-57.03,4.71-73.69,11.9l4.5,16.78h1.53c11.15-4.39,37.69-7.46,68.69-7.46,30.89,0,57.31,3.07,68.53,7.43l4.47-16.62c-16.63-7.27-43.52-12.03-74.03-12.03z" fill="#e9cb53" stroke="#010101" stroke-width="0.291"/>
<path stroke-linejoin="bevel" d="M-679.01-229.82c-30.33,0-57.03,4.71-73.69,11.91l4.5,16.78h1.53c11.15-4.39,37.69-7.47,68.69-7.47,30.89,0,57.31,3.07,68.53,7.44l4.47-16.63c-16.63-7.27-43.52-12.03-74.03-12.03z" fill="#e9cb53" stroke="#010101" stroke-width="0.291"/>
<path stroke-linejoin="bevel" d="M-678.92-208.61c-43.65,0-79.09,6.65-79.09,14.84,0,2.08,2.33,4.07,6.46,5.87l-1.15-4.28c16.66-7.19,43.36-11.9,73.69-11.9,30.51,0,57.4,4.76,74.03,12.03l-1.1,4.06c4-1.77,6.22-3.73,6.22-5.78,0-8.19-35.42-14.84-79.06-14.84z" fill="#c7af67" stroke="#010101" stroke-width="0.291"/>
<g fill="none" stroke="#000" stroke-width="0.291">
<path d="m-746.39-194.64,0.875,3.26"/>
<path d="m-744.46-187.82,1.108,4.133"/>
<path d="m-742.14-179.32,0.606,2.258"/>
<path d="m-740.47-192.58,0.865,3.23"/>
<path d="m-738.28-184.73,1.083,4.046"/>
<path d="m-733.38-197.35,0.63,2.357"/>
<path d="m-731.97-191.3,1.172,4.374"/>
<path d="m-729.78-182.28,0.535,1.997"/>
<path d="m-725.66-196.06,0.644,3.22"/>
<path d="m-723.99-188.2,0.772,4.378"/>
<path d="m-718.97-200.95,0.514,3.347"/>
<path d="m-717.68-194,0.644,4.506"/>
<path d="m-716.13-184.73,0.257,2.576"/>
<path d="m-706.09-202.49,0.257,3.345"/>
<path d="m-705.58-195.54,0.514,4.763"/>
<path d="m-704.68-186.02,0.257,2.961"/>
<path d="m-711.76-198.5,0.516,3.734"/>
<path d="m-710.73-189.88,0.514,4.119"/>
<path d="m-692.32-203.14,0,2.961"/>
<path d="m-692.57-196.32,0,4.763"/>
<path d="m-692.19-186.92,0,3.605"/>
<path d="m-697.21-191.3,0,4.508"/>
<path d="m-697.21-199.66,0,3.605"/>
<path d="m-612.75-194.64-0.875,3.26"/>
<path d="m-614.68-187.82-1.108,4.133"/>
<path d="m-617-179.32-0.606,2.258"/>
<path d="m-618.67-192.58-0.865,3.23"/>
<path d="m-620.86-184.73-1.083,4.046"/>
<path d="m-625.76-197.35-0.63,2.357"/>
<path d="m-627.17-191.3-1.172,4.374"/>
<path d="m-629.36-182.28-0.535,1.997"/>
<path d="m-633.48-196.06-0.644,3.22"/>
<path d="m-635.15-188.2-0.772,4.378"/>
<path d="m-640.18-200.95-0.514,3.347"/>
<path d="m-641.46-194-0.644,4.506"/>
<path d="m-643.01-184.73-0.257,2.576"/>
<path d="m-653.05-202.49-0.257,3.345"/>
<path d="m-653.56-195.54-0.514,4.763"/>
<path d="m-654.47-186.02-0.257,2.961"/>
<path d="m-647.38-198.5-0.514,3.734"/>
<path d="m-648.42-189.88-0.514,4.119"/>
<path d="m-666.83-203.14,0,2.961"/>
<path d="m-666.57-196.32,0,4.763"/>
<path d="m-666.95-186.92,0,3.605"/>
<path d="m-661.93-191.3,0,4.508"/>
<path d="m-661.93-199.66,0,3.605"/>
<path d="m-680.08-203.53,0,3.09"/>
<path d="m-679.96-196.57,0,4.893"/>
<path d="m-679.96-187.05,0,3.605"/>
<path d="m-685.36-191.68,0,4.504"/>
<path d="m-685.24-200.31,0,3.991"/>
<path d="m-675.45-200.31,0,3.475"/>
<path d="m-675.45-191.55,0,4.376"/>
<path stroke-linejoin="bevel" d="m-605.57-188.26c-16.624-7.272-43.511-12.031-74.031-12.031-30.323,0-57.028,4.712-73.686,11.905"/>
<path stroke-linejoin="bevel" d="m-607.11-185.08c-16.715-6.924-42.855-11.438-72.5-11.438-29.038,0-54.649,4.348-71.406,11.031"/>
<path stroke-linejoin="bevel" d="m-608.23-180.86c-16.751-6.669-42.371-11-71.374-11-28.4,0-53.511,4.159-70.282,10.593"/>
<path stroke-linejoin="bevel" d="m-609.36-176.61c-16.768-6.419-41.889-10.563-70.25-10.563-27.768,0-52.393,3.965-69.156,10.156"/>
</g>
<g fill="none" stroke="#000" stroke-width="0.291">
<path d="m-746.39-220.26,0.875,3.26"/>
<path d="m-744.46-213.44,1.108,4.133"/>
<path d="m-742.14-204.94,0.606,2.258"/>
<path d="m-740.47-218.2,0.865,3.228"/>
<path d="m-738.28-210.35,1.083,4.044"/>
<path d="m-733.38-222.97,0.63,2.357"/>
<path d="m-731.97-216.92,1.172,4.374"/>
<path d="m-729.78-207.9,0.535,1.995"/>
<path d="m-725.66-221.68,0.644,3.22"/>
<path d="m-723.99-213.83,0.772,4.378"/>
<path d="m-718.97-226.57,0.514,3.349"/>
<path d="m-717.68-219.62,0.644,4.504"/>
<path d="m-716.13-210.35,0.257,2.574"/>
<path d="m-706.09-228.12,0.257,3.345"/>
<path d="m-705.58-221.16,0.514,4.765"/>
<path d="m-704.68-211.64,0.257,2.963"/>
<path d="m-711.76-224.12,0.516,3.734"/>
<path d="m-710.73-215.5,0.514,4.119"/>
<path d="m-692.32-228.76,0,2.961"/>
<path d="m-692.57-221.94,0,4.765"/>
<path d="m-692.19-212.54,0,3.605"/>
<path d="m-697.21-216.92,0,4.508"/>
<path d="m-697.21-225.28,0,3.605"/>
<path d="m-612.75-220.26-0.875,3.26"/>
<path d="m-614.68-213.44-1.108,4.133"/>
<path d="m-617-204.94-0.606,2.258"/>
<path d="m-618.67-218.2-0.865,3.228"/>
<path d="m-620.86-210.35-1.083,4.044"/>
<path d="m-625.76-222.97-0.63,2.357"/>
<path d="m-627.17-216.92-1.172,4.374"/>
<path d="m-629.36-207.9-0.535,1.995"/>
<path d="m-633.48-221.68-0.644,3.22"/>
<path d="m-635.15-213.83-0.772,4.378"/>
<path d="m-640.18-226.57-0.514,3.349"/>
<path d="m-641.46-219.62-0.644,4.504"/>
<path d="m-643.01-210.35-0.257,2.574"/>
<path d="m-653.05-228.12-0.257,3.345"/>
<path d="m-653.56-221.16-0.514,4.765"/>
<path d="m-654.47-211.64-0.257,2.963"/>
<path d="m-647.38-224.12-0.514,3.734"/>
<path d="m-648.42-215.5-0.514,4.119"/>
<path d="m-666.83-228.76,0,2.961"/>
<path d="m-666.57-221.94,0,4.765"/>
<path d="m-666.95-212.54,0,3.605"/>
<path d="m-661.93-216.92,0,4.508"/>
<path d="m-661.93-225.28,0,3.605"/>
<path d="m-680.08-229.15,0,3.088"/>
<path d="m-679.96-222.19,0,4.893"/>
<path d="m-679.96-212.67,0,3.605"/>
<path d="m-685.36-217.3,0,4.506"/>
<path d="m-685.24-225.93,0,3.991"/>
<path d="m-675.45-225.93,0,3.477"/>
<path d="m-675.45-217.17,0,4.376"/>
<path stroke-linejoin="bevel" d="m-605.57-214.01c-16.624-7.272-43.511-12.031-74.031-12.031-30.323,0-57.028,4.712-73.686,11.907"/>
<path stroke-linejoin="bevel" d="m-607.11-210.83c-16.715-6.922-42.855-11.438-72.5-11.438-29.038,0-54.649,4.35-71.406,11.033"/>
<path stroke-linejoin="bevel" d="m-608.23-206.61c-16.751-6.671-42.371-11-71.374-11-28.4,0-53.511,4.159-70.282,10.593"/>
<path stroke-linejoin="bevel" d="m-609.36-202.36c-16.768-6.415-41.889-10.563-70.25-10.563-27.768,0-52.393,3.969-69.156,10.158"/>
</g>
<g>
<g fill="#e9cb53" stroke="#010101" stroke-width="0.291" transform="translate(-1061.723,-1170.639)">
<path d="M382.17,970.66c-3.05,0-5.49,2.16-6.19,5l0.02,11.34h2.16v-7.84-1.22h0.01c0.45-2.31,2.04-4.06,4-4.06s3.53,1.75,3.97,4.06v1.22,7.84h2.28v-11.34h-0.03c-0.69-2.84-3.16-5-6.22-5z"/>
<path d="M382.16,973.87c-1.96,0-3.53,1.75-3.97,4.06h-0.02v1.22,8h7.98v-8-1.22c-0.45-2.31-2.03-4.06-3.99-4.06z" fill="#191f11"/>
<path d="M376.11,977.74h2.19"/>
<path d="M386.1,977.74h2.38"/>
<path d="M376.11,981.74h2.19"/>
<path d="M386.1,981.74h2.38"/>
<path d="M379.7,975.02l-2.22-2.21"/>
<path d="M384.68,975l2.23-2.23"/>
</g>
<g stroke="#010101" stroke-width="0.291" transform="translate(-1061.723,-1168.018)">
<path d="M373.76,919.09l-2.34,4.06h1.31l-0.03,24.59h0.03c0.01,0.31-2.02,9.08-4.41,10.82v0.37h4.38,19.4,4.38v-0.34c-2.41-1.73-4.42-10.54-4.41-10.85h0.03l0.03-24.56h1.25l-2.34-4.09-2.34,4.06h1.31v3.25h-3.69v-3.22h1.28l-2.34-4.09-2.34,4.06h1.31v3.25h-3.69v-3.22h1.31l-2.37-4.09-2.35,4.06h1.29v3.25h-3.69v-3.22h1.37l-2.34-4.09z" fill="#e9cb53"/>
<path d="M382.57,932.04c-0.72,0-1.29,0.82-1.46,1.9v0.57,3.75h2.92v-3.75-0.57c-0.17-1.08-0.74-1.9-1.46-1.9z" fill="#191f11"/>
<path d="M377.66,932.04c-0.72,0-1.3,0.82-1.46,1.9h-0.01v0.57,3.75h2.93v-3.75-0.57c-0.17-1.08-0.75-1.9-1.46-1.9z" fill="#191f11"/>
<path d="M387.48,932.04c-0.72,0-1.29,0.82-1.45,1.9h-0.01v0.57,3.75h2.92v-3.75-0.57c-0.16-1.08-0.74-1.9-1.46-1.9z" fill="#191f11"/>
<path d="M372.81,929.96h19.38" fill="none"/>
<path d="M372.74,933.84h19.37" fill="none"/>
<path d="M372.74,937.96h19.37" fill="none"/>
<path d="M372.89,941.92h19.08" fill="none"/>
<path d="M372.67,945.88h19.3" fill="none"/>
<path d="M372.08,950.8h20.55" fill="none"/>
<path d="M371.06,953.8h22.67" fill="none"/>
<path d="M369.81,956.74h25.31" fill="none"/>
<g transform="translate(66.2088,549.5495)">
<path d="M316.17,392.66c-3.05,0-5.49,2.16-6.19,5l0.02,11.34h2.17v-7.84-1.22c0.45-2.31,2.04-4.06,4-4.06s3.53,1.75,3.97,4.06h0.01v1.22,7.84h2.27v-11.34h-0.03c-0.69-2.85-3.16-5-6.22-5z" fill="#e9cb53"/>
<path d="M316.16,395.87c-1.96,0-3.53,1.75-3.97,4.06h-0.02v1.22,8h7.98v-8-1.22c-0.45-2.31-2.03-4.06-3.99-4.06z" fill="#191f11"/>
<path d="M310.11,399.74h2.19" fill="#e9cb53"/>
<path d="M320.1,399.74h2.38" fill="#e9cb53"/>
<path d="M310.11,403.74h2.19" fill="#e9cb53"/>
<path d="M320.1,403.74h2.38" fill="#e9cb53"/>
<path d="M313.7,397.02l-2.22-2.21" fill="#e9cb53"/>
<path d="M318.68,397l2.23-2.23" fill="#e9cb53"/>
</g>
<path d="M377.51,930.03v3.89" fill="none"/>
<path d="M385.44,938.25v3.59" fill="none"/>
<path d="M378.46,938.25v3.67" fill="none"/>
<path d="M389.25,941.99v4.04" fill="none"/>
<path d="M390.72,950.87v3.01" fill="none"/>
<path d="M374.43,950.72v3.16" fill="none"/>
<path d="M372.6,956.74v1.98" fill="none"/>
<path d="M392.56,956.89v1.98" fill="none"/>
<path d="M383.46,930.03v3.3" fill="none"/>
<path d="M381.33,926.51v3.45" fill="none"/>
<path d="M388.45,926.66v3.08" fill="none"/>
<path d="M375.02,926.51v3.3" fill="none"/>
<path d="M372.67,926.51h19.44" fill="none"/>
</g>
<g id="half" stroke="#010101" stroke-width="0.291">
<g transform="translate(-1061.723,-1170.639)">
<path d="M320.52,943.51l0.92,4.45s0.14,0.62,0.22,1.02c0.29,1.41,1.74,2.27,3.22,1.95,1.47-0.32,2.45-1.71,2.15-3.13l-0.21-1.02-0.93-4.45-5.37,1.18z" fill="#e9cb53"/>
<path stroke-linejoin="bevel" d="M320.5,943.45l2.12-3.33,3.26,2.17-5.38,1.16z" fill="#ae1f23"/>
<path stroke-linejoin="bevel" d="M324.44,946.15c0.26,1.28,0.24,2.38-0.06,2.44-0.29,0.07-0.75-0.92-1.02-2.2-0.26-1.29-0.24-2.38,0.06-2.44,0.29-0.07,0.75,0.92,1.02,2.2z" fill="#0b070a"/>
</g>
<g transform="translate(-1061.723,-1170.639)">
<path d="M320.88,976.54c-3.04,0.8-5.22,3.54-5.58,6.48l1.35,11.03,2.16-0.57-0.92-7.62-0.15-1.19h0.01c0.17-2.36,1.56-4.48,3.51-5,1.95-0.51,3.72,0.79,4.43,2.92h0.01l0.14,1.19,0.92,7.62,2.27-0.59-1.34-11.03h-0.02c-1.03-2.58-3.74-4.03-6.79-3.24z" fill="#e9cb53"/>
<path d="M321.24,979.67c-1.95,0.51-3.3,2.62-3.48,4.99h-0.01l0.14,1.18,0.94,7.78,7.95-2.08-0.94-7.78-0.14-1.18c-0.72-2.13-2.5-3.42-4.46-2.91z" fill="#191f11"/>
<path d="M315.67,985.01l2.18-0.57" fill="#e9cb53"/>
<path d="M325.63,982.4l2.37-0.62" fill="#e9cb53"/>
<path d="M316.14,988.9l2.19-0.57" fill="#e9cb53"/>
<path d="M326.1,986.29l2.37-0.62" fill="#e9cb53"/>
<path d="M318.93,981.43l-2.47-1.57" fill="#e9cb53"/>
<path d="M323.89,980.11l1.96-2.75" fill="#e9cb53"/>
</g>
<g transform="translate(-1061.723,-1170.639)">
<path d="M335.44,926.34l-1.96,4.25,1.35-0.19,2.61,23.7h0.03c0.05,0.29-1.09,9.03-3.35,11.04l0.04,0.36,4.48-0.62,19.83-2.75,4.47-0.63-0.04-0.33c-2.64-1.32-5.65-9.53-5.66-9.82l0.03-0.01-2.61-23.66,1.28-0.18-2.83-3.62-1.96,4.25,1.34-0.18,0.35,3.13-3.77,0.52-0.35-3.1,1.31-0.18-2.83-3.61-1.96,4.25,1.34-0.19,0.35,3.13-3.77,0.53-0.34-3.11,1.34-0.18-2.87-3.61-1.96,4.25,1.31-0.18,0.35,3.13-3.77,0.52-0.34-3.1,1.4-0.19-2.84-3.62z" fill="#e9cb53"/>
<path d="M345.83,937.57c-0.73,0.1-1.23,0.97-1.28,2.04l0.06,0.55,0.4,3.61,2.99-0.41-0.41-3.62-0.06-0.54c-0.28-1.03-0.96-1.73-1.7-1.63z" fill="#191f11"/>
<path d="M340.81,938.27c-0.73,0.1-1.23,0.97-1.28,2.03v0.01l0.06,0.55,0.4,3.61,2.99-0.42-0.41-3.61-0.06-0.55c-0.28-1.02-0.96-1.73-1.7-1.62z" fill="#191f11"/>
<path d="M350.85,936.87c-0.73,0.1-1.23,0.97-1.28,2.04l0.06,0.55,0.4,3.61,2.99-0.42-0.41-3.61-0.06-0.55c-0.28-1.01-0.96-1.72-1.7-1.62z" fill="#191f11"/>
<path d="M335.64,936.95l19.8-2.75" fill="none"/>
<path d="M335.99,940.71l19.79-2.76" fill="none"/>
<path d="M336.43,944.67l19.8-2.76" fill="none"/>
<path d="M337,948.46l19.5-2.71" fill="none"/>
<path d="M337.2,952.31l19.73-2.74" fill="none"/>
<path d="M337.13,957.13l21-2.92" fill="none"/>
<path d="M336.4,960.18l23.18-3.22" fill="none"/>
<path d="M335.44,963.18l25.88-3.6" fill="none"/>
<g transform="matrix(1.02204,-0.142103,0.107347,0.96351,-19.63797,616.3143)">
<path d="M317.46,390.44c-3.05,0-5.49,2.16-6.18,5l0.01,11.34h2.17v-7.84-1.22c0.45-2.31,2.04-4.06,4-4.06s3.53,1.75,3.97,4.06h0.01v1.22,7.84h2.27v-11.34h-0.03c-0.69-2.84-3.16-5-6.22-5z" fill="#e9cb53"/>
<path d="M317.45,393.65c-1.96,0-3.53,1.75-3.97,4.06h-0.02v1.22,8h7.98v-8-1.22c-0.44-2.31-2.03-4.06-3.99-4.06z" fill="#191f11"/>
<path d="M311.4,397.52h2.19" fill="#e9cb53"/>
<path d="M321.4,397.52h2.37" fill="#e9cb53"/>
<path d="M311.4,401.52h2.19" fill="#e9cb53"/>
<path d="M321.39,401.52h2.38" fill="#e9cb53"/>
<path d="M314.99,394.81l-2.22-2.22" fill="#e9cb53"/>
<path d="M319.97,394.78l2.23-2.23" fill="#e9cb53"/>
</g>
<path d="M340.45,936.35l0.42,3.75" fill="none"/>
<path d="M349.43,943.14l0.39,3.47" fill="none"/>
<path d="M342.31,944.14l0.39,3.53" fill="none"/>
<path d="M353.73,946.21l0.44,3.89" fill="none"/>
<path d="M356.19,954.56l0.32,2.89" fill="none"/>
<path d="M339.52,956.73l0.34,3.04" fill="none"/>
<path d="M338.29,962.79l0.22,1.91" fill="none"/>
<path d="M358.71,960.09l0.21,1.91" fill="none"/>
<path d="M346.53,935.51l0.35,3.18" fill="none"/>
<path d="M343.97,932.42l0.37,3.32" fill="none"/>
<path d="M351.26,931.55l0.33,2.97" fill="none"/>
<path d="M337.52,933.31l0.36,3.18" fill="none"/>
<path d="M335.12,933.65l19.88-2.77" fill="none"/>
</g>
<g transform="translate(-1061.723,-1170.639)">
<path d="M360.54,936.71v4.66,1.06c0,1.48,1.21,2.66,2.69,2.66s2.69-1.18,2.69-2.66v-1.06-4.66h-5.38z" fill="#e9cb53"/>
<path stroke-linejoin="bevel" d="M360.54,936.65l2.69-2.87,2.69,2.88-5.38-0.01z" fill="#ae1f23"/>
<path stroke-linejoin="bevel" d="M363.77,940.54c0,1.34-0.24,2.43-0.54,2.43s-0.54-1.09-0.54-2.43,0.24-2.42,0.54-2.42,0.54,1.08,0.54,2.42z" fill="#0b070a"/>
</g>
<g transform="translate(-1061.723,-1170.639)">
<path d="M291.05,937.97l-0.02,4.29,1.07-0.39,11.4,21.83,0.03-0.01c0.15,0.26,2.57,8.63,1.43,10.87l0.17,0.33,3.57-1.27,15.85-5.64,3.57-1.27-0.16-0.31c-2.77-0.83-8.51-8.06-8.64-8.33l0.02-0.01-11.39-21.8,1.03-0.36-3.82-2.95-0.03,4.28,1.07-0.38,1.52,2.89-3.01,1.07-1.5-2.86,1.05-0.37-3.82-2.95-0.03,4.28,1.07-0.38,1.52,2.88-3.01,1.08-1.5-2.86,1.07-0.38-3.84-2.94-0.02,4.28,1.04-0.37,1.51,2.88-3.01,1.08-1.5-2.86,1.13-0.4-3.82-2.95z" fill="#e9cb53"/>
<path d="M304.26,946.9c-0.59,0.21-0.67,1.1-0.3,2.11h-0.01l0.27,0.5,1.74,3.33,2.38-0.85-1.74-3.32-0.26-0.51c-0.64-0.91-1.49-1.47-2.08-1.26z" fill="#191f11"/>
<path d="M300.25,948.33c-0.59,0.21-0.67,1.1-0.3,2.1l-0.01,0.01,0.27,0.5,1.74,3.32,2.39-0.84-1.75-3.33-0.26-0.5c-0.64-0.91-1.49-1.47-2.08-1.26z" fill="#191f11"/>
<path d="M308.27,945.47c-0.59,0.21-0.67,1.11-0.3,2.11h-0.01l0.27,0.51,1.74,3.32,2.38-0.85-1.74-3.32-0.26-0.51c-0.64-0.91-1.49-1.47-2.08-1.26z" fill="#191f11"/>
<path d="M295.33,947.89l15.82-5.63" fill="none"/>
<path d="M297.08,951.36l15.82-5.63" fill="none"/>
<path d="M298.99,955l15.81-5.63" fill="none"/>
<path d="M300.95,958.47l15.58-5.54" fill="none"/>
<path d="M302.61,962.05l15.76-5.61" fill="none"/>
<path d="M304.42,966.58l16.77-5.97" fill="none"/>
<path d="M304.98,969.55l18.51-6.59" fill="none"/>
<path d="M305.32,972.52l20.67-7.36" fill="none"/>
<g transform="matrix(0.816361,-0.290555,0.464839,0.886936,-132.4337,704.595)">
<path d="M319.54,388.1c-3.05,0-5.49,2.16-6.18,5l0.01,11.35h2.17v-7.85-1.22c0.45-2.3,2.04-4.06,4-4.06,1.97,0,3.53,1.76,3.97,4.06h0.01v1.22,7.85h2.27v-11.35h-0.03c-0.69-2.84-3.16-5-6.22-5z" fill="#e9cb53"/>
<path d="M319.53,391.32c-1.96,0-3.53,1.75-3.97,4.06h-0.02v1.21,8h7.98v-8-1.21c-0.44-2.31-2.03-4.07-3.99-4.06z" fill="#191f11"/>
<path d="M313.48,395.18h2.19" fill="#e9cb53"/>
<path d="M323.48,395.18h2.37" fill="#e9cb53"/>
<path d="M313.48,399.18h2.19" fill="#e9cb53"/>
<path d="M323.48,399.18h2.38" fill="#e9cb53"/>
<path d="M317.07,392.47l-2.22-2.22" fill="#e9cb53"/>
<path d="M322.05,392.45l2.23-2.23" fill="#e9cb53"/>
</g>
<path d="M299.2,946.59l1.81,3.45" fill="none"/>
<path d="M309.49,951.57l1.67,3.19" fill="none"/>
<path d="M303.8,953.6l1.7,3.25" fill="none"/>
<path d="M314.34,953.78l1.88,3.58" fill="none"/>
<path d="M319.67,961.23l1.4,2.67" fill="none"/>
<path d="M306.3,965.84l1.47,2.8" fill="none"/>
<path d="M307.6,971.71l0.92,1.75" fill="none"/>
<path d="M323.96,966.04l0.92,1.75" fill="none"/>
<path d="M304.05,944.86l1.54,2.93" fill="none"/>
<path d="M300.68,942.35l1.6,3.06" fill="none"/>
<path d="M306.56,940.42l1.43,2.73" fill="none"/>
<path d="M295.52,944.19l1.54,2.93" fill="none"/>
<path d="M293.61,944.87l15.87-5.65" fill="none"/>
</g>
<g transform="translate(-1061.723,-1170.639)">
<path d="M349.23,971.89c-3.06,0.31-5.31,2.69-5.77,5.58l0.98,11.24,2.17-0.21-0.67-7.78-0.1-1.21h0.01c0.25-2.33,1.69-4.23,3.65-4.43s3.68,1.38,4.32,3.62l0.1,1.21,0.67,7.78,2.27-0.23-0.96-11.25-0.03,0.01c-0.93-2.76-3.59-4.64-6.64-4.33z" fill="#e9cb53"/>
<path d="M349.48,975.07c-1.96,0.2-3.37,2.09-3.62,4.43h-0.02l0.1,1.21,0.68,7.93,7.98-0.81-0.68-7.93-0.1-1.2v-0.01c-0.64-2.24-2.37-3.82-4.34-3.62z" fill="#191f11"/>
<path d="M343.77,979.52l2.19-0.22" fill="#e9cb53"/>
<path d="M353.76,978.51l2.38-0.24" fill="#e9cb53"/>
<path d="M344.11,983.48l2.19-0.22" fill="#e9cb53"/>
<path d="M354.1,982.47l2.38-0.24" fill="#e9cb53"/>
<path d="M347.13,976.46l-2.41-1.97" fill="#e9cb53"/>
<path d="M352.11,975.94l2.04-2.44" fill="#e9cb53"/>
</g>
</g>
<use xlink:href="#half" transform="matrix(-1,0,0,1,-1358.9383,0)"/>
</g>
</g>
<g>
<g stroke="#000" stroke-width="5.3876338">
<g fill="#e20909">
<path d="m509.65,1126.6c5.0909-3.0072,15.627-20.976,12.883-22.672-1.551-0.9586-16.921-3.8246-30.416-5.6303-7.2674-0.9724-15.257-1.2487-24.028-0.9142-17.68,0.6743-26.118,6.5199-28.889,11.879-4.9246,9.5231,4.3533,12.258,35.062,10.334,14.734-0.9228,20.219,0.1562,26.65,5.2431,4.4766,3.5409,5.4058,3.7281,8.7375,1.76z"/>
<path d="m617.84,1104.5c3.8359-10.35,5.9322-30.004,4.38-37.091l-0.78572-3.5875-9.838,0.2594c-24.68,0.6508-52.361,2.8469-65.821,7.3701-9.3267,3.1341-9.6904,6.1497-10.777,9.9385-2.6542,9.2545,4.4796,14.588,34.032,11.632,16.615-1.6622,27.48-2.2927,34.746,0.426,6.1602,2.3049,7.0945,12.479,7.0945,16.88,0,4.0675,5.2824-1.2762,6.9691-5.8275z"/>
<path d="m1126.9,1124.9c6.7851-5.1791,12.135-6.2365,26.884-5.3128,24.73,1.5488,35.594-0.015,36.2-5.2095,0.348-2.9833-1.9285-7.5122-4.4559-8.8648-8.2672-4.4245-29.61-6.4986-46.231-4.4928-9.4236,1.1372-28.322,4.3394-30.466,5.1624-1.7926,0.6879-1.6246,2.1422,0.9929,8.598,2.3669,5.8374,4.6987,9.0566,8.4773,11.703,3.0667,2.1481,3.9152,1.9918,8.5993-1.5837z"/>
<path d="m1014.3,1106.9c0-4.4011,3.2788-14.315,9.439-16.62,7.2665-2.7188,16.569-3.1303,33.184-1.4681,24.457,2.4468,32.608,4.1469,33.765-0.4632,1.4137-5.6328-2.6734-14.474-15.165-18.597-13.772-4.5466-38.323-8.7254-59.245-9.3481l-9.6244,0.5029-0.8407,6.0082c-1.0948,4.0923-0.1741,18.259,1.6422,25.268,2.8775,11.104,6.8461,21.108,6.8461,14.717z"/>
</g>
<g fill="#fcef3c">
<path d="m435.39,1144.2c3.3145-0.011,9.4922,0.789,13.728,1.7767,9.8201,2.2898,18.392,2.2988,25.721,0.027,5.3753-1.6662,22.065-10.227,27.744-14.477,2.2549-1.6872,3.4601-2.1071,2.3714-3.419-2.2926-2.7624-12.443-8.0241-16.878-8.5494-3.4955-0.414-6.5701,3.4311-12.96,5.6207-4.4221,1.5154-15.313,4.002-24.203,5.5258-19.104,3.2748-24.755,5.5154-31.699,12.57-2.5674,2.6082-4.668,5.0159-4.668,5.3504s3.3336-0.5199,7.408-1.8986c5.1479-1.7421,9.2466-2.5127,13.434-2.526z"/>
<path d="m1213.5,1148.9c0-0.3931-2.1214-2.8714-4.7143-5.5073-7.056-7.1735-12.599-9.3884-31.53-12.598-8.8224-1.4959-19.578-3.9344-23.902-5.4189-8.597-2.9518-13.744-6.3715-18.866-4.544-3.6404,1.2991-12.516,6.2938-12.516,7.5464,0,1.0204,15.192,10.421,21.955,13.834,11.799,5.9549,21.348,6.9944,35.003,3.8106,12.745-2.9719,20.933-2.1381,34.346,3.4974,0.1234,0.052,0.2244-0.2273,0.2244-0.6203z"/>
<path d="m416.01,1094.2c5.4108-2.1379,7.3976-2.4365,16.184-2.4329h12.36l3.579-14.281-10.37,1.8136c-11.83,2.0376-19.491,6.0635-25.504,13.402-1.7719,2.1624-3.0407,3.9316-2.8195,3.9316s3.1778-1.0967,6.5702-2.4371z"/>
<path d="m1216.2,1093.1c-4.6461-6.2841-12.962-11.208-22.256-13.178-11.619-2.4627-15.13-2.9699-12.618,5.982l2.194,6.3367,12.381-0.5229c8.6939,0,10.817,0.3087,15.873,2.3203,3.2101,1.2772,5.9732,2.2025,6.1401,2.0562s-0.6042-1.4938-1.7137-2.9944z"/>
<path d="m606.24,1115.1c1.9687-0.8248,4.4766-2.3425,5.5732-3.3726,1.8477-1.7359,1.8979-2.0581,0.68571-4.4023-0.71938-1.3911-1.308-3.5999-1.308-4.9085,0-3.1796-4.9288-8.0203-9.4705-9.3013-6.6542-1.8768-16.084-2.0661-31.048-0.6232-24.894,2.4004-31.781,1.7838-35.24-3.1553-0.80534-1.1498-1.4603-3.5159-1.4555-5.258,0.009-3.2714,3.0034-10.594,6.1392-15.013,2.3075-3.2519,4.283-12.369,5.598-25.837,0.9242-9.4649,0.82118-27.776-0.1613-28.672-0.54044-0.4928-27.584-3.0845-47.951-4.5954-20.806-1.5434-34.256-1.6685-43.031-0.4002-7.2722,1.0511-8.8069,1.9889-7.7698,4.7478,4.4895,11.942,5.5901,45.484,2.0692,63.058-1.0936,5.4585-3.0016,12.904-4.24,16.545-1.2384,3.6411-4.0751,11.588-4.0751,11.929s4.551-4.8328,7.8846-5.7665c12.58-3.5233,32.905-3.6422,53.85-0.315,4.8298,0.7672,22.318,4.4016,38.862,8.0764,26.684,5.927,34.235,7.439,44.448,8.9002,5.3935,0.7716,17.111-0.1569,20.64-1.6357z"/>
<path d="m1053.3,1117.7c3.9509-0.7061,19.247-3.6841,33.673-6.9362,14.426-3.252,30.675-6.7173,36.426-7.7006,22.046-3.7689,43.125-3.8185,56.285-0.1325,6.0585,1.6968,8.9122,5.6262,7.2713,2.56-1.5891-2.9692-7.5615-26.237-8.8696-35.364-2.3346-16.288-1.1-41.33,2.6522-53.798,0.9793-3.2539,0.9977-4.2461,0.093-4.997-1.629-1.3519-12.964-2.6543-23.371-2.6853-17.798-0.053-77.454,4.8832-78.575,6.5959-0.9875,1.5086-1.0811,19.918,0,29.858,1.3224,12.106,2.1439,19.559,6.8091,28.477,4.382,8.3773,5.8692,11.626,5.1688,14.968-1.2366,5.902-3.0517,4.2532-27.946,1.8529-15.011-1.4474-31.642-1.5368-37.923,0.2902-4.7431,1.3795-9.6269,6.9021-9.6338,9.8805,0,1.307-1.3983,5.3718-2.1453,6.8043-1.2385,2.3748,1.1261,2.238,2.5724,3.8361,1.9984,2.2082,5.5018,4.033,9.8671,5.1394,4.237,1.0739,18.143,3.0476,27.641,1.3502z"/>
<path d="m870.74,1074.5c12.1-1.2059,32.505-3.5836,45.346-5.2839,96.98-12.841,125.6-12.354,163.48,1.3689,2.6113,0.9461,4.9401,1.7203,5.1752,1.7203,0.235,0-0.1901-1.4777-0.9447-3.2838-2.4128-5.7745-4.1089-14.791-5.1665-27.466-1.216-14.573,0.043-35.175,3.0331-49.615,2.6339-12.722,2.6768-12.3-1.4573-14.367-39.712-1.7733-82.469,7.7567-123.71,10.729-86.133,5.7048-173.57,5.7017-261.75-0.009-28.814-1.8661-53.162-4.1803-90.754-8.6262-19.009-2.3842-46.516-8.5438-59.658,0.0464-0.28827,0.90826,0.62305,3.9413,0.87569,6.939,1.9027,22.576,2.8074,52.014-2.0985,72.953-1.0203,4.3547-7.8417,18.261-6.8382,16.896,2.2268-3.0283,7.4315-4.4593,8.4282-4.9927,34.921-8.8151,45.556-8.3692,81.308-7.4612,36.802,1.3491,56.144-0.3134,104.65,5.5523,27.807,3.3623,64.898,6.8322,80.366,7.5181,13.814,0.6125,37.892-0.443,59.713-2.6177z"/>
</g>
</g>
<g fill="#000">
<path d="M285.06,409.53c-2.36,0-4.39,0.79-6.09,2.35-1.96,1.78-2.91,4.1-2.91,6.93,0,2.77,0.84,5.01,2.53,6.75,1.7,1.75,3.77,2.63,6.25,2.63,2.46,0,4.58-0.9,6.32-2.69,1.73-1.79,2.59-4.04,2.59-6.75,0-2.63-0.88-4.8-2.59-6.56-1.72-1.76-3.75-2.66-6.1-2.66zm-0.25,0.97c1.73,0,3.09,0.59,4.07,1.78,1.21,1.5,1.81,3.79,1.81,6.84,0,2.82-0.55,4.89-1.66,6.19-1.1,1.31-2.49,1.94-4.19,1.94-1.59,0-2.87-0.59-3.84-1.78-1.26-1.57-1.91-3.81-1.91-6.72,0-2.84,0.63-5,1.85-6.47,0.97-1.18,2.26-1.78,3.87-1.78z" transform="matrix(2.6496524,0,0,2.6837496,-158.11959,-102.98033)"/>
<path d="M667.86,1006.5v-1.3h16.94v1.3h-1.8c-1.88,0-3.33,0.8-4.34,2.4-0.5,0.7-0.74,2.4-0.74,5.1v19.4c0,4.8-0.48,8.5-1.43,11.2-0.96,2.6-2.83,4.9-5.62,6.8-2.78,1.9-6.58,2.8-11.38,2.8-5.22,0-9.19-0.9-11.89-2.7-2.71-1.8-4.63-4.3-5.76-7.3-0.75-2.1-1.13-6-1.13-11.8v-18.7c0-3-0.4-4.9-1.21-5.8-0.82-0.9-2.13-1.4-3.94-1.4h-1.8v-1.3h20.68v1.3h-1.83c-1.98,0-3.39,0.6-4.24,1.9-0.59,0.8-0.88,2.6-0.88,5.3v20.9c0,1.8,0.17,3.9,0.51,6.3s0.96,4.3,1.86,5.7c0.89,1.3,2.18,2.4,3.86,3.3,1.68,0.8,3.75,1.3,6.19,1.3,3.13,0,5.93-0.7,8.41-2.1,2.47-1.3,4.15-3.1,5.06-5.2s1.36-5.7,1.36-10.8v-19.4c0-3-0.33-4.9-0.99-5.6-0.92-1.1-2.28-1.6-4.09-1.6h-1.8z"/>
<path d="M331.81,413.28l-6.34,14.66c-0.55,1.29-1.05,2.14-1.5,2.56-0.22,0.21-0.72,0.4-1.47,0.53v0.47h5.69v-0.47c-0.87-0.06-1.43-0.2-1.69-0.41-0.26-0.2-0.41-0.44-0.41-0.71,0-0.35,0.14-0.87,0.44-1.57l1.25-2.81h7l1.06,2.56c0.36,0.84,0.57,1.46,0.57,1.85,0,0.29-0.16,0.51-0.41,0.72-0.25,0.2-0.72,0.34-1.44,0.37v0.47h7.13v-0.47c-0.74-0.04-1.31-0.24-1.72-0.59-0.41-0.36-0.9-1.15-1.41-2.35l-6.28-14.81h-0.47zm-0.47,4.06l3.07,7.22h-6.22l3.15-7.22z" transform="matrix(2.6496524,0,0,2.6837496,-158.11959,-102.98033)"/>
<path d="M758.25,1011.2h12.99l29.26,35.9v-27.6c0-2.9-0.33-4.8-0.99-5.5-0.87-1-2.24-1.5-4.13-1.5h-1.66v-1.3h16.66v1.3h-1.69c-2.02,0-3.46,0.6-4.31,1.9-0.51,0.7-0.77,2.4-0.77,5.1v40.4h-1.27l-31.56-38.6v29.5c0,2.9,0.32,4.8,0.95,5.5,0.9,1,2.27,1.5,4.13,1.5h1.7v1.3h-16.66v-1.3h1.66c2.04,0,3.49-0.6,4.34-1.9,0.52-0.7,0.77-2.4,0.77-5.1v-33.3c-1.38-1.6-2.44-2.7-3.15-3.2-0.72-0.5-1.78-1-3.16-1.5-0.69-0.2-1.72-0.3-3.11-0.3v-1.3z"/>
<path d="M379,414.75l-6.34,14.69c-0.55,1.29-1.05,2.14-1.5,2.56-0.23,0.21-0.72,0.37-1.47,0.5v0.5h5.69v-0.5c-0.88-0.06-1.43-0.17-1.69-0.38-0.26-0.2-0.41-0.44-0.41-0.71,0-0.35,0.17-0.87,0.47-1.57l1.22-2.81h7l1.09,2.56c0.36,0.84,0.53,1.43,0.53,1.82,0,0.29-0.15,0.54-0.4,0.75-0.26,0.2-0.72,0.3-1.44,0.34v0.5h7.13v-0.5c-0.74-0.04-1.31-0.24-1.72-0.59-0.42-0.36-0.87-1.12-1.38-2.32l-6.31-14.84h-0.47zm-0.47,4.09l3.06,7.22h-6.21l3.15-7.22z" transform="matrix(2.6496524,0,0,2.6837496,-158.11959,-102.98033)"/>
<path d="M928.77,1041.8l1.16,0.3-4.09,13h-37.06v-1.3h1.8c2.02,0,3.47-0.7,4.34-2,0.49-0.8,0.74-2.5,0.74-5.2v-30.9c0-3-0.33-4.9-0.99-5.6-0.92-1.1-2.28-1.6-4.09-1.6h-1.8v-1.3h21.67v1.3c-2.54,0-4.33,0.2-5.35,0.7s-1.72,1.1-2.1,1.9-0.56,2.6-0.56,5.4v30.1c0,1.9,0.18,3.3,0.56,4,0.28,0.5,0.72,0.9,1.31,1.1s2.42,0.3,5.5,0.3h3.5c3.67,0,6.25-0.2,7.73-0.8,1.48-0.5,2.83-1.5,4.06-2.8,1.22-1.4,2.44-3.6,3.67-6.6z"/>
<path d="M426.19,411.03l-6.35,14.69c-0.55,1.29-1.04,2.14-1.5,2.56-0.22,0.21-0.71,0.37-1.46,0.5v0.5h5.68v-0.5c-0.87-0.06-1.42-0.2-1.68-0.4-0.27-0.21-0.41-0.45-0.41-0.72,0-0.35,0.17-0.84,0.47-1.54l1.22-2.81h7l1.09,2.57c0.36,0.83,0.53,1.42,0.53,1.81,0,0.29-0.12,0.55-0.37,0.75-0.26,0.2-0.75,0.31-1.47,0.34v0.5h7.12v-0.5c-0.73-0.04-1.3-0.24-1.72-0.59-0.41-0.36-0.87-1.12-1.37-2.31l-6.31-14.85h-0.47zm-0.47,4.09l3.06,7.22h-6.22l3.16-7.22z" transform="matrix(2.6496524,0,0,2.6837496,-158.11959,-102.98033)"/>
<path d="M450.25,409.53c-2.36,0-4.4,0.79-6.09,2.35-1.96,1.78-2.94,4.1-2.94,6.93,0,2.77,0.84,5.01,2.53,6.75,1.69,1.75,3.79,2.63,6.28,2.63,2.46,0,4.55-0.9,6.28-2.69s2.6-4.04,2.6-6.75c0-2.63-0.85-4.8-2.57-6.56-1.71-1.76-3.75-2.66-6.09-2.66zm-0.28,0.97c1.72,0,3.08,0.59,4.06,1.78,1.22,1.5,1.81,3.79,1.81,6.84,0,2.82-0.55,4.89-1.65,6.19-1.11,1.31-2.49,1.94-4.19,1.94-1.59,0-2.88-0.59-3.84-1.78-1.26-1.57-1.88-3.81-1.88-6.72,0-2.84,0.6-5,1.81-6.47,0.98-1.18,2.26-1.78,3.88-1.78z" transform="matrix(2.6496524,0,0,2.6837496,-158.11959,-102.98033)"/>
</g>
</g>
<g id="pelican">
<g fill-opacity="0.94117647" fill-rule="evenodd" transform="matrix(4.189164,0,0,4.189164,-12.278,-67.1633)" stroke="#000" fill="#fcef3c">
<path d="M70.471,190.55c-0.233,26.28-0.466,27.22-0.466,27.22,11.513,11.28,12.878,15.41,16.281,19.07,4.419-6.4,11.28-3.84,11.28-3.84,1.395-6.05,8.724-11.28,8.724-11.28-10.236-0.82-27.912-6.05-29.307-8.14-4.635-6.95,1.744-28.03,1.744-28.03l-8.256,5z"/>
<path d="M95.714,231.72l-11.348-8.72,13.485,8.06" stroke-width="0.5"/>
</g>
<path d="M318.12,678.88s59.57-24.31,120.61,18.52c5.82,1.7,10.09,1.2,14.73,0.4,11.8-12.65,38.56-49.85,59.23-45.03,1.52-31.42-2.07-157.07-2.07-157.07-8.95-0.35-12.05,17.22-12.05,17.22,5.16,35.82-15.5,253.53-100.24,109.54l-59.94,6.2-20.27,50.22z" fill-rule="evenodd" fill-opacity="0.94117647" stroke="#000" stroke-width="4.18916416px" fill="#fcef3c"/>
<g stroke="#000" transform="matrix(4.189164,0,0,4.189164,241.4169,-19.6758)">
<path d="M10.525,46.541c12.21,4.419,12.363,6.754,24.456,17.452,9.652,3.838,24.027,13.25,24.841,15.343l-0.782,3.057c1.86,1.162,3.618-3.125,3.618-3.125-1.861-10.582-35.847-42.458-35.847-42.458l-14.97,3.153-1.316,6.578z" fill-rule="evenodd" fill="#fcef3c"/>
<path d="M22.005,41.805l38.259,35.119,0.814,2.559" stroke-width="0.5" fill="none"/>
<path d="M30.378,54.829c3.837,6.745,10.931,9.187,10.931,9.187" stroke-width="0.5" fill="none"/>
</g>
<g stroke="#000" transform="matrix(4.189164,0,0,4.189164,932.2422,-181.29)">
<g fill-rule="evenodd" fill="#999">
<path d="M-149.98,71.374c-0.17-12.663,14.8-21.05,14.8-22.202-1.48-9.026-22.86,12.499-24.01,15.295-1.33,4.08,1.64,9.045,1.64,9.045"/>
<path d="M-145.87,54.764c-4.44,3.618-8.06,15.459-8.06,15.459"/>
</g>
<g fill-rule="evenodd" fill="#999">
<path d="M-156.89,71.21c-1.81-12.17,7.4-22.695,6.74-23.024-5.66-2.83-12.99,12.169-15.13,17.103l2.8,16.775"/>
<path d="M-159.85,61.178c-2.3,5.92,0.16,13.978,0.16,13.978"/>
</g>
<g fill-rule="evenodd" fill="#999">
<path d="M-161.66,77.623c-2.96-2.96-0.16-24.175-0.99-24.175-6.25,0-9.54,20.393-8.22,24.669,4.27,13.869,7.73,16.281,7.73,16.281"/>
<path d="M-167.25,70.387c-0.5,6.25,4.44,13.979,4.44,13.979"/>
</g>
<g fill-rule="evenodd" fill="#999">
<path d="M-163.14,93.247c-7.89-7.401-9.26-27.258-10.36-29.274-8.45,1.645-4.11,22.695-4.11,22.695,0.16,1.645,11.18,14.802,11.18,14.802"/>
<path d="M-174.49,77.13c-2.79,5.591,9.87,22.202,9.87,22.202"/>
</g>
<g>
<path d="M-153.27,140.28s-2.14-28.61,1.48-32.89l-10.69-15.788-13.82,27.468,12.5,22.86,10.53-1.65z" fill-rule="evenodd" fill="#999"/>
<path d="M-162.32,111.17c-1.31,3.78,2.3,7.57,2.3,7.57" fill="none"/>
<path d="M-165.11,113.31c-1.32,3.78,4.77,10.03,4.77,10.03" fill="none"/>
<path d="M-166.27,119.72c-1.31,3.79,5.43,6.91,5.43,6.91" fill="none"/>
<path d="M-163.31,129.26c0.33,2.8,5.27,2.14,5.27,2.14" fill="none"/>
</g>
</g>
<path d="M248,667.6c19.64,25.14,29.23,81.84,29.23,81.84l5.85-18.51c2.75,1.72,4.43,16.07,8.28,16.07,1.72,0,1.42-14.8,5.36-15.59,1.72-0.34,0.58,20.47,4.38,20.47,3.1,0,3.35-14.82,4.38-14.13,2.44,1.62,2.92,19.66,4.88,10.23-2.76-96.8,186.98-176,183.16-284.5,4.83-112.29-115.94-154.91-189.98-249.42,0,0-20.81-61.97,17.53-34.59,31.01-4.82,28.26-35.56,28.26-35.56h17.05c7.58-66.136-58.95-50.662-58.95-50.662-61.66,0-67.22,63.812-67.22,63.812-15.85,83.02,91.72,181.89,91.72,181.89,15.85,34.45-0.14,93.84-0.14,93.84l-149.71,141.05" fill-rule="evenodd" stroke="#000" stroke-width="4.18916416px" fill="#999"/>
<g stroke="#000" transform="matrix(4.189164,0,0,4.189164,1538.401,-44.7483)">
<path d="M-323.36,147.4c-1.97,2.38-12.11,14.4-14.58,18.59-3.49,3.85,3.3,2.77,3.3,2.77s-10.04,10.61-14.92,13.72c1.5,4.49,11.13-2.02,11.13-2.02s-9.37,5.76-8.88,6.91c2.86,2.18,11.18-3.95,11.18-3.95s-1.98,2.8-0.33,3.79c2.8,0,9.21-5.1,9.21-5.1s-1.31,2.96,0.17,3.45c2.67-1.68,19.4-15.62,19.4-15.62" fill-rule="evenodd" fill="#999"/>
<path d="M-333.58,168.38c-1.07,1.72,3.87,2.18,5.18,0.16,0,2.8,3.81,2.9,5.18,1.56,0.58,1.81,3.24,1.35,4.94-0.33,0.28,0.78,2.7,2.46,3.59,2.14,1.74-0.63,8.55-10.27,10.03-11.09" fill="none"/>
<path d="M-340.5,181.8s7.82-7.62,12.94-11.69" fill="none"/>
<path d="M-337.83,184.59s10.29-9.51,15.41-13.58" fill="none"/>
<path d="M-327.94,182.73s6.83-7.04,11.95-11.11" fill="none"/>
<path d="M-334.75,168.56s7.65-9.11,12.76-13.18" fill-rule="evenodd" fill="#999"/>
<path d="M-328.78,168.8s6.42-7.37,13.76-12.59" fill="none"/>
<path d="M-322.93,169.9s3.03-5.8,12.26-12.92" fill="none"/>
<path d="M-318.24,169.82s3.51-6.09,9.86-10.65" fill="none"/>
<path d="M-318.64,170.63c-5.23,5.35-9.42,8.96-9.42,8.96" fill="none"/>
<path d="M-326.2,171.1c-5.23,5.35-10.58,9.65-10.58,9.65" fill-rule="evenodd" fill="#000"/>
<path d="M-331.32,169.59c-5.23,5.35-6.62,5.81-6.62,5.81" fill="none"/>
<path d="M-326.18,151.28c-1.07,1.73,1.35,5.91,6.5,3.42-1.62,4.31,0.79,3.14,4.14,1.56-0.94,3.67,3.24,1.35,4.93-0.32,0.29,0.78,0.38,2.68,1.97,2.83,1.84,0.16,3.78-5.15,5.26-5.97" fill="none"/>
<path d="M-319.84,154.78l9.34-8.57" fill="none"/>
<path d="M-324.82,155.23l4.55-6.92" fill="none"/>
<path d="M-315.64,156.21l5.61-6.16" fill="none"/>
<path d="M-310.78,156.08l2.96-3.24" fill="none"/>
<path d="M-304.22,145.05c-7.44,9.3,3.26,1.86,3.26,1.86" fill="none"/>
<path d="M-313.81,149.48s-4.36,0.8,0.64-5.24" fill="none"/>
<path d="M-316.9,140.28s-5,6.63-1.62,5.58" fill="none"/>
<path d="M-305.38,139.82l-1.4,2.21" fill="none"/>
<path d="M-319.8,157.03c-1.17,1.28-3.84,3.25-3.84,3.25" fill="none"/>
<path d="M-314.8,158.31c-2.56,1.97-4.77,4.07-4.77,4.07" fill="none"/>
<path d="M-306.66,160.28c-5.24,5.35-4.07,3.96-4.07,3.96" fill="none"/>
<path d="M-309.45,158.07c-2.56,1.98-4.07,3.49-4.07,3.49" fill="none"/>
</g>
<g stroke="#000" transform="matrix(4.189164,0,0,4.189164,1422.04,165.2335)">
<g transform="translate(-284.0077,-40.6182)" fill="#999">
<path d="M-5.8144,113.57c-4.0701,7.91-9.2646,20.95-3.6049,26.75,1.8606,0.58,6.8249-18.58,10.698-20.35,0.5814-1.98,3.1397-10.7,3.1397-10.7" fill-rule="nonzero"/>
<path d="M0.49337,112.65c2.134,0-4.2712,4.28-6.5783,10.2" fill-rule="evenodd"/>
</g>
<g transform="translate(-116.9202,-82.719)">
<path d="M-164.88,156.25c-3.14,14.77-0.23,17.91,1.05,18.03,1.86-0.93,5.12-14.42,8.84-15.24" fill-rule="evenodd" fill="#999"/>
<g fill-rule="evenodd" transform="translate(-167.0875,42.1008)">
<path d="M-13.722,45.775c-13.024-12.21-14.769-26.165-16.164-26.281-6.146-0.512,2.093,24.769,2.093,24.769l15.583,12.443" fill="#999"/>
<path d="M-15.788,48.844s-6.249-4.77-9.538-11.184" fill="#FFF"/>
</g>
<g fill-rule="evenodd" transform="translate(-167.0875,42.1008)" fill="#999">
<path d="M-13.722,54.613c-19.304-10.699-21.63-28.142-23.258-27.56-5.943,2.347,1.628,18.373,1.628,18.373,1.047,4.419,16.397,18.257,16.397,18.257"/>
<path d="M-17.432,59.698s-8.223-6.085-14.801-16.117"/>
</g>
<g fill-rule="evenodd" transform="translate(-167.0875,42.1008)" fill="#999">
<path d="M-19.653,62.404c-23.141-12.792-23.606-27.444-26.165-26.514-5.495,14.896,14.653,28.956,28.84,39.538"/>
<path d="M-18.419,68.743s-10.525-3.783-17.104-13.815"/>
</g>
<g fill-rule="evenodd" transform="translate(-167.0875,42.1008)" fill="#999">
<path d="M-17.443,75.08c-20.118-6.396-29.831-25.145-32.328-24.188-5.815,2.209,6.396,17.908,6.396,17.908,9.884,9.187,26.164,15.931,26.164,15.931"/>
<path d="M-16.939,77.952s-13.979-2.631-21.544-10.36"/>
</g>
<g fill-rule="evenodd" transform="translate(-167.0875,42.1008)" fill="#999">
<path d="M-17.327,83.569c-32.212-10.35-33.491-20.467-36.514-19.653-5.737,4.362,12.675,18.839,12.675,18.839,2.326,3.488,25.816,9.884,25.816,9.884"/>
<path d="M-14.801,85.188s-16.281,0.329-23.188-5.262"/>
</g>
<g fill-rule="evenodd" transform="translate(-167.0875,42.1008)" fill="#999">
<path d="M-15.815,92.523c-30.817-6.512-35.352-15.583-37.794-15.001-3.851,5.236,14.769,16.629,14.769,16.629,11.512,6.629,27.095,7.559,27.095,7.559"/>
<path d="M-12.334,96.207s-10.854,0.329-17.761-3.454"/>
</g>
<g fill-rule="evenodd" transform="translate(-167.0875,42.1008)" fill="#999">
<path d="M-16.745,112.76c-8.606,7.9-13.49,22.67-9.071,23.6,2.442,0.12,9.071-17.21,18.722-19.65l6.1633-5.35"/>
<path d="M-4.4403,110.51c2.134,0-11.179,4.12-13.486,10.04"/>
</g>
<g fill-rule="evenodd" transform="translate(-167.0875,42.1008)" fill="#999">
<path d="M-21.281,105.55c-12.559,9.42-16.578,20.56-14.768,21.16,2.791,0.93,13.958-10.68,18.024-11.39,1.977-0.35,13.722-6.63,13.722-6.63"/>
<path d="M-13.65,106.73c2.134,0-8.711,3.78-11.018,9.71"/>
</g>
<g fill-rule="evenodd" transform="translate(-167.0875,42.1008)" fill="#999">
<path d="M-12.327,101.48c-13.722,1.62-37.793-13.027-38.258-11.748-5.974,6.999,19.885,18.718,25.583,18.138l20.234,1.28"/>
<path d="M-6.9072,105.42s-16.61,0.16-24.175-3.29"/>
</g>
<path d="M-136.33,145.21s0-7.72-3.79-8.05c0,0-8.55-0.66-18.09,0.98-21.81-13.02-4.72-29.75-7.73-35.52-0.98-8.88-15.62-22.201-15.62-22.201-1.48,1.316,0.3,9.605-0.82,9.045-2.96-1.48-1.14,5.036-1.98,6.743-2.79-0.987-2.65,3.245-1.97,6.413-2.3,0.33-1.48,4.28-0.99,7.07-4.51-2.48,1.37,7.04-0.16,6.75-6.91-0.99,0.99,6.57,0.99,6.57-3.95,1.48-2.11,4.42,0.65,5.59-3.45,2.47,0.09,6.41,1.32,6.58-3.12,1.65,0.35,4.02,2.14,5.76-2.8,2.63,2.3,3.75,4.77,4.77-1.98,3.12,0.35,3.8,2.46,4.77-1.31,2.46,1.93,2.28,3.95,1.97-2.47,2.63,1.65,3.78,3.29,3.45,0,0,0.88,3.42,3.78,2.14-0.82,2.63,5.1,2.3,5.1,2.3,0,2.64,8.72,1.65,8.72,1.65" fill-rule="evenodd" stroke-width="1.00003286" fill="#999"/>
<path d="M-170.34,98.574s0.42,3.186,1.97,7.556c-2.44,2.45-2.9,6.17-2.9,6.17" fill="none"/>
<path d="M-178.77,100.55s1.81,4.77,3.95,4.77" fill="none"/>
<g transform="translate(-167.0875,42.1008)" fill="none">
<g>
<path d="M-14.966,47.199s2.303,8.058,4.441,8.058"/>
<path d="M-16.939,53.448s0.658,5.263,2.796,5.263"/>
<path d="M-19.241,60.191s1.809,4.769,3.947,4.769"/>
<path d="M-20.393,67.098s1.974,4.276,4.112,4.276"/>
<path d="M-20.228,74.005s3.289,5.263,5.427,5.263"/>
</g>
<g>
<path d="M-19.57,81.077s3.453,2.96,5.591,2.96"/>
<path d="M-18.748,86.668s3.454,2.961,5.592,2.961"/>
<path d="M-17.926,92.753s5.098,2.467,7.236,2.467"/>
<path d="M-15.623,98.509s5.7556,0.494,7.8936,0.494"/>
<path d="M-10.93,103.23s4.8252-0.2,6.9631-0.2"/>
<path d="M-8.1396,107.88s4.128-1.13,6.731-0.2"/>
</g>
<g>
<path d="M-4.3021,110.56s4.128-1.14,6.731-0.21"/>
<path d="M-1.2786,113.7s4.0117-0.56,6.8473-1.72"/>
<path d="M2.7915,115.79s1.6859,0.49,4.5215-0.67"/>
<path d="M7.6756,117.88s1.4533-0.09,4.2894-1.25"/>
</g>
</g>
<g transform="translate(-167.0875,42.1008)" fill="none">
<path d="M-11.683,58.447s1.8094,4.769,3.9473,4.769"/>
<path d="M-12.729,64.377s1.809,4.77,3.9467,4.77"/>
<path d="M-14.706,69.378s2.274,3.141,4.412,3.141"/>
<path d="M-13.892,75.657s2.274,3.141,4.412,3.141"/>
<path d="M-12.264,82.286s2.5067,0.583,4.6446,0.583"/>
<path d="M-10.752,86.937s0.53,0.118,2.6674,0.118"/>
<path d="M-8.194,54.144s-0.2842,2.676,1.8538,2.676"/>
<path d="M-5.7017,96.794s2.6731-0.311,2.2031-2.397"/>
<path d="M-9.6554,93.072s4.6499-1.357,4.1799-3.443"/>
<path d="M0.11275,102.14s0.81244-5.425,0.34241-7.51"/>
<path d="M6.5086,106.45s-0.8156-7.177-2.4485-8.099"/>
<path d="M13.602,108.19c-1.744-6.05-4.0715-8.8-5.7044-9.374"/>
<path d="M20.463,107.84c-1.744-6.05-6.397-8.334-8.03-8.908"/>
<path d="M28.603,108.07c-1.744-6.04-6.397-8.331-8.03-8.905"/>
<path d="M22.909,116.13c-6.28,2.33-9.187,8.02-9.187,8.02"/>
</g>
</g>
</g>
<path d="M350.13,144.22c-14.12-26.8-28.74-23.87-28.74-23.87-7.31,0-9.74,4.87-18.02,4.87-10.23,0-7.8-10.72-7.8-10.72" stroke="#000" stroke-width="4.18916416px" fill="none"/>
<path d="M327.24,120.83c-2.93,12.67-12.23,15.13-12.23,15.13s2.02,12.08,9.79,12.64c14.28,2.56,18.94-10.28,12.18-21.43-2.44-2.93-9.74-6.34-9.74-6.34z" fill-rule="evenodd" fill="#000"/>
<path d="m-71.703,51.269c0,0.79473-1.6383,1.439-3.6592,1.439s-3.6592-0.64426-3.6592-1.439c0-0.79473,1.6383-1.439,3.6592-1.439s3.6592,0.64426,3.6592,1.439z" transform="matrix(1.674019,-0.559798,0.577585,1.969984,426.5112,-5.6862)" fill="#FFF"/>
<g transform="matrix(4.189164,0,0,4.189164,664.2124,-66.2484)">
<path d="M-88.642,54.106c-1.644,0-2.138,0.987-2.138,0.987" stroke="#000" fill="none"/>
<path d="M-94.069,63.809c-0.698,1.977,1.5,4.693,1.151,4.111" stroke="#000" fill="none"/>
<path d="M-93.961,47.868c-1.628,0-1.744,3.14-1.744,3.14" stroke="#000" fill="none"/>
<path d="M-85.123,75.08l2.326,3.023" stroke="#000" fill="none"/>
<path d="M-83.96,83.917l2.442,2.791" stroke="#000" fill="none"/>
<path d="M-73.727,93.337l2.908,3.14" stroke="#000" fill="none"/>
<path d="M-58.768,104.42s1.382,3.82,2.368,4.15c0,0,1.121,0.38,1.861-0.12,0.674-0.44,0-1.39,0-1.39-0.905-1.32-4.229-2.64-4.229-2.64z" fill-rule="evenodd" fill="#000"/>
<path d="M-64.653,106.34s-0.227,4.05,0.551,4.74c0,0,0.883,0.79,1.757,0.62,0.797-0.14,0.548-1.28,0.548-1.28-0.316-1.56-2.856-4.08-2.856-4.08z" fill-rule="evenodd" fill="#000"/>
<path d="M-60.624,120.65s-0.227,4.05,0.552,4.74c0,0,0.882,0.79,1.757,0.62,0.796-0.15,0.547-1.28,0.547-1.28-0.316-1.57-2.856-4.08-2.856-4.08z" fill-rule="evenodd" fill="#000"/>
<path d="M-52.215,117.92s2.327,2.06,2.467,3.04c0.082,0.57-1.233,3.62-1.233,3.62-0.576,0-0.083-3.95-0.083-3.95s-1.809-2.3-1.151-2.71z" fill-rule="evenodd" stroke="#000" fill="#000"/>
<path d="M-72.658,136.6c-0.74,0-1.393,2.23-0.907,3.15,0,0,0.55,1.05,1.426,1.2,0.797,0.14,0.964-1.01,0.964-1.01,0.255-1.57-0.001-3.34-1.483-3.34z" fill-rule="evenodd" fill="#000"/>
<path d="M-65.422,144.74s-1.639,3.71-1.153,4.63c0,0,0.549,1.05,1.425,1.2,0.797,0.14,0.964-1.01,0.964-1.01,0.255-1.57-1.236-4.82-1.236-4.82z" fill-rule="evenodd" fill="#000"/>
<path d="M-70.198,154.33c-2.436,0.8-2.947,3.69-2.767,4.71,0,0,0.202,1.17,0.988,1.59,0.716,0.37,1.227-0.67,1.227-0.67,0.727-1.42,2.279-4.31,0.552-5.63z" fill-rule="evenodd" fill="#000"/>
<path d="M-77.462,165.19s0.562,3.05,0.068,3.91c-0.29,0.51-1.721,1.35-1.721,1.35-0.453-0.35,0.888-2.42,0.888-2.42s-0.006-2.92,0.765-2.84z" fill-rule="evenodd" stroke="#000" fill="#000"/>
<path d="M-88.316,167.32s0.973,3.97,0.479,4.83c-0.29,0.5-1.227,0.11-1.227,0.11-0.454-0.35-0.018-2.09-0.018-2.09s-0.005-2.93,0.766-2.85z" fill-rule="evenodd" stroke="#000" fill="#000"/>
<path d="M-79.106,152.77s0.397,2.65-0.097,3.51c-0.29,0.5-1.228,0.11-1.228,0.11-0.453-0.35-0.017-2.09-0.017-2.09s0.57-1.61,1.342-1.53z" fill-rule="evenodd" stroke="#000" fill="#000"/>
<path d="M-83.352,139.99c-1.643,1.11-1.648,2.07-1.659,3.11,0,0-0.015,1.18,0.682,1.74,0.634,0.5,2.808-0.43,2.808-0.43,0.975-1.27-1.749-1.3-1.831-4.42z" fill-rule="evenodd" fill="#000"/>
<path d="M-65.755,124.12c-1.643,1.1-1.648,0.92-1.659,3.11,0,0,0.56,1.76,1.257,2.31,0.634,0.51,1.328-1.08,1.328-1.08,0.975-1.27,0.471-3.93-0.926-4.34z" fill-rule="evenodd" fill="#000"/>
<path d="M-53.664,132.9c-0.74,0-1.392,2.23-0.906,3.15,0,0,0.549,1.05,1.425,1.2,0.798,0.14,0.964-1.01,0.964-1.01,0.256-1.57,0-3.34-1.483-3.34z" fill-rule="evenodd" fill="#000"/>
<path d="M-58.762,139.23c-1.057,3.42-2.297,4.45-1.811,5.37,0,0,1.208,0.31,2.083,0.46,0.798,0.14,0.965-1.01,0.965-1.01,0.255-1.57-0.99-1.12-1.237-4.82z" fill-rule="evenodd" fill="#000"/>
<path d="M-87.543,179.04c-0.74,0-1.393,2.24-0.907,3.16,0,0,0.55,1.04,1.426,1.2,0.797,0.14,0.964-1.01,0.964-1.01,0.255-1.58-0.001-3.35-1.483-3.35z" fill-rule="evenodd" fill="#000"/>
</g>
</g>
<use xlink:href="#pelican" transform="matrix(-1,0,0,1,1627.3217,0)"/>
<g>
<path d="m813.66,977.79s298.5-112.32,298.5-397.77v-258.55h-597v258.55c0,285.45,298.5,397.77,298.5,397.77z" fill-rule="evenodd" fill="#2b5df2"/>
<path d="m515.16,531.82,0,48.188c0,30.922,3.5032,59.814,9.75,86.75h577.5c6.2468-26.936,9.75-55.828,9.75-86.75v-48.188h-597z" fill-rule="evenodd" stroke="#000" stroke-width="3" fill="#e20909"/>
<g id="fleur" transform="matrix(0.189129,0,0,0.189129,539.70897,334.01955)" stroke="#000" stroke-width="6.00643682" fill="#fcef3c">
<path d="m407.03,608.7c1.4246-61.956,16.751-119.54,45.29-174.11,74.714-157.19,302.92-153.43,252.62,38.811-18.537,70.839-81.509,112.47-156.32,119.62,5.3996-18.665,35.1-84.652,11.124-97.562-38.338,1.4484-85.944,67.705-97.393,99.301-1.6527,4.5361-1.1904,9.778-3.0358,14.24" fill-rule="evenodd"/>
<path d="M311.99,612.8c-1.42-61.96-16.75-119.54-45.29-174.11-74.71-157.19-302.92-153.43-252.61,38.81,18.537,70.84,81.509,112.47,156.31,119.61-5.3996-18.665-35.1-84.652-11.124-97.562,38.338,1.4484,85.944,67.705,97.393,99.301,1.6527,4.5361,1.1904,9.778,3.0358,14.24" fill-rule="evenodd"/>
<path d="m355.09,12.543c-78.714,84.849-131.56,182.96-108.78,298.03,12.57,63.484,43.042,122.28,64.531,183.44,13.436,38.37,16.872,78.452,15.281,118.78h66.781c-3.1965-40.626,3.8067-79.998,15.281-118.78,20.474-61.538,51.626-119.91,64.531-183.44,24.14-118.77-32.5-208.35-108.43-297.65l-4.6404-5.9183-4.5471,5.5433z" fill-rule="nonzero"/>
<path d="m292.81,659.82c-13.962,39.13-70.888,110.79-101.12,131.22-7.8422,5.2978,37.486-3.0516,57.781-7.5,26.619-5.8346,61.217-34.198,60.406-24.188-0.0756,45.838,12.811,122.32,46.406,157.47l3.1821,3.3876,3.2867-3.3876c33.578-39.171,46.238-108.04,46.406-157.47-0.8112-10.01,33.787,18.353,60.406,24.188,20.295,4.4484,65.623,12.798,57.781,7.5-30.25-20.42-87.15-92.09-101.11-131.22h-133.44z" fill-rule="evenodd"/>
<rect height="51.503" width="317.89" y="610.8" x="200.82"/>
</g>
<use xlink:href="#fleur" x="205.95853"/>
<use xlink:href="#fleur" x="411.91866"/>
<path d="m757.2,623.49,54.449-22.183-22.183,54.449,24.199-16.133,24.199,16.133-22.183-54.449,54.449,22.183-16.133-24.199,16.133-24.199-54.449,22.183,22.183-54.449-24.199,16.133-24.199-16.133,22.183,54.449-54.449-22.183,16.133,24.199-16.133,24.199z" stroke="#000" stroke-width="3" fill="#999"/>
<g id="crown" transform="matrix(0.286187,0,0,0.281082,595.65756,760.8)" stroke="#000" fill="#fcef3c">
<path d="m343.88-131.55c43.2,3.1159,45.787-50.913,46.047-51.172,0.79147-0.78804-8.0223,54.331,36.623,59.014,42.599,4.4115,47.316-49.452,47.586-49.7,0.82178-0.75625-10.199,53.949,31.851,60.035,41.745,7.9268,48.996-47.435,49.28-47.675,0.8534-0.72027-12.454,53.493,30.969,61.559,41.127,8.9938,52.044-43.963,52.353-44.306l-21.147,79.14c0.31747,0.02191-142.45-41.386-311.89-41.386-167.54,0-317.9,41.734-317.6,41.885l-20.51-79.768,0.0792-0.46069c0.29648,0.21526,11.213,53.172,52.341,44.178,43.422-8.0653,30.115-62.279,30.969-61.559,0.28447,0.24011,7.5352,55.602,49.28,47.675,42.049-6.0866,31.029-60.791,31.851-60.035,0.26967,0.24816,4.9862,54.112,47.586,49.7,44.645-4.6825,35.831-59.802,36.623-59.014,0.25971,0.25859,2.8466,54.288,46.047,51.172,45.344-0.51934,42.263-56.261,42.969-55.396,0.23167,0.28409-2.7682,54.297,38.56,55.984" fill-rule="evenodd" stroke-width="5.83949041"/>
<path d="m1.5427,1.0508s139.53-39.703,298.56-39.703c160.83,0,299.48,39.279,299.15,39.309,4.4392-3.4742,4.4392-3.4742,3.422-9.5024-0.0617,0.34249-140.4-39.408-303.11-39.408-160.89,0-302.06,40.063-301.92,39.803-0.82366,6.1106-0.87362,5.9966,3.9044,9.5005z" fill-rule="evenodd" stroke-width="5.83949041"/>
<path d="m-9.9093-55.903s145.37-41.45,311.27-41.45c167.78,0,312.62,41.008,312.27,41.039,4.631-3.6271,4.631-3.6271,3.5698-9.9206-0.0644,0.35756-146.66-41.143-316.4-41.143-167.84,0-314.91,41.827-314.78,41.555-0.85924,6.3796-0.91137,6.2606,4.0731,9.9187z" fill-rule="evenodd" stroke-width="5.83949041"/>
<path d="m296.84-97.344c-165.71,0-306.37,41.343-306.69,41.438l7.1562,46.969,1.75,0.125c7.5162-1.962,144.3-39.438,300.5-39.438,154.45,0,288.04,35.75,301.75,39.094l1.4062-0.25,10.812-46.844-0.1875-0.125c-2.7305-0.86881-150.48-40.969-316.5-40.969z" fill-rule="evenodd" stroke-width="5.83949041"/>
<g fill-rule="evenodd" stroke-width="5.83949041">
<path d="m301.34-97.344c-29.155,0-40.434,0.02173-67.643,2.1321-2.5129,0.72959-11.747,4.7876-10.188,25.062,1.8019,23.425,13.531,23.438,13.531,23.438l0.59375,0.25c25.44-1.894,34.79-1.788,61.93-1.788,22.771,0,39.988,0.7868,61.56,2.125l2.2812-1.125c0,0.000001,10.787,0.05361,11.688-24.272,0.9-24.326-11.69-23.478-11.69-23.478l-0.78125-0.28125c-21.51-1.2927-38.632-2.0625-61.278-2.0625z"/>
<path d="m300.99-92.155c-26.096,0-36.192,0.01699-60.546,1.6669-2.2493,0.57038-10.515,3.7429-9.1186,19.594,1.6128,18.313,12.112,18.323,12.112,18.323l0.53146,0.19545c22.767-1.481,31.133-1.3981,55.427-1.3981,20.382,0,35.793,0.61511,55.101,1.6613l2.0419-0.87952c0,0.000001,9.6548,0.04191,10.461-18.976,0.80642-19.017-10.461-18.355-10.461-18.355l-0.69928-0.21988c-19.253-1.0106-34.579-1.6124-54.849-1.6124z"/>
</g>
<path d="m47.375-69.844c-35.714,7.643-57.095,13.901-57.219,13.938l7.1562,46.969,0.59375,0.03125c21.079-5.9223,37.364-9.7163,57.781-14.125l1.8438-1.6562c0,0,10.159-2.798,4.5625-25.906-3.9827-16.445-10.997-19.089-14.719-19.25z" fill-rule="evenodd" stroke-width="5.83949041"/>
<path d="m41.375-63.656c-1.0435,0.0555-1.6875,0.28125-1.6875,0.28125h-0.71875c-17.085,3.8597-30.945,7.1445-48.125,11.906l5.6875,37.344c18.711-5.2516,33.212-8.7174,51.344-12.781l1.6875-1.375c0,0.000001,9.0916-2.5009,4.8125-20.594-3.2093-13.57-9.8694-14.948-13-14.781z" fill-rule="evenodd" stroke-width="5.83949041"/>
<path d="m555.09-69.844c-3.764,0.23777-10.611,3.0321-14.531,19.219-5.5962,23.108,4.5625,25.906,4.5625,25.906l1.8438,1.6562c19.76,4.266,35.69,7.965,55.79,13.563l7.875-34.219,1.875-12.219c-0.11913-0.03503-19.941-5.8166-53.062-13.031-1.4384-0.29815-2.8563-0.5719-4.3438-0.875z" fill-rule="evenodd" stroke-width="5.83949041"/>
<path d="m560.66-63.688c-3.323,0.06391-9.3662,2.0597-12.375,14.781-4.2791,18.093,4.8125,20.594,4.8125,20.594l1.6875,1.375c17.408,3.9016,31.503,7.2788,49.156,12.188l6.6562-28.812,1.2188-7.9375c-17.18-4.7617-31.04-8.0466-48.125-11.906h-0.71875s-0.64395-0.22575-1.6875-0.28125c-0.19566-0.01041-0.40347-0.0043-0.625,0z" fill-rule="evenodd" stroke-width="5.83949041"/>
<g stroke-width="5.83949041">
<g transform="translate(219.1506,173.2819)">
<path id="path" d="m-61.158-234.44c0,8.4442-6.8454,15.29-15.29,15.29-8.4442,0-15.29-6.8454-15.29-15.29,0-8.4442,6.8454-15.29,15.29-15.29,8.4442,0,15.29,6.8454,15.29,15.29z"/>
</g>
<use xlink:href="#path" transform="translate(535.1351,173.2818)"/>
</g>
<g stroke-width="2.55743384">
<use xlink:href="#path" transform="matrix(2.282616,0,0,2.284064,140.6036,376.7815)"/>
<use xlink:href="#path" transform="matrix(2.282616,0,0,2.284064,221.1426,355.2909)"/>
<use xlink:href="#path" transform="matrix(2.282616,0,0,2.284064,304.3663,341.8593)"/>
<use xlink:href="#path" transform="matrix(2.282616,0,0,2.284064,390.2744,331.1139)"/>
<use xlink:href="#path" transform="matrix(2.282616,0,0,2.284064,478.8674,326.3192)"/>
<use xlink:href="#path" transform="matrix(2.282616,0,0,2.284064,564.7758,331.1139)"/>
<use xlink:href="#path" transform="matrix(2.282616,0,0,2.284064,650.6839,341.8593)"/>
<use xlink:href="#path" transform="matrix(2.282616,0,0,2.284064,733.9077,355.2909)"/>
<use xlink:href="#path" transform="matrix(2.282616,0,0,2.284064,817.1312,376.7816)"/>
</g>
</g>
<use xlink:href="#crown" x="261.79575"/>
<use xlink:href="#crown" x="130.89763" y="137.30497"/>
<path d="m813.66,977.79s298.5-112.32,298.5-397.77v-258.55h-597v258.55c0,285.45,298.5,397.77,298.5,397.77z" fill-rule="evenodd" stroke="#000" stroke-width="2.99997731" fill="url(#radialGradient5949)"/>
</g>
</g>
</g>
</svg>
