<?xml version="1.0" encoding="UTF-8" standalone="no"?>
<svg xmlns="http://www.w3.org/2000/svg" xmlns:xlink="http://www.w3.org/1999/xlink" viewBox="0 0 120 60" height="60" width="120">
    <g id="enabled" fill="#464646">
        <g id="negate">
            <path
              id="path12"
              d="m 38.068971,26.896551 c 0,6.078 -4.926,11 -11,11 -6.074,0 -11,-4.922 -11,-11 0,-6.074 4.926,-11 11,-11 6.074,0 11,4.926 11,11 z"
              style="fill:#ff0000;fill-opacity:0.5;stroke:#ff0000;stroke-width:2" />
            <path
              id="path12-3"
              d="m 44.620689,33.275861 c 0,6.078 -4.926,11 -11,11 -6.074,0 -11,-4.922 -11,-11 0,-6.074 4.926,-11 11,-11 6.074,0 11,4.926 11,11 z"
              style="fill:#01a982;fill-opacity:0.5;stroke:#01a982;stroke-width:2" />
        </g>
    </g>
    <g id="disabled" fill="#bbb" transform="translate(60)">
        <path
          id="path12"
          d="m 38.068971,26.896551 c 0,6.078 -4.926,11 -11,11 -6.074,0 -11,-4.922 -11,-11 0,-6.074 4.926,-11 11,-11 6.074,0 11,4.926 11,11 z"
          style="fill:#808080;fill-opacity:0.1;stroke:#808080;stroke-width:2;stroke-opacity:0.5;" />
        <path
          id="path12-3"
          d="m 44.620689,33.275861 c 0,6.078 -4.926,11 -11,11 -6.074,0 -11,-4.922 -11,-11 0,-6.074 4.926,-11 11,-11 6.074,0 11,4.926 11,11 z"
          style="fill:#555555;fill-opacity:0.1;stroke:#555555;stroke-width:2;stroke-opacity:0.5;" />
    </g>
</svg>
